# This file uses centimeters as units for non-parametric coordinates.

v 0.203640 0.374342 -0.149473
v 0.210365 0.368041 -0.149884
v 0.206058 0.368036 -0.155757
v -0.013683 0.387255 -0.245830
v -0.011364 0.380955 -0.252157
v -0.018568 0.381644 -0.251389
v -0.204383 0.413368 -0.105974
v -0.209355 0.407769 -0.111469
v -0.212252 0.408463 -0.104829
v -0.177761 0.426568 0.130239
v -0.185618 0.421669 0.131491
v -0.181310 0.421674 0.137363
v 0.039562 0.413655 0.226596
v 0.036111 0.408755 0.233764
v 0.043316 0.408066 0.232995
v 0.230262 0.387542 0.086739
v 0.234103 0.381941 0.093076
v 0.237000 0.381247 0.086435
v 0.255968 0.237084 -0.192075
v 0.260120 0.237089 -0.186415
v -0.039496 0.254891 -0.319258
v -0.032552 0.254227 -0.319999
v -0.295464 0.290229 -0.127183
v -0.292672 0.289560 -0.133584
v -0.255968 0.307758 0.192075
v -0.260120 0.307753 0.186415
v 0.039496 0.289950 0.319259
v 0.032552 0.290615 0.319999
v 0.295464 0.254613 0.127184
v 0.292672 0.255282 0.133584
v 0.152947 0.433747 0.047499
v 0.033759 0.450067 0.134909
v -0.102068 0.458138 0.074686
v -0.118707 0.449888 -0.072947
v 0.000481 0.433567 -0.160357
v 0.136308 0.425496 -0.100134
v 0.053594 0.464710 0.000461
v -0.014319 0.468745 -0.029651
v 0.049434 0.462647 -0.036448
v 0.015478 0.464665 -0.051503
v -0.010159 0.470807 0.007257
v 0.023797 0.468790 0.022313
v 0.019637 0.466727 -0.014595
v 0.118297 0.000000 -0.207326
v 0.137217 0.000000 -0.196402
v 0.101289 0.392252 -0.132417
v 0.081065 0.393989 -0.144383
v -0.097942 0.000000 -0.196402
v -0.079022 0.000000 -0.207326
v -0.041791 0.410452 -0.145747
v -0.062014 0.414135 -0.134231
v -0.196601 0.000000 -0.003672
v -0.196601 0.000000 -0.025519
v -0.123442 0.431232 -0.027926
v -0.123442 0.433178 -0.004444
v -0.079022 0.000000 0.178134
v -0.097942 0.000000 0.167210
v -0.062014 0.433813 0.103225
v -0.041791 0.432076 0.115191
v 0.137216 0.000000 0.167210
v 0.118297 0.000000 0.178134
v 0.081065 0.415613 0.116555
v 0.101289 0.411930 0.105039
v 0.235876 0.000000 -0.025519
v 0.235876 0.000000 -0.003672
v 0.162717 0.394832 -0.001266
v 0.162717 0.392886 -0.024748
vt 0.393467 0.176388
vt 0.502254 0.239710
vt 0.499429 0.453698
vt 0.389230 0.515573
vt 0.693917 0.003061
vt 0.692216 0.129418
vt 0.505545 0.234103
vt 0.397976 0.168829
vt 0.993736 0.176561
vt 0.882593 0.238759
vt 0.698712 0.129447
vt 0.702710 0.003186
vt 0.993456 0.522838
vt 0.883021 0.458510
vt 0.885816 0.244402
vt 0.998008 0.184251
vt 0.693681 0.696158
vt 0.692935 0.568849
vt 0.879719 0.464122
vt 0.988952 0.530397
vt 0.393542 0.523236
vt 0.502560 0.459391
vt 0.686435 0.568713
vt 0.684880 0.696070
vt 0.509939 0.240507
vt 0.507137 0.453026
vt 0.695306 0.136507
vt 0.877932 0.245024
vt 0.875189 0.457633
vt 0.689717 0.561629
vt 0.580796 0.282621
vt 0.579091 0.412223
vt 0.693838 0.219209
vt 0.805209 0.285390
vt 0.803505 0.415020
vt 0.690438 0.478447
vt 0.720187 0.332673
vt 0.691851 0.348641
vt 0.692218 0.316138
vt 0.663471 0.364490
vt 0.691362 0.381163
vt 0.664047 0.332114
vt 0.719911 0.365323
vt 0.001992 0.202198
vt 0.380742 0.172408
vt 0.380742 0.334311
vt 0.001992 0.330356
vt 0.001992 0.367123
vt 0.380742 0.338427
vt 0.380742 0.501905
vt 0.001992 0.493732
vt 0.001992 0.528416
vt 0.380742 0.507421
vt 0.380742 0.671832
vt 0.001992 0.654049
vt 0.001992 0.689370
vt 0.380742 0.677609
vt 0.380742 0.840733
vt 0.001992 0.817573
vt 0.001992 0.855958
vt 0.380742 0.845314
vt 0.380742 0.996317
vt 0.001992 0.996317
vt 0.001992 0.039098
vt 0.380742 0.005470
vt 0.380742 0.169707
vt 0.001992 0.164701
vt 0.380742 0.001989
vt 0.001992 0.001989
vn 0.915487 0.382582 -0.124560
vn 0.915487 0.382582 -0.124560
vn 0.915487 0.382582 -0.124560
vn 0.915487 0.382582 -0.124560
vn 0.393473 0.381894 -0.836263
vn 0.393473 0.381894 -0.836263
vn 0.393473 0.381894 -0.836263
vn 0.393473 0.381894 -0.836263
vn -0.477297 0.474749 -0.739460
vn -0.477297 0.474749 -0.739460
vn -0.477297 0.474749 -0.739460
vn -0.477297 0.474749 -0.739460
vn -0.821640 0.566740 0.060932
vn -0.821640 0.566740 0.060932
vn -0.821640 0.566740 0.060932
vn -0.821640 0.566740 0.060932
vn -0.305353 0.567406 0.764729
vn -0.305353 0.567406 0.764729
vn -0.305353 0.567406 0.764729
vn -0.305353 0.567406 0.764729
vn 0.561524 0.476104 0.676769
vn 0.561524 0.476104 0.676769
vn 0.561524 0.476104 0.676769
vn 0.561524 0.476104 0.676769
vn 0.675211 0.728318 -0.116800
vn 0.675211 0.728318 -0.116800
vn 0.675211 0.728318 -0.116800
vn 0.675211 0.728318 -0.116800
vn 0.729213 0.426367 -0.535220
vn 0.729213 0.426367 -0.535220
vn 0.729213 0.426367 -0.535220
vn 0.729213 0.426367 -0.535220
vn 0.313615 0.727875 -0.609789
vn 0.313615 0.727875 -0.609789
vn 0.313615 0.727875 -0.609789
vn 0.313615 0.727875 -0.609789
vn -0.047889 0.477630 -0.877255
vn -0.047889 0.477630 -0.877255
vn -0.047889 0.477630 -0.877255
vn -0.047889 0.477630 -0.877255
vn -0.289452 0.788964 -0.541991
vn -0.289451 0.788964 -0.541991
vn -0.289451 0.788964 -0.541991
vn -0.289451 0.788964 -0.541991
vn -0.722841 0.579807 -0.375932
vn -0.722841 0.579807 -0.375932
vn -0.722841 0.579807 -0.375932
vn -0.722841 0.579807 -0.375932
vn -0.527681 0.849358 0.012008
vn -0.527681 0.849358 0.012008
vn -0.527681 0.849358 0.012008
vn -0.527681 0.849358 0.012008
vn -0.626033 0.630603 0.458718
vn -0.626033 0.630603 0.458718
vn -0.626033 0.630603 0.458718
vn -0.626033 0.630603 0.458718
vn -0.170646 0.849778 0.498757
vn -0.170646 0.849778 0.498757
vn -0.170646 0.849777 0.498757
vn -0.170646 0.849777 0.498757
vn 0.141090 0.580906 0.801649
vn 0.141090 0.580906 0.801649
vn 0.141090 0.580906 0.801649
vn 0.141090 0.580906 0.801649
vn 0.429338 0.789855 0.437948
vn 0.429338 0.789855 0.437948
vn 0.429338 0.789855 0.437948
vn 0.429338 0.789855 0.437948
vn 0.821949 0.478756 0.308531
vn 0.821949 0.478756 0.308531
vn 0.821949 0.478756 0.308531
vn 0.821949 0.478756 0.308531
vn 0.599453 0.668502 -0.440183
vn 0.599453 0.668502 -0.440183
vn 0.599453 0.668502 -0.440183
vn -0.007740 0.707172 -0.706999
vn -0.007740 0.707172 -0.706999
vn -0.007740 0.707172 -0.706999
vn -0.534620 0.784107 -0.315210
vn -0.534620 0.784107 -0.315210
vn -0.534620 0.784107 -0.315210
vn -0.459154 0.822297 0.336163
vn -0.459154 0.822297 0.336163
vn -0.459154 0.822297 0.336163
vn 0.139491 0.784901 0.603716
vn 0.139491 0.784901 0.603716
vn 0.139491 0.784901 0.603716
vn 0.671378 0.708055 0.218883
vn 0.671378 0.708055 0.218883
vn 0.671378 0.708055 0.218883
vn 0.549884 0.828196 -0.108257
vn 0.549884 0.828196 -0.108258
vn 0.549884 0.828196 -0.108258
vn 0.549884 0.828196 -0.108258
vn 0.267744 0.827852 -0.492924
vn 0.267744 0.827852 -0.492924
vn 0.267744 0.827852 -0.492924
vn 0.267744 0.827852 -0.492924
vn -0.203099 0.874609 -0.440238
vn -0.203099 0.874609 -0.440238
vn -0.203099 0.874609 -0.440238
vn -0.203099 0.874609 -0.440238
vn -0.389644 0.920935 -0.007549
vn -0.389644 0.920935 -0.007549
vn -0.389644 0.920935 -0.007549
vn -0.389644 0.920935 -0.007549
vn -0.110582 0.921271 0.372870
vn -0.110582 0.921271 0.372870
vn -0.110582 0.921271 0.372870
vn -0.110582 0.921271 0.372870
vn 0.358163 0.875289 0.324944
vn 0.358163 0.875289 0.324944
vn 0.358163 0.875289 0.324944
vn 0.358163 0.875289 0.324944
vn 0.088095 0.993959 -0.065460
vn 0.088095 0.993959 -0.065460
vn 0.088095 0.993959 -0.065460
vn 0.233919 0.962224 0.139307
vn 0.233919 0.962224 0.139307
vn 0.233919 0.962224 0.139307
vn 0.233919 0.962224 0.139307
vn 0.334983 0.937899 -0.090173
vn 0.334983 0.937899 -0.090173
vn 0.334983 0.937899 -0.090173
vn 0.334983 0.937899 -0.090173
vn 0.185852 0.937720 -0.293496
vn 0.185852 0.937720 -0.293496
vn 0.185852 0.937720 -0.293496
vn 0.185852 0.937720 -0.293496
vn -0.063407 0.961870 -0.266056
vn -0.063407 0.961870 -0.266056
vn -0.063407 0.961870 -0.266056
vn -0.063407 0.961870 -0.266056
vn -0.162866 0.985964 -0.036738
vn -0.162866 0.985964 -0.036738
vn -0.162866 0.985964 -0.036738
vn -0.162866 0.985964 -0.036738
vn -0.014686 0.986139 0.165273
vn -0.014686 0.986139 0.165273
vn -0.014686 0.986139 0.165273
vn -0.014686 0.986139 0.165273
vn 0.088075 0.993959 -0.065486
vn 0.088075 0.993959 -0.065486
vn 0.088075 0.993959 -0.065486
vn 0.088074 0.993959 -0.065483
vn 0.088074 0.993959 -0.065483
vn 0.088074 0.993959 -0.065483
vn 0.088093 0.993959 -0.065459
vn 0.088093 0.993959 -0.065459
vn 0.088093 0.993959 -0.065459
vn 0.088096 0.993959 -0.065461
vn 0.088096 0.993959 -0.065461
vn 0.088096 0.993959 -0.065461
vn 0.088077 0.993959 -0.065484
vn 0.088077 0.993959 -0.065484
vn 0.088077 0.993959 -0.065484
vn 0.012075 0.152960 -0.988159
vn 0.012075 0.152960 -0.988159
vn 0.012075 0.152960 -0.988159
vn 0.012075 0.152960 -0.988159
vn -0.852825 0.145505 -0.501515
vn -0.852825 0.145505 -0.501515
vn -0.852825 0.145504 -0.501515
vn -0.852825 0.145505 -0.501515
vn -0.858023 0.144766 0.492787
vn -0.858023 0.144766 0.492787
vn -0.858023 0.144766 0.492787
vn -0.858023 0.144766 0.492787
vn 0.003258 0.145335 0.989377
vn 0.003258 0.145335 0.989377
vn 0.003258 0.145335 0.989377
vn 0.003258 0.145335 0.989377
vn 0.859883 0.152362 0.487223
vn 0.859883 0.152362 0.487223
vn 0.859883 0.152362 0.487223
vn 0.859883 0.152362 0.487223
vn 0.855759 0.159493 -0.492177
vn 0.855759 0.159493 -0.492177
vn 0.855759 0.159493 -0.492177
vn 0.855759 0.159493 -0.492177
vn 0.502297 0.183165 -0.845073
vn 0.502297 0.183165 -0.845073
vn 0.502297 0.183165 -0.845073
vn 0.502297 0.183165 -0.845073
vn -0.477759 0.171685 -0.861551
vn -0.477759 0.171685 -0.861551
vn -0.477759 0.171685 -0.861551
vn -0.477759 0.171685 -0.861551
vn -0.985954 0.166865 -0.007164
vn -0.985954 0.166865 -0.007164
vn -0.985954 0.166865 -0.007164
vn -0.985954 0.166865 -0.007164
vn -0.492201 0.166822 0.854347
vn -0.492201 0.166822 0.854347
vn -0.492201 0.166822 0.854347
vn -0.492201 0.166822 0.854347
vn 0.502084 0.171153 0.847714
vn 0.502084 0.171153 0.847714
vn 0.502084 0.171153 0.847714
vn 0.502084 0.171153 0.847714
vn 0.983147 0.182650 -0.007841
vn 0.983147 0.182650 -0.007841
vn 0.983147 0.182650 -0.007841
vn 0.983147 0.182650 -0.007841
f 20/1/1 2/2/2 18/3/3 29/4/4
f 22/5/5 5/6/6 3/7/7 19/8/8
f 24/9/9 8/10/10 6/11/11 21/12/12
f 26/13/13 11/14/14 9/15/15 23/16/16
f 28/17/17 14/18/18 12/19/19 25/20/20
f 30/21/21 17/22/22 15/23/23 27/24/24
f 2/2/25 1/25/26 16/26/27 18/3/28
f 2/2/29 20/1/30 19/8/31 3/7/32
f 1/25/33 3/7/34 5/6/35 4/27/36
f 5/6/37 22/5/38 21/12/39 6/11/40
f 4/27/41 6/11/42 8/10/43 7/28/44
f 24/9/45 23/16/46 9/15/47 8/10/48
f 7/28/49 9/15/50 11/14/51 10/29/52
f 11/14/53 26/13/54 25/20/55 12/19/56
f 10/29/57 12/19/58 14/18/59 13/30/60
f 14/18/61 28/17/62 27/24/63 15/23/64
f 13/30/65 15/23/66 17/22/67 16/26/68
f 17/22/69 30/21/70 29/4/71 18/3/72
f 1/25/73 2/2/74 3/7/75
f 4/27/76 5/6/77 6/11/78
f 9/15/79 7/28/80 8/10/81
f 10/29/82 11/14/83 12/19/84
f 13/30/85 14/18/86 15/23/87
f 16/26/88 17/22/89 18/3/90
f 1/25/91 36/31/92 31/32/93 16/26/94
f 1/25/95 4/27/96 35/33/97 36/31/98
f 34/34/99 35/33/100 4/27/101 7/28/102
f 33/35/103 34/34/104 7/28/105 10/29/106
f 13/30/107 32/36/108 33/35/109 10/29/110
f 16/26/111 31/32/112 32/36/113 13/30/114
f 38/37/115 43/38/116 40/39/117
f 31/32/118 37/40/119 42/41/120 32/36/121
f 36/31/122 39/42/123 37/40/124 31/32/125
f 35/33/126 40/39/127 39/42/128 36/31/129
f 34/34/130 38/37/131 40/39/132 35/33/133
f 33/35/134 41/43/135 38/37/136 34/34/137
f 32/36/138 42/41/139 41/43/140 33/35/141
f 42/41/142 37/40/143 43/38/144
f 43/38/145 37/40/146 39/42/147
f 43/38/148 39/42/149 40/39/150
f 41/43/151 43/38/152 38/37/153
f 42/41/154 43/38/155 41/43/156
f 47/44/157 44/45/158 49/46/159 50/47/160
f 51/48/161 48/49/162 53/50/163 54/51/164
f 55/52/165 52/53/166 57/54/167 58/55/168
f 59/56/169 56/57/170 61/58/171 62/59/172
f 63/60/173 60/61/174 65/62/175 66/63/176
f 67/64/177 64/65/178 45/66/179 46/67/180
f 45/66/181 44/45/182 47/44/183 46/67/184
f 49/46/185 48/49/186 51/48/187 50/47/188
f 53/50/189 52/53/190 55/52/191 54/51/192
f 57/54/193 56/57/194 59/56/195 58/55/196
f 61/58/197 60/61/198 63/60/199 62/59/200
f 65/68/201 64/65/202 67/64/203 66/69/204
