# This file uses centimeters as units for non-parametric coordinates.

v -0.260744 0.058040 0.571217
v 0.425243 0.071946 0.771203
v -0.334950 0.173752 -0.334950
v 0.503488 0.197695 -0.500375
v -0.628214 0.061420 -0.094764
v 0.813911 0.115912 0.000000
v 0.129240 0.068087 -0.614503
v 0.000000 -0.000000 0.000000
v 0.000000 0.217065 0.624864
v -0.314107 0.150628 0.000000
v 0.374681 0.202473 0.000000
v 0.000000 0.150506 -0.339107
v 0.000000 0.128358 0.286701
v 0.299024 0.163452 -0.234486
v -0.164807 0.150570 -0.142283
v -0.469678 0.137802 0.308797
v -0.162917 0.130366 0.150383
v 0.163864 0.172999 0.175792
vt 0.595662 0.019198
vt 0.975122 0.063439
vt 0.387243 0.423994
vt 0.751169 0.658993
vt 0.294807 0.252455
vt 0.993557 0.490745
vt 0.550034 0.643859
vt 0.610993 0.331342
vt 0.743751 0.043016
vt 0.460817 0.272885
vt 0.790350 0.406125
vt 0.543006 0.489882
vt 0.669278 0.188273
vt 0.705401 0.499142
vt 0.498193 0.369225
vt 0.449366 0.102083
vt 0.558862 0.228427
vt 0.735152 0.280315
vn -0.074409 0.997207 0.006398
vn 0.036213 0.993821 0.104925
vn -0.109343 0.993739 0.022956
vn -0.060847 0.997962 -0.019242
vn -0.057208 0.991083 -0.120342
vn 0.000692 0.999943 -0.010646
vn 0.154460 0.973722 0.167353
vn -0.046221 0.998619 0.024957
vn 0.050431 0.989303 -0.136879
vn -0.066446 0.997612 -0.018825
vn -0.105241 0.979955 -0.169151
vn -0.037194 0.997629 0.057899
vn -0.156128 0.987435 0.024405
vn 0.142756 0.985212 0.094757
vn 0.114831 0.987301 0.109776
vn -0.016381 0.997312 -0.071414
vn -0.202002 0.979323 0.011011
vn 0.014442 0.998908 -0.044443
s 1
f 8/8/1 11/11/2 14/14/3 12/12/4
f 13/13/5 18/18/6 11/11/2 8/8/1
f 12/12/4 15/15/7 10/10/8 8/8/1
f 10/10/8 17/17/9 13/13/5 8/8/1
f 3/3/10 15/15/7 12/12/4 7/7/11
f 16/16/12 17/17/9 10/10/8 5/5/13
f 18/18/6 2/2/14 6/6/15 11/11/2
f 4/4/16 14/14/3 11/11/2 6/6/15
f 12/12/4 14/14/3 4/4/16 7/7/11
f 5/5/13 10/10/8 15/15/7 3/3/10
f 1/1/17 17/17/9 16/16/12
f 9/9/18 2/2/14 18/18/6 13/13/5
f 1/1/17 9/9/18 13/13/5 17/17/9
