# This file uses centimeters as units for non-parametric coordinates.

v -0.719618 0.000000 1.080416
v 0.989105 0.000000 1.225385
v -1.044588 0.000000 -1.225385
v 1.044588 0.000000 -0.983769
v -0.543608 1.094912 0.816159
v 0.747182 1.094912 0.925670
v 0.789094 1.094912 -0.743151
v -0.789094 1.094912 -0.925670
v -0.595477 1.151817 0.894033
v 0.818475 1.151817 1.013994
v 0.864386 1.151817 -0.814060
v -0.864387 1.151817 -1.013994
v -0.213815 5.638297 0.339408
v -0.286734 5.512288 0.424249
v 0.304440 5.646001 0.389556
v 0.387808 5.512152 0.479109
v 0.319219 5.914751 -0.286712
v 0.410941 5.847508 -0.392259
v -0.317712 5.849361 -0.362200
v -0.415823 5.757569 -0.489250
v 0.432621 4.762384 0.597802
v 0.425704 4.846943 0.588546
v -0.358669 4.010213 0.532420
v -0.350859 4.102910 0.520524
v -0.518746 4.182388 -0.609904
v -0.508898 4.266128 -0.598434
v 0.479613 4.626344 -0.454842
v 0.472830 4.707681 -0.450546
v -0.669268 3.321709 -0.784747
v -0.679453 3.242836 -0.796624
v 0.716426 2.522740 -0.574226
v 0.707367 2.607270 -0.564950
v 0.667386 2.554926 0.724648
v 0.658659 2.638874 0.714201
v -0.469477 3.089975 0.702091
v -0.462034 3.170658 0.690713
v 0.397579 4.748252 0.545472
v 0.390662 4.832811 0.536216
v -0.303113 4.087612 0.460825
v -0.310923 3.994915 0.472721
v 0.434015 4.613836 -0.406106
v 0.427232 4.695173 -0.401809
v -0.471709 4.252453 -0.557068
v -0.481556 4.168713 -0.568537
v -0.635899 3.305245 -0.743988
v -0.646084 3.244353 -0.755865
v -0.429969 3.091051 0.642118
v -0.422525 3.153753 0.630740
v 0.658149 2.590995 -0.517150
v 0.667208 2.524445 -0.526426
v 0.615581 2.622156 0.661270
v 0.624308 2.556190 0.671717
v 0.814479 0.962031 1.009043
v -0.592569 0.962031 0.889668
v -0.860166 0.962031 -1.009043
v 0.860166 0.962031 -0.810085
v 0.825275 0.915642 1.022418
v -0.600424 0.915642 0.901461
v -0.871567 0.915642 -1.022418
v 0.871568 0.915642 -0.820823
v 0.805109 0.915439 0.995057
v -0.577287 0.916708 0.870379
v 0.795559 0.945494 0.983226
v -0.570339 0.946762 0.859948
v -0.852011 0.916963 -1.000393
v -0.841926 0.947017 -0.988562
v 0.837736 0.945749 -0.785579
v 0.847821 0.915695 -0.795077
vt 0.199232 0.005000
vt 0.338317 0.005000
vt 0.339745 0.134821
vt 0.196555 0.136903
vt 0.690264 0.134185
vt 0.517854 0.135704
vt 0.519246 0.005000
vt 0.690264 0.005000
vt 0.005000 0.005000
vt 0.005000 0.136555
vt 0.341414 0.166472
vt 0.194530 0.170250
vt 0.196352 0.149657
vt 0.340133 0.145654
vt 0.517033 0.168060
vt 0.517641 0.147310
vt 0.690264 0.165821
vt 0.690264 0.144526
vt 0.005000 0.165331
vt 0.005000 0.145316
vt 0.339943 0.178966
vt 0.197498 0.182670
vt 0.517356 0.180782
vt 0.690264 0.179329
vt 0.005000 0.175155
vt 0.121513 0.904318
vt 0.139935 0.889730
vt 0.149048 0.988947
vt 0.128720 0.974050
vt 0.022307 0.893414
vt 0.005000 0.873759
vt 0.015911 0.995000
vt 0.030486 0.978599
vt 0.340399 0.708793
vt 0.340889 0.721860
vt 0.195769 0.624428
vt 0.193501 0.611491
vt 0.514355 0.676605
vt 0.514019 0.687395
vt 0.005000 0.633412
vt 0.005000 0.622110
vt 0.690264 0.612703
vt 0.690264 0.624406
vt 0.005000 0.488494
vt 0.005000 0.479997
vt 0.195203 0.462931
vt 0.194755 0.472148
vt 0.690264 0.473153
vt 0.690264 0.482461
vt 0.503689 0.390066
vt 0.502779 0.380939
vt 0.340049 0.395807
vt 0.340757 0.386490
vt 0.338066 0.379653
vt 0.196410 0.456078
vt 0.505224 0.373598
vt 0.690264 0.469628
vt 0.005000 0.477565
vt 0.504363 0.396706
vt 0.690264 0.488925
vt 0.690264 0.605065
vt 0.513686 0.671114
vt 0.338595 0.402252
vt 0.339566 0.705056
vt 0.198337 0.479950
vt 0.199251 0.601971
vt 0.005000 0.491798
vt 0.005000 0.619579
vt 0.198026 0.632772
vt 0.335514 0.729706
vt 0.348984 0.832288
vt 0.187044 0.832288
vt 0.005000 0.636390
vt 0.005000 0.832288
vt 0.517753 0.693051
vt 0.690264 0.628946
vt 0.690264 0.832288
vt 0.537204 0.832288
vt 0.195630 0.140841
vt 0.340502 0.137708
vt 0.340717 0.142116
vt 0.195421 0.145266
vt 0.005000 0.138425
vt 0.005000 0.142704
vt 0.690264 0.141311
vt 0.517111 0.143409
vt 0.517178 0.139002
vt 0.690264 0.136743
vn -0.082802 0.201526 0.975977
vn -0.082802 0.201526 0.975977
vn -0.082802 0.201526 0.975977
vn -0.082802 0.201526 0.975977
vn 0.112687 0.194691 -0.974370
vn 0.112687 0.194691 -0.974370
vn 0.112687 0.194691 -0.974370
vn 0.112687 0.194691 -0.974370
vn 0.983104 0.181374 0.024691
vn 0.983104 0.181374 0.024691
vn 0.983104 0.181374 0.024691
vn 0.983104 0.181374 0.024691
vn -0.978354 0.154306 0.137885
vn -0.978354 0.154306 0.137885
vn -0.978354 0.154306 0.137885
vn -0.978354 0.154306 0.137885
vn -0.073052 0.503246 0.861050
vn -0.073052 0.503246 0.861050
vn -0.073052 0.503246 0.861050
vn -0.073052 0.503246 0.861050
vn 0.886197 0.462775 0.022257
vn 0.886197 0.462775 0.022257
vn 0.886197 0.462775 0.022257
vn 0.886197 0.462775 0.022257
vn 0.100160 0.489814 -0.866054
vn 0.100160 0.489814 -0.866055
vn 0.100160 0.489814 -0.866054
vn 0.100160 0.489814 -0.866055
vn -0.905670 0.404314 0.127641
vn -0.905670 0.404314 0.127641
vn -0.905670 0.404314 0.127641
vn -0.905670 0.404314 0.127641
vn -0.048205 -0.821492 0.568179
vn -0.048205 -0.821492 0.568179
vn -0.048205 -0.821492 0.568179
vn -0.048205 -0.821492 0.568179
vn 0.612054 -0.790667 0.015372
vn 0.612054 -0.790667 0.015372
vn 0.612054 -0.790667 0.015372
vn 0.612054 -0.790667 0.015372
vn 0.067097 -0.811726 -0.580171
vn 0.067097 -0.811726 -0.580171
vn 0.067097 -0.811726 -0.580171
vn 0.067097 -0.811726 -0.580171
vn -0.668225 -0.737974 0.094177
vn -0.668225 -0.737974 0.094177
vn -0.668225 -0.737974 0.094177
vn -0.668225 -0.737974 0.094177
vn -0.076522 0.553498 0.829328
vn -0.076522 0.553498 0.829328
vn -0.076522 0.553498 0.829328
vn -0.076522 0.553498 0.829328
vn -0.781823 0.561339 0.271386
vn -0.781823 0.561339 0.271386
vn -0.781823 0.561339 0.271386
vn -0.781823 0.561339 0.271386
vn 0.738245 0.622037 0.260891
vn 0.738245 0.622037 0.260891
vn 0.738245 0.622037 0.260891
vn 0.738245 0.622037 0.260891
vn -0.021163 0.825574 -0.563897
vn -0.021163 0.825574 -0.563897
vn -0.021163 0.825574 -0.563897
vn -0.021163 0.825574 -0.563897
vn -0.095561 0.938122 0.332861
vn -0.095561 0.938122 0.332861
vn -0.095561 0.938121 0.332861
vn -0.095561 0.938121 0.332861
vn -0.226685 0.116531 0.966972
vn -0.226685 0.116531 0.966972
vn -0.226685 0.116531 0.966972
vn -0.226685 0.116531 0.966972
vn 0.996191 0.083061 0.026530
vn 0.996191 0.083061 0.026530
vn 0.996191 0.083061 0.026530
vn 0.996191 0.083061 0.026530
vn -0.979187 0.098422 0.177500
vn -0.979187 0.098422 0.177500
vn -0.979187 0.098422 0.177500
vn -0.979187 0.098422 0.177500
vn 0.127910 0.091940 -0.987515
vn 0.127910 0.091940 -0.987515
vn 0.127910 0.091940 -0.987515
vn 0.127910 0.091940 -0.987515
vn -0.976263 0.138579 0.166455
vn -0.976263 0.138579 0.166455
vn -0.976263 0.138579 0.166455
vn -0.976263 0.138579 0.166455
vn 0.253017 0.156237 -0.954763
vn 0.253017 0.156237 -0.954763
vn 0.253017 0.156237 -0.954763
vn 0.253017 0.156237 -0.954763
vn 0.990565 0.133235 0.032097
vn 0.990565 0.133235 0.032097
vn 0.990565 0.133235 0.032097
vn 0.990565 0.133235 0.032097
vn 0.057096 0.167515 0.984215
vn 0.057096 0.167515 0.984215
vn 0.057096 0.167515 0.984215
vn 0.057096 0.167515 0.984215
vn -0.025428 0.142339 0.989491
vn -0.025428 0.142339 0.989491
vn -0.025428 0.142339 0.989491
vn -0.025428 0.142339 0.989491
vn 0.993764 0.107650 0.029068
vn 0.993764 0.107650 0.029068
vn 0.993764 0.107650 0.029068
vn 0.993764 0.107650 0.029068
vn 0.161651 0.127510 -0.978576
vn 0.161651 0.127510 -0.978576
vn 0.161651 0.127510 -0.978576
vn 0.161651 0.127510 -0.978576
vn -0.986984 0.075269 0.142118
vn -0.986984 0.075269 0.142118
vn -0.986984 0.075269 0.142118
vn -0.986984 0.075269 0.142118
vn 0.166370 0.101514 -0.980824
vn 0.166370 0.101514 -0.980824
vn 0.166370 0.101514 -0.980824
vn 0.166370 0.101514 -0.980824
vn 0.993509 0.108882 0.032947
vn 0.993509 0.108882 0.032947
vn 0.993509 0.108882 0.032947
vn 0.993509 0.108882 0.032947
vn -0.056573 0.089839 0.994348
vn -0.056573 0.089839 0.994348
vn -0.056573 0.089839 0.994348
vn -0.056573 0.089839 0.994348
vn -0.977306 0.144428 0.154962
vn -0.977306 0.144428 0.154962
vn -0.977306 0.144428 0.154962
vn -0.977306 0.144428 0.154962
vn -0.134477 0.099461 0.985913
vn -0.134477 0.099461 0.985913
vn -0.134477 0.099461 0.985913
vn -0.134477 0.099461 0.985913
vn -0.987260 0.052833 0.150090
vn -0.987260 0.052833 0.150090
vn -0.987260 0.052833 0.150090
vn -0.987260 0.052833 0.150090
vn 0.116091 0.061718 -0.991319
vn 0.116091 0.061718 -0.991319
vn 0.116091 0.061718 -0.991319
vn 0.116091 0.061718 -0.991319
vn 0.997508 0.056347 0.042468
vn 0.997508 0.056347 0.042468
vn 0.997508 0.056347 0.042468
vn 0.997508 0.056347 0.042468
vn 0.674949 -0.691243 0.258121
vn 0.674949 -0.691243 0.258121
vn 0.674949 -0.691243 0.258121
vn 0.674949 -0.691243 0.258121
vn -0.672420 0.693581 -0.258450
vn -0.672420 0.693581 -0.258450
vn -0.672420 0.693581 -0.258450
vn -0.672420 0.693581 -0.258450
vn -0.304983 0.942039 -0.139817
vn -0.304983 0.942039 -0.139817
vn -0.304983 0.942039 -0.139817
vn -0.304983 0.942039 -0.139817
vn 0.304564 -0.941430 0.144742
vn 0.304564 -0.941430 0.144742
vn 0.304564 -0.941430 0.144742
vn 0.304564 -0.941430 0.144742
vn -0.339196 -0.936218 -0.091885
vn -0.339196 -0.936218 -0.091885
vn -0.339196 -0.936218 -0.091885
vn -0.339196 -0.936218 -0.091885
vn 0.339969 0.935449 0.096726
vn 0.339969 0.935449 0.096726
vn 0.339969 0.935449 0.096726
vn 0.339969 0.935449 0.096726
vn 0.443596 -0.870872 -0.211671
vn 0.443596 -0.870872 -0.211671
vn 0.443596 -0.870872 -0.211671
vn 0.443596 -0.870872 -0.211671
vn -0.440440 0.872299 0.212386
vn -0.440440 0.872299 0.212386
vn -0.440440 0.872299 0.212386
vn -0.440440 0.872299 0.212386
vn -0.007385 0.994320 0.106180
vn -0.007385 0.994320 0.106180
vn -0.007385 0.994320 0.106180
vn -0.007385 0.994320 0.106180
vn -0.423389 -0.905324 -0.033618
vn -0.423389 -0.905324 -0.033618
vn -0.423389 -0.905324 -0.033618
vn -0.423389 -0.905324 -0.033618
vn -0.386150 -0.840592 -0.379861
vn -0.386150 -0.840592 -0.379861
vn -0.386150 -0.840591 -0.379861
vn -0.386150 -0.840591 -0.379861
vn 0.462169 0.885353 0.050498
vn 0.462169 0.885353 0.050498
vn 0.462169 0.885353 0.050498
vn 0.462169 0.885353 0.050498
vn 0.334588 -0.941658 0.036477
vn 0.334588 -0.941658 0.036477
vn 0.334588 -0.941658 0.036477
vn 0.334588 -0.941658 0.036477
vn 0.033497 0.999142 -0.024348
vn 0.033497 0.999142 -0.024348
vn 0.033497 0.999142 -0.024348
vn 0.033497 0.999142 -0.024348
vn -0.430893 -0.861050 0.270043
vn -0.430893 -0.861050 0.270043
vn -0.430893 -0.861050 0.270043
vn -0.430893 -0.861050 0.270043
vn 0.438679 0.898631 0.004751
vn 0.438679 0.898631 0.004751
vn 0.438679 0.898631 0.004751
vn 0.438679 0.898631 0.004751
vn -0.084096 0.342872 0.935610
vn -0.084096 0.342872 0.935610
vn -0.084096 0.342872 0.935610
vn -0.084096 0.342872 0.935610
vn -0.953480 0.266928 0.140090
vn -0.953480 0.266928 0.140090
vn -0.953480 0.266928 0.140090
vn -0.953480 0.266928 0.140090
vn 0.113376 0.332259 -0.936349
vn 0.113376 0.332259 -0.936349
vn 0.113376 0.332259 -0.936349
vn 0.113376 0.332259 -0.936349
vn 0.950065 0.311226 0.022706
vn 0.950065 0.311226 0.022706
vn 0.950065 0.311226 0.022706
vn 0.950065 0.311226 0.022706
vn -0.000836 0.999891 0.014721
vn -0.000836 0.999891 0.014721
vn -0.000836 0.999891 0.014721
vn -0.000836 0.999891 0.014721
vn -0.043672 -0.868060 0.494534
vn -0.043672 -0.868060 0.494534
vn -0.043672 -0.868060 0.494534
vn -0.043672 -0.868060 0.494534
vn -0.054158 0.998501 0.007857
vn -0.054158 0.998501 0.007857
vn -0.054158 0.998501 0.007857
vn -0.054158 0.998501 0.007857
vn -0.584627 -0.806935 0.084067
vn -0.584627 -0.806935 0.084067
vn -0.584627 -0.806935 0.084067
vn -0.584627 -0.806935 0.084067
vn 0.066560 -0.821975 -0.565621
vn 0.066560 -0.821975 -0.565621
vn 0.066560 -0.821975 -0.565621
vn 0.066560 -0.821975 -0.565621
vn 0.003727 0.999589 -0.028422
vn 0.003727 0.999589 -0.028422
vn 0.003727 0.999589 -0.028422
vn 0.003727 0.999589 -0.028422
vn -0.003416 0.999994 -0.000013
vn -0.003416 0.999994 -0.000013
vn -0.003416 0.999994 -0.000013
vn -0.003416 0.999994 -0.000013
vn 0.621311 -0.783418 0.015160
vn 0.621311 -0.783418 0.015160
vn 0.621311 -0.783418 0.015160
vn 0.621311 -0.783418 0.015160
f 1/1/1 2/2/2 57/3/3 58/4/4
f 59/5/5 60/6/6 4/7/7 3/8/8
f 2/2/9 4/7/10 60/6/11 57/3/12
f 3/9/13 1/1/14 58/4/15 59/10/16
f 6/11/17 5/12/18 54/13/19 53/14/20
f 7/15/21 6/11/22 53/14/23 56/16/24
f 8/17/25 7/15/26 56/16/27 55/18/28
f 5/12/29 8/19/30 55/20/31 54/13/32
f 5/12/33 6/11/34 10/21/35 9/22/36
f 6/11/37 7/15/38 11/23/39 10/21/40
f 7/15/41 8/17/42 12/24/43 11/23/44
f 8/19/45 5/12/46 9/22/47 12/25/48
f 13/26/49 14/27/50 16/28/51 15/29/52
f 14/27/53 13/26/54 19/30/55 20/31/56
f 15/29/57 16/28/58 18/32/59 17/33/60
f 17/33/61 18/32/62 20/31/63 19/30/64
f 13/26/65 15/29/66 17/33/67 19/30/68
f 37/34/69 38/35/70 39/36/71 40/37/72
f 38/35/73 37/34/74 41/38/75 42/39/76
f 40/37/77 39/36/78 43/40/79 44/41/80
f 44/42/81 43/43/82 42/39/83 41/38/84
f 45/44/85 46/45/86 47/46/87 48/47/88
f 46/48/89 45/49/90 49/50/91 50/51/92
f 50/51/93 49/50/94 51/52/95 52/53/96
f 52/53/97 51/52/98 48/47/99 47/46/100
f 9/22/101 10/21/102 33/54/103 35/55/104
f 10/21/105 11/23/106 31/56/107 33/54/108
f 11/23/109 12/24/110 30/57/111 31/56/112
f 12/25/113 9/22/114 35/55/115 30/58/116
f 32/59/117 29/60/118 25/61/119 27/62/120
f 34/63/121 32/59/122 27/62/123 21/64/124
f 36/65/125 34/63/126 21/64/127 23/66/128
f 29/67/129 36/65/130 23/66/131 25/68/132
f 24/69/133 22/70/134 16/71/135 14/72/136
f 26/73/137 24/69/138 14/72/139 20/74/140
f 28/75/141 26/76/142 20/77/143 18/78/144
f 22/70/145 28/75/146 18/78/147 16/71/148
f 22/70/149 24/69/150 39/36/151 38/35/152
f 23/66/153 21/64/154 37/34/155 40/37/156
f 21/64/157 27/62/158 41/38/159 37/34/160
f 28/75/161 22/70/162 38/35/163 42/39/164
f 24/69/165 26/73/166 43/40/167 39/36/168
f 25/68/169 23/66/170 40/37/171 44/41/172
f 26/76/173 28/75/174 42/39/175 43/43/176
f 27/62/177 25/61/178 44/42/179 41/38/180
f 30/58/181 35/55/182 47/46/183 46/45/184
f 36/65/185 29/67/186 45/44/187 48/47/188
f 29/60/189 32/59/190 49/50/191 45/49/192
f 31/56/193 30/57/194 46/48/195 50/51/196
f 32/59/197 34/63/198 51/52/199 49/50/200
f 33/54/201 31/56/202 50/51/203 52/53/204
f 34/63/205 36/65/206 48/47/207 51/52/208
f 35/55/209 33/54/210 52/53/211 47/46/212
f 62/79/213 61/80/214 63/81/215 64/82/216
f 65/83/217 62/79/218 64/82/219 66/84/220
f 66/85/221 67/86/222 68/87/223 65/88/224
f 61/80/225 68/87/226 67/86/227 63/81/228
f 58/4/229 57/3/230 61/80/231 62/79/232
f 53/14/233 54/13/234 64/82/235 63/81/236
f 59/10/237 58/4/238 62/79/239 65/83/240
f 54/13/241 55/20/242 66/84/243 64/82/244
f 55/18/245 56/16/246 67/86/247 66/85/248
f 60/6/249 59/5/250 65/88/251 68/87/252
f 57/3/253 60/6/254 68/87/255 61/80/256
f 56/16/257 53/14/258 63/81/259 67/86/260
