# This file uses centimeters as units for non-parametric coordinates.

v 0.129367 0.086978 0.119891
v 0.044724 0.086978 0.167982
v 0.043753 -0.000000 0.188995
v 0.169832 -0.000000 0.126105
v 0.032579 0.086978 -0.133531
v 0.068632 -0.000000 -0.142247
v -0.070766 -0.000000 -0.188995
v -0.073035 0.086978 -0.165145
v -0.141795 -0.000000 -0.139413
v -0.142276 0.062019 -0.108286
v -0.090553 0.041353 0.069295
v -0.093061 -0.000000 0.087117
v -0.152448 0.027665 0.030173
v -0.168462 -0.000000 0.043596
v -0.201699 -0.000000 -0.051773
v -0.185998 0.052633 -0.044838
v -0.099522 0.115256 -0.021091
v -0.036635 0.115256 -0.112517
v 0.082868 0.099707 -0.016006
v 0.049428 0.099707 0.084849
v 0.168096 0.086978 -0.005144
v 0.201699 -0.000000 -0.018110
vt 0.653500 0.142700
vt 0.626600 0.112300
vt 0.629600 0.092000
vt 0.676200 0.140200
vt 0.580400 0.229900
vt 0.593300 0.243000
vt 0.525200 0.241400
vt 0.534200 0.228200
vt 0.501000 0.207900
vt 0.514000 0.195300
vt 0.558300 0.131200
vt 0.554800 0.115200
vt 0.528100 0.137700
vt 0.515400 0.122400
vt 0.487200 0.159400
vt 0.505200 0.163900
vt 0.559000 0.173500
vt 0.556500 0.213500
vt 0.616700 0.190700
vt 0.617300 0.146300
vt 0.651600 0.197300
vt 0.669600 0.209300
vn 0.452683 0.237300 0.859516
vn 0.452683 0.237300 0.859516
vn 0.452683 0.237300 0.859516
vn 0.452683 0.237300 0.859516
vn 0.453788 0.283893 -0.844678
vn 0.520192 0.298495 -0.800188
vn 0.291410 0.243709 -0.925033
vn 0.276908 0.260807 -0.924825
vn -0.610286 0.261194 -0.747883
vn -0.560194 0.205398 -0.802492
vn -0.693921 0.271708 -0.666820
vn -0.742319 0.303608 -0.597315
vn -0.593915 0.221906 0.773319
vn -0.591614 0.349108 0.726717
vn -0.573898 0.355798 0.737597
vn -0.585610 0.196503 0.786414
vn -0.573898 0.355798 0.737597
vn -0.591614 0.349108 0.726717
vn -0.662012 0.516710 0.542910
vn -0.614394 0.602694 0.509195
vn -0.742319 0.303608 -0.597315
vn -0.693921 0.271708 -0.666820
vn -0.800696 0.289099 -0.524697
vn -0.804315 0.306906 -0.508809
vn -0.486999 0.873398 -0.002900
vn -0.544731 0.814947 0.197811
vn -0.025401 0.962326 -0.270707
vn -0.265203 0.913809 -0.307603
vn -0.544731 0.814947 0.197811
vn -0.486999 0.873398 -0.002900
vn -0.495212 0.761818 0.417610
vn 0.147107 0.987645 -0.054002
vn -0.025401 0.962326 -0.270707
vn -0.544731 0.814947 0.197811
vn -0.069201 0.986518 0.148303
vn 0.119696 0.988867 0.088397
vn 0.150901 0.988209 -0.025900
vn 0.147107 0.987645 -0.054002
vn -0.069201 0.986518 0.148303
vn -0.495212 0.761818 0.417610
vn -0.165193 0.976261 0.140094
vn -0.025401 0.962326 -0.270707
vn 0.253997 0.916990 -0.307597
vn -0.265203 0.913809 -0.307603
vn -0.544731 0.814947 0.197811
vn -0.495212 0.761818 0.417610
vn -0.069201 0.986518 0.148303
vn -0.242504 0.945615 0.216803
vn -0.495212 0.761818 0.417610
vn -0.486999 0.873398 -0.002900
vn 0.155604 0.956024 0.248606
vn -0.859095 0.298998 0.415398
vn -0.614394 0.602694 0.509195
vn -0.662012 0.516710 0.542910
vn -0.868185 0.198997 0.454592
vn 0.904172 0.361489 0.227593
vn 0.682008 0.344904 0.644908
vn 0.750082 0.360291 0.554587
vn 0.923022 0.326208 0.204005
vn 0.147107 0.987645 -0.054002
vn -0.069201 0.986518 0.148303
vn 0.119696 0.988867 0.088397
vn 0.253997 0.916990 -0.307597
vn -0.025401 0.962326 -0.270707
vn 0.147107 0.987645 -0.054002
vn 0.150901 0.988209 -0.025900
vn 0.520192 0.298495 -0.800188
vn 0.453788 0.283893 -0.844678
vn 0.641690 0.345594 -0.684689
vn 0.639217 0.349109 -0.685218
vn -0.069201 0.986518 0.148303
vn -0.165193 0.976261 0.140094
vn 0.119696 0.988867 0.088397
f 1/1/1 2/2/2 3/3/3 4/4/4
f 5/5/5 6/6/6 7/7/7 8/8/8
f 8/8/9 7/7/10 9/9/11 10/10/12
f 2/2/13 11/11/14 12/12/15 3/3/16
f 12/12/17 11/11/18 13/13/19 14/14/20
f 10/10/21 9/9/22 15/15/23 16/16/24
f 10/10/25 17/17/26 18/18/27 8/8/28
f 17/17/29 10/10/30 11/11/31
f 19/19/32 18/18/33 17/17/34 20/20/35
f 1/1/36 21/21/37 19/19/38
f 20/20/39 11/11/40 2/2/41
f 18/18/42 5/5/43 8/8/44
f 17/17/45 11/11/46 20/20/47
f 13/13/48 11/11/49 10/10/50 16/16/51
f 15/15/52 14/14/53 13/13/54 16/16/55
f 21/21/56 1/1/57 4/4/58 22/22/59
f 19/19/60 20/20/61 1/1/62
f 5/5/63 18/18/64 19/19/65 21/21/66
f 6/6/67 5/5/68 21/21/69 22/22/70
f 20/20/71 2/2/72 1/1/73
