# This file uses centimeters as units for non-parametric coordinates.

v -0.701960 0.000000 0.843227
v 1.362807 0.000000 0.974871
v 1.410015 0.000000 -1.031217
v -0.978471 0.000000 -1.250622
v -0.647372 2.343608 -1.012084
v 0.625028 2.221326 -0.768026
v 0.715539 2.221326 0.657345
v -0.572400 2.343606 0.632591
v -0.422943 6.351949 -0.726935
v -0.374418 6.351947 0.355898
v 0.400599 6.351953 -0.566251
v 0.459181 6.351953 0.372198
v 0.547924 0.000000 0.922915
v 0.467372 0.000000 -1.117807
v -0.091712 0.000000 0.882133
v -0.272547 0.000000 -1.185777
v 0.556063 4.790917 0.479959
v -0.449239 4.837125 0.460466
v -0.507759 4.837127 -0.834698
v 0.485414 4.790917 -0.642506
v -0.177580 2.294206 0.478559
v -0.137688 4.810209 0.304883
v 0.221406 2.256324 0.486226
v 0.173740 4.795894 0.310921
v -0.114690 6.257022 0.280045
v 0.143548 6.257024 0.285094
v 0.130035 6.257997 -0.550334
v -0.125087 6.257997 -0.600112
v 0.162589 2.258279 -0.705715
v -0.231582 2.296160 -0.781321
v -0.174409 4.812161 -0.619246
v 0.133263 4.797846 -0.559708
v 0.207784 2.266230 0.606749
v 0.213907 2.225167 0.652964
v 0.247314 2.265780 0.648347
v 0.199425 4.807309 0.473044
v 0.159928 4.805761 0.430969
v 0.172424 2.266716 -0.824086
v 0.219561 2.265281 -0.855754
v 0.185318 2.226462 -0.869162
v -0.221777 2.304585 -0.899528
v -0.215425 2.263523 -0.944634
v -0.254272 2.310802 -0.946608
v 0.170907 6.351951 -0.620596
v 0.125802 6.308240 -0.592756
v 0.190210 4.806990 -0.709351
v 0.142851 4.806214 -0.677104
v -0.191199 2.304097 0.598916
v -0.231738 2.311263 0.639137
v -0.189828 2.263256 0.644548
v -0.192175 4.825309 0.465450
v -0.151501 4.820074 0.424921
v -0.164331 6.351950 -0.686051
v -0.129825 6.304978 -0.639783
v -0.197410 4.825035 -0.784407
v -0.164817 4.820531 -0.736662
v 0.170186 6.351950 0.366546
v 0.130823 6.307251 0.327767
v -0.167885 6.351948 0.359936
v -0.127410 6.306999 0.322513
vt 0.634456 0.074298
vt 0.686994 0.074038
vt 0.690147 0.329150
vt 0.684623 0.334640
vt 0.641862 0.334421
vt 0.040967 0.318094
vt 0.040967 0.072217
vt 0.208580 0.052031
vt 0.220336 0.330286
vt 0.339800 0.088546
vt 0.395676 0.085624
vt 0.395676 0.347231
vt 0.343847 0.348198
vt 0.337338 0.343242
vt 0.442089 0.056617
vt 0.442089 0.330472
vt 0.589202 0.617381
vt 0.442089 0.603999
vt 0.169857 0.620323
vt 0.040967 0.607395
vt 0.740505 0.068226
vt 0.807774 0.052031
vt 0.807774 0.310270
vt 0.750788 0.323995
vt 0.744845 0.320147
vt 0.282359 0.079753
vt 0.278310 0.339051
vt 0.272506 0.343110
vt 0.710394 0.857180
vt 0.995000 0.857180
vt 0.995000 0.902260
vt 0.711927 0.891315
vt 0.547851 0.857180
vt 0.547809 0.891315
vt 0.453639 0.891315
vt 0.450663 0.857180
vt 0.005000 0.891315
vt 0.005000 0.857180
vt 0.289340 0.857180
vt 0.288543 0.891315
vt 0.144482 0.797260
vt 0.040967 0.783758
vt 0.560929 0.787923
vt 0.442089 0.773288
vt 0.691109 0.335606
vt 0.744303 0.325612
vt 0.731638 0.329430
vt 0.703741 0.339776
vt 0.278838 0.345226
vt 0.337105 0.348846
vt 0.324228 0.352393
vt 0.290668 0.349848
vt 0.767952 0.609810
vt 0.761496 0.610396
vt 0.775272 0.784131
vt 0.768557 0.779772
vt 0.209362 0.630899
vt 0.203059 0.629324
vt 0.360081 0.633472
vt 0.353525 0.633714
vt 0.147791 0.824314
vt 0.143707 0.831388
vt 0.040967 0.822153
vt 0.040967 0.815713
vt 0.177746 0.798656
vt 0.170778 0.802141
vt 0.624180 0.623583
vt 0.617790 0.622420
vt 0.591003 0.789372
vt 0.583701 0.792735
vt 0.366092 0.806938
vt 0.359050 0.802289
vt 0.442089 0.807662
vt 0.442089 0.801449
vt 0.557779 0.811972
vt 0.552403 0.818565
vt 0.395676 0.631951
vt 0.807774 0.604969
vt 0.807774 0.782084
vt 0.395676 0.804949
vt 0.637548 0.626342
vt 0.747835 0.610909
vt 0.138226 0.836631
vt 0.040967 0.827906
vt 0.546733 0.823838
vt 0.442089 0.812885
vt 0.340129 0.634250
vt 0.324228 0.352393
vt 0.290668 0.349848
vt 0.222457 0.633627
vt 0.597318 0.785226
vt 0.762978 0.774671
vt 0.353994 0.797463
vt 0.183800 0.794275
vn -0.042868 0.097084 0.994353
vn -0.042877 0.102848 0.993773
vn -0.042874 0.101194 0.993942
vn -0.034565 0.089082 0.995424
vn -0.031172 0.085810 0.995824
vn 0.978273 0.204593 -0.033511
vn 0.951737 0.306681 -0.012010
vn 0.951737 0.306681 -0.012010
vn 0.978957 0.201179 -0.034215
vn 0.124570 0.102882 -0.986863
vn 0.121754 0.092713 -0.988221
vn 0.139083 0.080014 -0.987043
vn 0.135163 0.082894 -0.987350
vn 0.123976 0.100733 -0.987159
vn -0.990931 0.096834 0.093164
vn -0.990931 0.096834 0.093164
vn -0.994319 0.077822 0.072624
vn -0.994291 0.078000 0.072816
vn -0.997598 0.052517 0.045177
vn -0.997598 0.052517 0.045178
vn 0.996374 0.057353 -0.062851
vn 0.996373 0.057352 -0.062855
vn -0.042253 0.116394 0.992304
vn -0.041842 0.121717 0.991682
vn -0.032468 0.103598 0.994089
vn -0.032011 0.102714 0.994196
vn -0.042243 0.116530 0.992288
vn 0.134188 0.144841 -0.980314
vn 0.131466 0.131981 -0.982496
vn 0.131652 0.132859 -0.982352
vn 0.160649 0.118792 -0.979837
vn 0.159707 0.119726 -0.979877
vn -0.015755 0.052190 0.998513
vn -0.014186 0.068836 0.997527
vn -0.014186 0.068836 0.997527
vn -0.015627 0.053554 0.998443
vn -0.000125 0.999999 0.001138
vn -0.000125 0.999999 0.001138
vn -0.000125 0.999999 0.001138
vn -0.000125 0.999999 0.001138
vn 0.192959 0.058624 -0.979454
vn 0.192959 0.058624 -0.979454
vn 0.192340 0.042100 -0.980425
vn 0.192371 0.042903 -0.980384
vn 0.996397 0.057357 -0.062480
vn 0.996397 0.057357 -0.062480
vn -0.019019 0.017370 0.999668
vn -0.019019 0.017370 0.999668
vn -0.997610 0.052518 0.044907
vn -0.997610 0.052518 0.044907
vn 0.190832 0.006603 -0.981600
vn 0.190832 0.006603 -0.981600
vn 0.095628 0.992897 -0.070789
vn 0.095628 0.992897 -0.070789
vn 0.095628 0.992897 -0.070789
vn 0.095628 0.992897 -0.070789
vn 0.080628 0.993725 0.077521
vn 0.080628 0.993725 0.077521
vn 0.080628 0.993725 0.077521
vn 0.080628 0.993725 0.077521
vn 0.057328 0.747444 0.661847
vn 0.057328 0.747444 0.661847
vn 0.057328 0.747444 0.661847
vn 0.057328 0.747444 0.661847
vn -0.726810 0.033705 0.686011
vn -0.726810 0.033705 0.686011
vn -0.726142 0.033621 0.686722
vn -0.726102 0.033616 0.686764
vn -0.724981 0.033474 0.687955
vn -0.724981 0.033474 0.687955
vn -0.559581 0.041304 -0.827746
vn -0.559581 0.041304 -0.827746
vn -0.559001 0.040972 -0.828154
vn -0.559027 0.040987 -0.828136
vn 0.191051 0.748922 -0.634520
vn 0.191051 0.748922 -0.634520
vn 0.191051 0.748922 -0.634520
vn 0.191051 0.748922 -0.634520
vn 0.825272 0.017803 -0.564454
vn 0.825272 0.017803 -0.564454
vn 0.822730 0.018152 -0.568143
vn 0.822776 0.018146 -0.568076
vn -0.723165 0.690672 0.001988
vn -0.723166 0.690672 0.001988
vn -0.723166 0.690672 0.001988
vn -0.723165 0.690672 0.001988
vn -0.558052 0.040428 -0.828821
vn -0.558052 0.040428 -0.828821
vn 0.707467 0.037634 0.705743
vn 0.707467 0.037634 0.705743
vn 0.706297 0.037624 0.706915
vn 0.706238 0.037624 0.706974
vn 0.704266 0.037607 0.708940
vn 0.704266 0.037607 0.708940
vn 0.818625 0.018711 -0.574024
vn 0.818625 0.018711 -0.574024
vn 0.774903 0.632080 -0.000196
vn 0.774903 0.632080 -0.000196
vn 0.774903 0.632080 -0.000196
vn 0.774903 0.632080 -0.000196
vn 0.163663 0.060360 -0.984668
vn 0.163704 0.060358 -0.984661
vn -0.015215 0.069383 0.997474
vn -0.015243 0.069384 0.997474
vn -0.000004 1.000000 0.000002
vn -0.000004 1.000000 0.000002
vn -0.000004 1.000000 0.000002
vn -0.000004 1.000000 0.000002
vn -0.015397 0.068205 0.997553
vn -0.015229 0.068213 0.997555
vn -0.000009 1.000000 0.000001
vn -0.000009 1.000000 0.000001
vn -0.000009 1.000000 0.000001
vn -0.000009 1.000000 0.000001
vn 0.221980 0.059126 -0.973257
vn 0.221724 0.059120 -0.973316
vn -0.017688 0.068100 0.997522
vn -0.017688 0.068100 0.997522
vn -0.017640 0.069470 0.997428
vn -0.017640 0.069470 0.997428
vn 0.159195 0.060603 -0.985385
vn 0.159195 0.060603 -0.985385
vn 0.226292 0.059238 -0.972257
vn 0.226292 0.059238 -0.972257
vn 0.991667 -0.008090 0.128572
vn 0.993449 -0.007836 0.114009
vn 0.993449 -0.007836 0.114009
vn 0.991749 -0.008079 0.127939
vn -0.993457 -0.026365 -0.111124
vn -0.992077 -0.026371 -0.122830
vn -0.992150 -0.026371 -0.122241
vn -0.993457 -0.026365 -0.111124
vn -0.985997 -0.166449 0.010221
vn -0.985997 -0.166449 0.010221
vn -0.985997 -0.166449 0.010221
vn -0.985997 -0.166449 0.010221
vn 0.984115 0.177397 -0.006944
vn 0.984115 0.177397 -0.006944
vn 0.984115 0.177397 -0.006944
vn 0.984115 0.177397 -0.006944
vn 0.996404 -0.027769 0.080047
vn 0.997600 -0.028288 0.063206
vn 0.997558 -0.028268 0.063864
vn 0.996404 -0.027769 0.080047
vn -0.997590 -0.006484 -0.069076
vn -0.996561 -0.006793 -0.082583
vn -0.996561 -0.006793 -0.082583
vn -0.997546 -0.006499 -0.069709
vn 0.986379 -0.008708 0.164257
vn 0.986379 -0.008708 0.164257
vn -0.988120 -0.026371 -0.151406
vn -0.988120 -0.026371 -0.151406
vn 0.999353 -0.029565 0.020463
vn 0.999353 -0.029565 0.020463
vn -0.999351 -0.005715 -0.035581
vn -0.999350 -0.005715 -0.035581
vn -0.598634 0.557776 0.574911
vn -0.598634 0.557776 0.574911
vn -0.598634 0.557776 0.574911
vn -0.429419 0.609103 -0.666778
vn -0.429419 0.609103 -0.666778
vn -0.429419 0.609103 -0.666778
vn 0.711076 0.566895 -0.415934
vn 0.711076 0.566895 -0.415934
vn 0.711076 0.566895 -0.415934
vn 0.616199 0.595975 0.514892
vn 0.616198 0.595975 0.514892
vn 0.616199 0.595975 0.514892
f 1/1/1 15/2/2 50/3/3 49/4/4 8/5/5
f 7/6/6 2/7/7 3/8/8 6/9/9
f 16/10/10 4/11/11 5/12/12 43/13/13 42/14/14
f 4/15/15 1/1/16 8/5/17 5/16/18
f 5/16/18 8/5/17 18/17/19 19/18/20
f 20/19/21 17/20/22 7/6/6 6/9/9
f 13/21/23 2/22/24 7/23/25 35/24/26 34/25/27
f 3/8/28 14/26/29 40/27/30 39/28/31 6/9/32
f 15/2/2 13/21/23 34/25/27 50/3/3
f 22/29/33 21/30/34 23/31/35 24/32/36
f 25/33/37 26/34/38 27/35/39 28/36/40
f 29/37/41 30/38/42 31/39/43 32/40/44
f 14/26/29 16/10/10 42/14/14 40/27/30
f 11/41/45 12/42/46 17/20/22 20/19/21
f 25/33/47 22/29/33 24/32/36 26/34/48
f 18/17/19 10/43/49 9/44/50 19/18/20
f 32/40/44 31/39/43 28/36/51 27/35/52
f 48/45/53 33/46/54 23/47/55 21/48/56
f 38/49/57 41/50/58 30/51/59 29/52/60
f 34/25/61 33/46/62 48/45/63 50/3/64
f 33/46/65 35/24/66 36/53/67 37/54/68
f 37/54/68 36/53/67 57/55/69 58/56/70
f 39/28/71 38/49/72 47/57/73 46/58/74
f 38/49/75 40/27/76 42/14/77 41/50/78
f 41/50/79 43/13/80 55/59/81 56/60/82
f 44/61/83 45/62/84 58/63/85 57/64/86
f 45/65/87 44/66/88 46/58/74 47/57/73
f 49/4/89 48/45/90 52/67/91 51/68/92
f 51/68/92 52/67/91 60/69/93 59/70/94
f 53/71/95 54/72/96 56/60/82 55/59/81
f 54/73/97 53/74/98 59/75/99 60/76/100
f 55/59/101 43/13/13 5/12/12 19/77/102
f 8/5/5 49/4/4 51/68/103 18/17/104
f 10/43/105 59/75/106 53/74/107 9/44/108
f 36/53/109 35/24/26 7/23/25 17/78/110
f 57/64/111 12/42/112 11/41/113 44/61/114
f 6/9/32 39/28/31 46/58/115 20/19/116
f 57/55/117 36/53/109 17/78/110 12/79/118
f 18/17/104 51/68/103 59/70/119 10/43/120
f 55/59/101 19/77/102 9/80/121 53/71/122
f 20/19/116 46/58/115 44/66/123 11/41/124
f 52/67/125 48/45/126 21/48/127 22/81/128
f 33/46/129 37/54/130 24/82/131 23/47/132
f 58/63/133 45/62/134 27/83/135 26/84/136
f 54/73/137 60/76/138 25/85/139 28/86/140
f 41/50/141 56/60/142 31/87/143 30/88/144
f 47/57/145 38/49/146 29/89/147 32/90/148
f 60/69/149 52/67/125 22/81/128 25/91/150
f 37/54/130 58/56/151 26/92/152 24/82/131
f 56/60/142 54/72/153 28/93/154 31/87/143
f 45/65/155 47/57/145 32/90/148 27/94/156
f 33/46/157 34/25/158 35/24/159
f 38/49/160 39/28/161 40/27/162
f 41/50/163 42/14/164 43/13/165
f 48/45/166 49/4/167 50/3/168
