# This file uses centimeters as units for non-parametric coordinates.

v 0.476691 0.271463 0.339829
v 0.260805 0.271463 0.430306
v 0.260805 -0.000000 0.430306
v 0.511706 -0.000000 0.305153
v 0.278548 0.271463 -0.257482
v 0.310311 -0.000000 -0.228885
v 0.032905 -0.000000 -0.321915
v 0.032905 0.271463 -0.321915
v -0.108448 -0.000000 -0.223240
v -0.150530 0.231312 -0.176504
v -0.019482 0.141298 0.220351
v -0.011463 -0.000000 0.227569
v -0.234467 0.097710 0.179990
v -0.223223 -0.000000 0.190116
v -0.289195 -0.000000 -0.022500
v -0.289195 0.159443 -0.022500
v -0.024326 0.419110 0.012222
v 0.100825 0.419110 -0.169721
v 0.338644 0.394102 0.022339
v 0.272097 0.394102 0.223051
v 0.575126 0.271463 0.018156
v 0.575126 -0.000000 0.018156
v -0.244060 0.086978 -0.121422
v -0.328703 0.086978 -0.073331
v -0.329675 -0.000000 -0.052318
v -0.203595 -0.000000 -0.115206
v -0.340848 0.086978 -0.374841
v -0.304795 -0.000000 -0.383558
v -0.444194 -0.000000 -0.430306
v -0.446465 0.086978 -0.406458
v -0.515222 -0.000000 -0.380723
v -0.515703 0.062019 -0.349596
v -0.463980 0.041353 -0.172016
v -0.466489 -0.000000 -0.154193
v -0.525875 0.027665 -0.211141
v -0.541892 -0.000000 -0.197718
v -0.575126 -0.000000 -0.293084
v -0.559428 0.052633 -0.286148
v -0.472949 0.115255 -0.262405
v -0.410062 0.115255 -0.353831
v -0.290559 0.099707 -0.257320
v -0.324000 0.099707 -0.156462
v -0.205334 0.086978 -0.246457
v -0.171728 -0.000000 -0.259421
vt 0.477500 0.067700
vt 0.461200 0.041500
vt 0.490200 0.008500
vt 0.512100 0.064300
vt 0.380200 0.139800
vt 0.380300 0.190800
vt 0.304000 0.144000
vt 0.334600 0.120900
vt 0.295100 0.109000
vt 0.324700 0.090700
vt 0.389200 0.034400
vt 0.389400 0.005600
vt 0.344500 0.033900
vt 0.341700 0.011800
vt 0.295500 0.062500
vt 0.317300 0.066800
vt 0.369600 0.080600
vt 0.367400 0.109200
vt 0.421200 0.092300
vt 0.432700 0.064100
vt 0.457100 0.108000
vt 0.489700 0.135800
vt 0.653500 0.142700
vt 0.626600 0.112300
vt 0.629600 0.092000
vt 0.676200 0.140200
vt 0.580400 0.229900
vt 0.593300 0.243000
vt 0.525200 0.241400
vt 0.534200 0.228200
vt 0.501000 0.207900
vt 0.514000 0.195300
vt 0.558300 0.131200
vt 0.554800 0.115200
vt 0.528100 0.137700
vt 0.515400 0.122400
vt 0.487200 0.159400
vt 0.505200 0.163900
vt 0.559000 0.173500
vt 0.556500 0.213500
vt 0.616700 0.190700
vt 0.617300 0.146300
vt 0.651600 0.197300
vt 0.669600 0.209300
vn 0.419162 -0.030921 0.907385
vn 0.419162 -0.030921 0.907385
vn 0.419162 -0.030921 0.907385
vn 0.419162 -0.030921 0.907385
vn 0.477800 -0.017200 -0.878300
vn 0.528675 -0.028099 -0.848359
vn 0.287203 -0.032700 -0.957311
vn 0.253696 0.000000 -0.967284
vn -0.605115 0.025801 -0.795720
vn -0.572388 0.000000 -0.819983
vn -0.661161 0.011499 -0.750156
vn -0.687586 0.021500 -0.725785
vn -0.431093 0.020000 0.902086
vn -0.411810 0.028601 0.910821
vn -0.598975 0.001700 0.800766
vn -0.599488 0.000000 0.800384
vn -0.411810 0.028601 0.910821
vn -0.431093 0.020000 0.902086
vn -0.711838 0.002700 0.702338
vn -0.622310 0.009500 0.782713
vn -0.687586 0.021500 -0.725785
vn -0.661161 0.011499 -0.750156
vn -0.743140 0.000000 -0.669136
vn -0.743140 0.000000 -0.669136
vn -0.624917 0.780622 -0.010400
vn -0.557795 0.803493 0.207998
vn -0.045302 0.910047 -0.412021
vn -0.241512 0.748137 -0.618031
vn -0.557795 0.803493 0.207998
vn -0.624917 0.780622 -0.010400
vn -0.547406 0.679707 0.488205
vn 0.336608 0.933721 -0.121903
vn -0.045302 0.910047 -0.412021
vn -0.557795 0.803493 0.207998
vn -0.020100 0.932811 0.359804
vn 0.359612 0.882430 0.303310
vn 0.456782 0.884165 -0.097996
vn 0.336608 0.933721 -0.121903
vn -0.020100 0.932811 0.359804
vn -0.547406 0.679707 0.488205
vn -0.238296 0.841484 0.484891
vn -0.045302 0.910047 -0.412021
vn 0.353702 0.761605 -0.543003
vn -0.241512 0.748137 -0.618031
vn -0.557795 0.803493 0.207998
vn -0.547406 0.679707 0.488205
vn -0.020100 0.932811 0.359804
vn -0.547406 0.679707 0.488205
vn -0.624917 0.780622 -0.010400
vn -0.201997 0.934187 0.294096
vn -0.248101 0.905902 0.343201
vn -0.962411 -0.022000 0.270703
vn -0.622310 0.009500 0.782713
vn -0.711838 0.002700 0.702338
vn -0.965368 0.000000 0.260891
vn 0.966789 0.040800 0.252297
vn 0.720604 0.024800 0.692904
vn 0.802774 0.001600 0.596281
vn 0.976436 0.000000 0.215808
vn 0.336608 0.933721 -0.121903
vn -0.020100 0.932811 0.359804
vn 0.359612 0.882430 0.303310
vn 0.353702 0.761605 -0.543003
vn -0.045302 0.910047 -0.412021
vn 0.336608 0.933721 -0.121903
vn 0.456782 0.884165 -0.097996
vn 0.528675 -0.028099 -0.848359
vn 0.477800 -0.017200 -0.878300
vn 0.681612 0.001000 -0.731713
vn 0.682129 0.000000 -0.731232
vn -0.020100 0.932811 0.359804
vn -0.238296 0.841484 0.484891
vn 0.359612 0.882430 0.303310
vn 0.682008 0.344904 0.644908
vn 0.484005 0.200402 0.851809
vn 0.458890 0.230095 0.858182
vn 0.750082 0.360291 0.554587
vn 0.453788 0.283893 -0.844678
vn 0.520192 0.298495 -0.800188
vn 0.291410 0.243709 -0.925033
vn 0.276908 0.260807 -0.924825
vn -0.610286 0.261194 -0.747883
vn -0.560194 0.205398 -0.802492
vn -0.693921 0.271708 -0.666820
vn -0.742319 0.303608 -0.597315
vn -0.593915 0.221906 0.773319
vn -0.591614 0.349108 0.726717
vn -0.573898 0.355798 0.737597
vn -0.585610 0.196503 0.786414
vn -0.573898 0.355798 0.737597
vn -0.591614 0.349108 0.726717
vn -0.662012 0.516710 0.542910
vn -0.614394 0.602694 0.509195
vn -0.742319 0.303608 -0.597315
vn -0.693921 0.271708 -0.666820
vn -0.800696 0.289099 -0.524697
vn -0.804315 0.306906 -0.508809
vn -0.486999 0.873398 -0.002900
vn -0.544731 0.814947 0.197811
vn -0.025401 0.962326 -0.270707
vn -0.265203 0.913809 -0.307603
vn -0.544731 0.814947 0.197811
vn -0.486999 0.873398 -0.002900
vn -0.495212 0.761818 0.417610
vn 0.147107 0.987645 -0.054002
vn -0.025401 0.962326 -0.270707
vn -0.544731 0.814947 0.197811
vn -0.069201 0.986518 0.148303
vn 0.119696 0.988867 0.088397
vn 0.150901 0.988209 -0.025900
vn 0.147107 0.987645 -0.054002
vn -0.069201 0.986518 0.148303
vn -0.495212 0.761818 0.417610
vn -0.165193 0.976261 0.140094
vn -0.025401 0.962326 -0.270707
vn 0.253997 0.916990 -0.307597
vn -0.265203 0.913809 -0.307603
vn -0.544731 0.814947 0.197811
vn -0.495212 0.761818 0.417610
vn -0.069201 0.986518 0.148303
vn -0.242504 0.945615 0.216803
vn -0.495212 0.761818 0.417610
vn -0.486999 0.873398 -0.002900
vn 0.155604 0.956024 0.248606
vn -0.859095 0.298998 0.415398
vn -0.614394 0.602694 0.509195
vn -0.662012 0.516710 0.542910
vn -0.868185 0.198997 0.454592
vn 0.904172 0.361489 0.227593
vn 0.682008 0.344904 0.644908
vn 0.750082 0.360291 0.554587
vn 0.923022 0.326208 0.204005
vn 0.147107 0.987645 -0.054002
vn -0.069201 0.986518 0.148303
vn 0.119696 0.988867 0.088397
vn 0.253997 0.916990 -0.307597
vn -0.025401 0.962326 -0.270707
vn 0.147107 0.987645 -0.054002
vn 0.150901 0.988209 -0.025900
vn 0.520192 0.298495 -0.800188
vn 0.453788 0.283893 -0.844678
vn 0.641690 0.345594 -0.684689
vn 0.639217 0.349109 -0.685218
vn -0.069201 0.986518 0.148303
vn -0.165193 0.976261 0.140094
vn 0.119696 0.988867 0.088397
f 1/1/1 2/2/2 3/3/3 4/4/4
f 5/5/5 6/6/6 7/7/7 8/8/8
f 8/8/9 7/7/10 9/9/11 10/10/12
f 11/11/13 12/12/14 3/3/15 2/2/16
f 12/12/17 11/11/18 13/13/19 14/14/20
f 10/10/21 9/9/22 15/15/23 16/16/24
f 10/10/25 17/17/26 18/18/27 8/8/28
f 17/17/29 10/10/30 11/11/31
f 19/19/32 18/18/33 17/17/34 20/20/35
f 1/1/36 21/21/37 19/19/38
f 20/20/39 11/11/40 2/2/41
f 18/18/42 5/5/43 8/8/44
f 17/17/45 11/11/46 20/20/47
f 11/11/48 10/10/49 16/16/50 13/13/51
f 15/15/52 14/14/53 13/13/54 16/16/55
f 21/21/56 1/1/57 4/4/58 22/22/59
f 19/19/60 20/20/61 1/1/62
f 5/5/63 18/18/64 19/19/65 21/21/66
f 6/6/67 5/5/68 21/21/69 22/22/70
f 20/20/71 2/2/72 1/1/73
f 23/23/74 24/24/75 25/25/76 26/26/77
f 27/27/78 28/28/79 29/29/80 30/30/81
f 30/30/82 29/29/83 31/31/84 32/32/85
f 24/24/86 33/33/87 34/34/88 25/25/89
f 34/34/90 33/33/91 35/35/92 36/36/93
f 32/32/94 31/31/95 37/37/96 38/38/97
f 32/32/98 39/39/99 40/40/100 30/30/101
f 39/39/102 32/32/103 33/33/104
f 41/41/105 40/40/106 39/39/107 42/42/108
f 23/23/109 43/43/110 41/41/111
f 42/42/112 33/33/113 24/24/114
f 40/40/115 27/27/116 30/30/117
f 39/39/118 33/33/119 42/42/120
f 35/35/121 33/33/122 32/32/123 38/38/124
f 37/37/125 36/36/126 35/35/127 38/38/128
f 43/43/129 23/23/130 26/26/131 44/44/132
f 41/41/133 42/42/134 23/23/135
f 27/27/136 40/40/137 41/41/138 43/43/139
f 28/28/140 27/27/141 43/43/142 44/44/143
f 42/42/144 24/24/145 23/23/146
