# This file uses centimeters as units for non-parametric coordinates.

v 0.058268 0.002698 0.019711
v 0.491265 0.776702 -0.018972
v 0.058268 0.002698 -0.057654
v 0.173160 0.418384 0.072626
v 0.173160 0.418384 -0.110569
v 0.101630 0.214977 0.052175
v 0.101630 0.214977 -0.090119
v 0.317104 0.602701 0.047975
v 0.317104 0.602701 -0.085918
v 0.013574 0.002698 -0.018972
v 0.057565 0.227105 -0.018972
v 0.130857 0.435523 -0.018972
v 0.276766 0.624106 -0.018972
v -0.015385 0.002698 -0.076107
v -0.279822 0.631201 -0.495639
v -0.090139 0.002698 -0.034585
v -0.036173 0.375115 -0.266152
v -0.213186 0.374834 -0.167831
v -0.013627 0.196641 -0.146269
v -0.151120 0.196422 -0.069900
v -0.131053 0.511047 -0.380535
v -0.260428 0.510841 -0.308675
v -0.032578 0.002698 -0.018972
v -0.062619 0.212004 -0.072475
v -0.105961 0.395043 -0.183234
v -0.178118 0.534883 -0.312810
v -0.130287 0.002698 0.034059
v -0.390737 0.889899 0.474393
v -0.045380 0.002698 0.093512
v -0.273111 0.478211 0.102551
v -0.072055 0.481681 0.243332
v -0.199080 0.244504 0.050364
v -0.042912 0.247199 0.159713
v -0.345229 0.689804 0.257924
v -0.198282 0.692340 0.360818
v -0.058407 0.002698 0.021490
v -0.092049 0.260420 0.063340
v -0.144907 0.500281 0.132916
v -0.245470 0.716310 0.271209
vt 0.000000 0.000000
vt 0.999369 0.500000
vt 0.000000 1.000000
vt 0.500000 0.000000
vt 0.500000 1.000000
vt 0.250000 0.000000
vt 0.250000 1.000000
vt 0.750000 0.000000
vt 0.750000 1.000000
vt 0.000000 0.000000
vt 0.250000 0.000000
vt 0.250000 1.000000
vt 0.000000 1.000000
vt 0.500000 0.000000
vt 0.750000 0.000000
vt 0.750000 1.000000
vt 0.500000 1.000000
vt 0.999756 0.500000
vt 0.000000 0.500000
vt 0.250000 0.500000
vt 0.500000 0.500000
vt 0.750000 0.500000
vt 0.000000 0.000000
vt 0.000000 1.000000
vt 0.250000 1.000000
vt 0.250000 0.000000
vt 0.500000 0.000000
vt 0.500000 1.000000
vt 0.750000 1.000000
vt 0.750000 0.000000
vt 0.999756 0.500000
vt 0.000000 0.000000
vt 0.250000 0.000000
vt 0.250000 0.500000
vt 0.000000 0.500000
vt 0.250000 1.000000
vt 0.000000 1.000000
vt 0.500000 0.000000
vt 0.750000 0.000000
vt 0.750000 0.500000
vt 0.500000 0.500000
vt 0.750000 1.000000
vt 0.500000 1.000000
vt 0.999369 0.500000
vt 0.000000 0.000000
vt 0.000000 1.000000
vt 0.250000 1.000000
vt 0.250000 0.000000
vt 0.500000 0.000000
vt 0.500000 1.000000
vt 0.750000 1.000000
vt 0.750000 0.000000
vt 0.999756 0.500000
vt 0.000000 0.000000
vt 0.250000 0.000000
vt 0.250000 0.500000
vt 0.000000 0.500000
vt 0.250000 1.000000
vt 0.000000 1.000000
vt 0.500000 0.000000
vt 0.750000 0.000000
vt 0.750000 0.500000
vt 0.500000 0.500000
vt 0.750000 1.000000
vt 0.500000 1.000000
vt 0.999369 0.500000
vn 0.979767 -0.200140 0.000000
vn 0.979767 -0.200140 0.000000
vn 0.958795 -0.284099 0.000000
vn 0.958795 -0.284099 0.000000
vn 0.875408 -0.483384 0.000000
vn 0.875408 -0.483384 0.000000
vn 0.768320 -0.640065 0.000000
vn 0.768320 -0.640065 0.000000
vn 0.706781 -0.707432 0.000000
vn -0.767554 0.106549 0.632067
vn -0.809862 0.203772 0.550091
vn -0.807993 0.198732 0.554665
vn -0.767554 0.106549 0.632067
vn -0.809862 0.203772 -0.550091
vn -0.767554 0.106549 -0.632067
vn -0.767554 0.106550 -0.632067
vn -0.807993 0.198732 -0.554665
vn -0.757773 0.426047 0.494231
vn -0.620744 0.603746 0.500167
vn -0.628183 0.597433 0.498458
vn -0.762785 0.416891 0.494328
vn -0.620744 0.603746 -0.500167
vn -0.757773 0.426047 -0.494231
vn -0.762785 0.416891 -0.494328
vn -0.628183 0.597433 -0.498458
vn -0.494918 0.695690 0.520645
vn -0.494918 0.695690 -0.520646
vn -0.463292 -0.297870 -0.834646
vn -0.463292 -0.297870 -0.834646
vn -0.430741 -0.459571 -0.776696
vn -0.429483 -0.464510 -0.774451
vn -0.372246 -0.640185 -0.672009
vn -0.374206 -0.635324 -0.675525
vn -0.317481 -0.755002 -0.573740
vn -0.317479 -0.755006 -0.573737
vn -0.276303 -0.820892 -0.499793
vn 0.884703 0.192280 0.424652
vn 0.812998 0.354597 0.461839
vn 0.823257 0.335268 0.458086
vn 0.884703 0.192280 0.424652
vn -0.048480 0.386292 0.921101
vn -0.107454 0.190762 0.975737
vn -0.107454 0.190762 0.975737
vn -0.052231 0.374572 0.925725
vn 0.717459 0.571727 0.397970
vn 0.638264 0.726735 0.253919
vn 0.641497 0.721026 0.261921
vn 0.724639 0.554025 0.409823
vn -0.123499 0.725580 0.676965
vn -0.046976 0.590762 0.805477
vn -0.044926 0.585578 0.809370
vn -0.118411 0.719888 0.683915
vn 0.571211 0.813303 0.110710
vn -0.209840 0.812062 0.544538
vn -0.558919 -0.212225 0.801605
vn -0.558919 -0.212225 0.801605
vn -0.544758 -0.295978 0.784624
vn -0.544752 -0.296010 0.784617
vn -0.493380 -0.492776 0.716762
vn -0.493380 -0.492776 0.716762
vn -0.429512 -0.647624 0.629367
vn -0.429512 -0.647624 0.629367
vn -0.392660 -0.715033 0.578399
vn -0.007889 0.114038 -0.993445
vn 0.076742 0.216182 -0.973333
vn 0.071478 0.209894 -0.975108
vn -0.007889 0.114038 -0.993445
vn 0.883411 0.229675 -0.408455
vn 0.933444 0.129885 -0.334385
vn 0.933443 0.129885 -0.334385
vn 0.887006 0.223552 -0.404036
vn 0.080583 0.441714 -0.893529
vn -0.006692 0.622784 -0.782365
vn -0.003285 0.618908 -0.785456
vn 0.083264 0.433504 -0.897297
vn 0.722902 0.635376 -0.271496
vn 0.801709 0.454160 -0.388590
vn 0.804522 0.445952 -0.392265
vn 0.724732 0.631473 -0.275691
vn -0.099892 0.720106 -0.686636
vn 0.662561 0.733265 -0.152759
s 1
f 1/10/1 3/13/2 7/12/3 6/11/4
f 4/14/5 5/17/6 9/16/7 8/15/8
f 6/11/4 7/12/3 5/17/6 4/14/5
f 8/15/8 9/16/7 2/18/9
s 2
f 1/1/10 6/6/11 11/20/12 10/19/13
s 3
f 7/7/14 3/3/15 10/19/16 11/20/17
s 2
f 4/4/18 8/8/19 13/22/20 12/21/21
s 3
f 9/9/22 5/5/23 12/21/24 13/22/25
s 2
f 6/6/11 4/4/18 12/21/21 11/20/12
s 3
f 5/5/23 7/7/14 11/20/17 12/21/24
s 2
f 8/8/19 2/2/26 13/22/20
s 3
f 2/2/27 9/9/22 13/22/25
s 5
f 14/23/28 16/24/29 20/25/30 19/26/31
f 17/27/32 18/28/33 22/29/34 21/30/35
f 19/26/31 20/25/30 18/28/33 17/27/32
f 21/30/35 22/29/34 15/31/36
s 6
f 14/32/37 19/33/38 24/34/39 23/35/40
s 7
f 20/36/41 16/37/42 23/35/43 24/34/44
s 6
f 17/38/45 21/39/46 26/40/47 25/41/48
s 7
f 22/42/49 18/43/50 25/41/51 26/40/52
s 6
f 19/33/38 17/38/45 25/41/48 24/34/39
s 7
f 18/43/50 20/36/41 24/34/44 25/41/51
s 6
f 21/39/46 15/44/53 26/40/47
s 7
f 15/44/54 22/42/49 26/40/52
s 9
f 27/45/55 29/46/56 33/47/57 32/48/58
f 30/49/59 31/50/60 35/51/61 34/52/62
f 32/48/58 33/47/57 31/50/60 30/49/59
f 34/52/62 35/51/61 28/53/63
s 10
f 27/54/64 32/55/65 37/56/66 36/57/67
s 11
f 33/58/68 29/59/69 36/57/70 37/56/71
s 10
f 30/60/72 34/61/73 39/62/74 38/63/75
s 11
f 35/64/76 31/65/77 38/63/78 39/62/79
s 10
f 32/55/65 30/60/72 38/63/75 37/56/66
s 11
f 31/65/77 33/58/68 37/56/71 38/63/78
s 10
f 34/61/73 28/66/80 39/62/74
s 11
f 28/66/81 35/64/76 39/62/79
