# This file uses centimeters as units for non-parametric coordinates.

v -0.008661 -0.123966 -0.155617
v -0.138734 -0.126325 -0.083603
v -0.143285 -0.126472 0.068728
v -0.016831 -0.124385 0.148897
v 0.113966 -0.122800 0.076930
v 0.117641 -0.122522 -0.075367
v -0.092391 0.962724 -0.123821
v -0.230423 0.886247 -0.149828
v -0.320597 0.840250 -0.026167
v -0.269823 0.864418 0.123500
v -0.131790 0.940895 0.149506
v -0.043076 0.990047 0.025845
v -0.080105 0.815170 -0.050608
v -0.058388 0.826166 0.011773
v -0.094857 0.805648 0.064008
v -0.153423 0.774552 0.053499
v -0.174434 0.762647 -0.008969
v -0.137915 0.783031 -0.061023
v -0.004577 0.399812 -0.046888
v 0.063348 0.411686 0.026386
v 0.038849 0.407338 0.127480
v -0.059259 0.391410 0.150849
v -0.125495 0.379120 0.076606
v -0.098268 0.382677 -0.022410
v 0.008165 0.158441 -0.121662
v 0.123010 0.168287 -0.060758
v 0.133963 0.168200 0.077235
v 0.026865 0.159200 0.154250
v -0.090282 0.148793 0.093054
v -0.097768 0.147580 -0.044788
v -0.174578 0.974820 -0.043315
v -0.222748 0.948131 -0.052390
v -0.205538 0.957667 -0.000161
v -0.253707 0.930979 -0.009236
v -0.236497 0.940514 0.042993
v -0.188328 0.967201 0.052069
v -0.157369 0.984354 0.008915
v 0.021897 0.618336 -0.044037
v 0.048448 0.626194 0.028114
v 0.003860 0.610543 0.088130
v -0.068035 0.587551 0.075077
v -0.093129 0.578630 0.003076
v -0.048767 0.594212 -0.056581
v -0.091830 0.956817 -0.061526
v -0.142514 0.908382 0.074117
v -0.236454 1.581503 0.107186
v -0.290139 1.533443 0.248201
v -0.193793 1.195661 0.237362
v -0.095630 1.288364 -0.024414
v -0.150645 1.050224 0.163281
v -0.074690 1.122755 -0.039681
v -0.231401 1.348080 0.268408
v -0.138631 1.433679 0.022785
v -0.320780 1.664945 0.196063
v -0.257793 1.556396 0.177910
v -0.153317 1.385936 0.153380
v -0.102363 1.238809 0.118462
v -0.078711 1.086184 0.072027
v -0.117461 0.932685 0.004713
v -0.058083 1.084166 0.079019
v -0.131254 1.384405 0.161107
v -0.080151 1.238137 0.126471
v -0.239315 1.560541 0.186465
v -0.138771 0.917066 0.023545
v -0.267014 0.844299 -0.015830
v -0.473806 1.309169 0.371970
v -0.602324 1.226114 0.330443
v -0.491394 1.012066 0.130212
v -0.246006 1.156256 0.206256
v -0.380005 0.921191 0.058623
v -0.188991 1.031917 0.117618
v -0.560526 1.108726 0.209856
v -0.334228 1.248592 0.283476
v -0.620368 1.327884 0.462093
v -0.535507 1.261885 0.358659
v -0.437905 1.153863 0.275039
v -0.361125 1.056300 0.206857
v -0.279106 0.956199 0.116624
v -0.201380 0.880878 0.003898
v -0.276170 0.942259 0.133012
v -0.435529 1.140350 0.292865
v -0.359434 1.042721 0.225776
v -0.536498 1.252138 0.379570
v -0.246660 0.853336 0.006882
v -0.201369 0.897914 -0.131838
v -0.763662 1.208333 -0.041540
v -0.717048 1.255291 -0.185400
v -0.423364 1.097657 -0.216648
v -0.510075 1.010314 0.050949
v -0.318712 0.989378 -0.181740
v -0.385985 0.921615 0.025872
v -0.545147 1.187594 -0.216632
v -0.626441 1.105703 0.034258
v -0.898287 1.306499 -0.140266
v -0.745116 1.226253 -0.115246
v -0.606993 1.116510 -0.105145
v -0.490267 1.015188 -0.100211
v -0.368624 0.926883 -0.090272
v -0.224212 0.874951 -0.061188
v -0.377055 0.909055 -0.098847
v -0.619068 1.100944 -0.114164
v -0.500767 0.998600 -0.109053
v -0.763771 1.218346 -0.123946
v -0.237487 0.872159 -0.104735
v -0.110072 0.945504 -0.061297
v -0.461225 1.436334 -0.378189
v -0.346365 1.495867 -0.286710
v -0.159812 1.247270 -0.176616
v -0.401019 1.110781 -0.277611
v -0.127404 1.099796 -0.121241
v -0.320049 0.988071 -0.180336
v -0.232257 1.355983 -0.206453
v -0.447520 1.238872 -0.333884
v -0.445279 1.609821 -0.390255
v -0.399028 1.466058 -0.342586
v -0.320613 1.292877 -0.306235
v -0.261335 1.168230 -0.265929
v -0.209904 1.036236 -0.182070
v -0.174876 0.908296 -0.083629
v -0.200125 1.030847 -0.199271
v -0.309175 1.293725 -0.325629
v -0.250991 1.166268 -0.285031
v -0.389419 1.476624 -0.361914
vt 0.375000 0.312500
vt 0.416667 0.312500
vt 0.458333 0.312500
vt 0.500000 0.312500
vt 0.541667 0.312500
vt 0.583333 0.312500
vt 0.625000 0.312500
vt 0.375000 0.688440
vt 0.416667 0.688440
vt 0.458333 0.688440
vt 0.500000 0.688440
vt 0.541667 0.688440
vt 0.583333 0.688440
vt 0.625000 0.688440
vt 0.578125 0.708434
vt 0.421875 0.708434
vt 0.343750 0.843750
vt 0.421875 0.979066
vt 0.578125 0.979066
vt 0.656250 0.843750
vt 0.500000 0.837500
vt 0.625000 0.624326
vt 0.375000 0.624326
vt 0.583333 0.624326
vt 0.541667 0.624326
vt 0.500000 0.624326
vt 0.458333 0.624326
vt 0.416667 0.624326
vt 0.625000 0.487990
vt 0.375000 0.487990
vt 0.583333 0.487990
vt 0.541667 0.487990
vt 0.500000 0.487990
vt 0.458333 0.487990
vt 0.416667 0.487990
vt 0.625000 0.402985
vt 0.375000 0.402985
vt 0.583333 0.402985
vt 0.541667 0.402985
vt 0.500000 0.402985
vt 0.458333 0.402985
vt 0.416667 0.402985
vt 0.578125 0.979066
vt 0.421875 0.979066
vt 0.343750 0.843750
vt 0.421875 0.708434
vt 0.578125 0.708434
vt 0.656250 0.843750
vt 0.625000 0.567111
vt 0.375000 0.567111
vt 0.583333 0.567111
vt 0.541667 0.567111
vt 0.500000 0.567111
vt 0.458333 0.567111
vt 0.416667 0.567111
vt 0.000000 0.000000
vt 0.000000 0.255469
vt 0.491036 0.255469
vt 0.491036 0.000000
vt 0.000000 0.499662
vt 0.000000 0.813022
vt 0.491036 0.813022
vt 0.491036 0.499662
vt 0.000000 1.000000
vt 0.491036 1.000000
vt 0.000000 0.000000
vt 0.500000 1.000000
vt 0.491036 0.000000
vt 1.000000 1.000000
vt 1.000000 0.813022
vt 1.000000 0.499662
vt 1.000000 0.255469
vt 1.000000 0.000000
vt 1.000000 0.000000
vt 0.000000 0.000000
vt 0.491036 0.000000
vt 0.491036 0.255469
vt 0.000000 0.255469
vt 0.000000 0.499662
vt 0.491036 0.499662
vt 0.491036 0.813022
vt 0.000000 0.813022
vt 0.491036 1.000000
vt 0.000000 1.000000
vt 0.000000 0.000000
vt 0.491036 0.000000
vt 0.500000 1.000000
vt 1.000000 0.813022
vt 1.000000 1.000000
vt 1.000000 0.499662
vt 1.000000 0.255469
vt 1.000000 0.000000
vt 1.000000 0.000000
vt 0.000000 0.000000
vt 0.000000 0.255469
vt 0.491036 0.255469
vt 0.491036 0.000000
vt 0.000000 0.499662
vt 0.000000 0.813022
vt 0.491036 0.813022
vt 0.491036 0.499662
vt 0.000000 1.000000
vt 0.491036 1.000000
vt 0.000000 0.000000
vt 0.500000 1.000000
vt 0.491036 0.000000
vt 1.000000 1.000000
vt 1.000000 0.813022
vt 1.000000 0.499662
vt 1.000000 0.255469
vt 1.000000 0.000000
vt 1.000000 0.000000
vt 0.000000 0.000000
vt 0.491036 0.000000
vt 0.491036 0.255469
vt 0.000000 0.255469
vt 0.000000 0.499662
vt 0.491036 0.499662
vt 0.491036 0.813022
vt 0.000000 0.813022
vt 0.491036 1.000000
vt 0.000000 1.000000
vt 0.000000 0.000000
vt 0.491036 0.000000
vt 0.500000 1.000000
vt 1.000000 0.813022
vt 1.000000 1.000000
vt 1.000000 0.499662
vt 1.000000 0.255469
vt 1.000000 0.000000
vt 1.000000 0.000000
vt 0.000000 0.000000
vt 0.000000 0.255469
vt 0.491036 0.255469
vt 0.491036 0.000000
vt 0.000000 0.499662
vt 0.000000 0.813022
vt 0.491036 0.813022
vt 0.491036 0.499662
vt 0.000000 1.000000
vt 0.491036 1.000000
vt 0.000000 0.000000
vt 0.500000 1.000000
vt 0.491036 0.000000
vt 1.000000 1.000000
vt 1.000000 0.813022
vt 1.000000 0.499662
vt 1.000000 0.255469
vt 1.000000 0.000000
vt 1.000000 0.000000
vt 0.000000 0.000000
vt 0.491036 0.000000
vt 0.491036 0.255469
vt 0.000000 0.255469
vt 0.000000 0.499662
vt 0.491036 0.499662
vt 0.491036 0.813022
vt 0.000000 0.813022
vt 0.491036 1.000000
vt 0.000000 1.000000
vt 0.000000 0.000000
vt 0.491036 0.000000
vt 0.500000 1.000000
vt 1.000000 0.813022
vt 1.000000 1.000000
vt 1.000000 0.499662
vt 1.000000 0.255469
vt 1.000000 0.000000
vt 1.000000 0.000000
vt 0.000000 0.000000
vt 0.000000 0.255469
vt 0.491036 0.255469
vt 0.491036 0.000000
vt 0.000000 0.499662
vt 0.000000 0.813022
vt 0.491036 0.813022
vt 0.491036 0.499662
vt 0.000000 1.000000
vt 0.491036 1.000000
vt 0.000000 0.000000
vt 0.500000 1.000000
vt 0.491036 0.000000
vt 1.000000 1.000000
vt 1.000000 0.813022
vt 1.000000 0.499662
vt 1.000000 0.255469
vt 1.000000 0.000000
vt 1.000000 0.000000
vt 0.000000 0.000000
vt 0.491036 0.000000
vt 0.491036 0.255469
vt 0.000000 0.255469
vt 0.000000 0.499662
vt 0.491036 0.499662
vt 0.491036 0.813022
vt 0.000000 0.813022
vt 0.491036 1.000000
vt 0.000000 1.000000
vt 0.000000 0.000000
vt 0.491036 0.000000
vt 0.500000 1.000000
vt 1.000000 0.813022
vt 1.000000 1.000000
vt 1.000000 0.499662
vt 1.000000 0.255469
vt 1.000000 0.000000
vt 1.000000 0.000000
vn -0.532895 0.163950 -0.830146
vn -0.532895 0.163950 -0.830146
vn -0.506722 0.164278 -0.846313
vn -0.506114 0.164283 -0.846676
vn -0.985809 0.167608 0.009352
vn -0.985809 0.167608 0.009352
vn -0.997262 0.067918 -0.029254
vn -0.996578 0.078755 -0.025088
vn -0.503076 0.041204 0.863259
vn -0.503076 0.041204 0.863259
vn -0.536798 -0.023506 0.843383
vn -0.534926 -0.019758 0.844668
vn 0.531708 -0.067253 0.844253
vn 0.531708 -0.067253 0.844253
vn 0.496214 -0.014125 0.868085
vn 0.491743 -0.007664 0.870707
vn 0.998764 -0.042901 -0.025093
vn 0.998764 -0.042901 -0.025093
vn 0.997020 0.076974 0.005216
vn 0.994298 0.105895 0.012562
vn 0.502567 0.053642 -0.862873
vn 0.502567 0.053642 -0.862873
vn 0.518167 0.160079 -0.840165
vn 0.520626 0.181986 -0.834164
vn -0.484628 0.874720 -0.000004
vn -0.484636 0.874716 -0.000003
vn -0.484632 0.874718 -0.000000
vn -0.484641 0.874713 -0.000003
vn -0.484634 0.874717 0.000001
vn -0.484627 0.874721 0.000008
vn -0.484626 0.874721 0.000003
vn 0.927895 0.153325 -0.339856
vn 0.929827 0.143820 -0.338729
vn 0.949664 -0.067328 -0.305949
vn 0.949664 -0.067328 -0.305949
vn 0.790368 0.122809 0.600197
vn 0.794806 0.106175 0.597503
vn 0.830747 -0.120827 0.543378
vn 0.830747 -0.120827 0.543378
vn -0.011572 -0.296071 0.955096
vn -0.010860 -0.297284 0.954727
vn 0.119464 -0.507907 0.853088
vn 0.119464 -0.507907 0.853088
vn -0.660758 -0.670695 0.336999
vn -0.667390 -0.663582 0.338009
vn -0.469352 -0.830469 0.300050
vn -0.469352 -0.830469 0.300050
vn -0.504584 -0.626971 -0.593551
vn -0.516751 -0.613846 -0.596793
vn -0.343714 -0.769355 -0.538473
vn -0.343714 -0.769355 -0.538473
vn 0.291923 -0.215004 -0.931963
vn 0.288208 -0.207388 -0.934840
vn 0.372373 -0.388839 -0.842700
vn 0.372373 -0.388840 -0.842700
vn 0.689089 0.190252 -0.699257
vn 0.649039 0.232181 -0.724459
vn 0.861499 0.186110 -0.472423
vn 0.861496 0.185859 -0.472526
vn 0.951329 0.237418 0.196485
vn 0.953061 0.244732 0.178272
vn 0.807538 0.280202 0.519008
vn 0.820931 0.264217 0.506222
vn 0.267919 0.158997 0.950231
vn 0.280889 0.152780 0.947502
vn -0.087528 0.167471 0.981984
vn -0.088627 0.165982 0.982138
vn -0.712645 0.028513 0.700946
vn -0.695709 0.007424 0.718285
vn -0.889537 0.004510 0.456841
vn -0.894317 -0.055176 0.444019
vn -0.975886 -0.013251 -0.217880
vn -0.982506 -0.029141 -0.183939
vn -0.860202 -0.088839 -0.502156
vn -0.827727 -0.157871 -0.538465
vn -0.298228 0.069005 -0.951997
vn -0.355114 0.101117 -0.929338
vn 0.032817 -0.015780 -0.999337
vn 0.056341 -0.003425 -0.998406
vn -0.353608 0.801959 -0.481481
vn -0.353608 0.801959 -0.481481
vn -0.353608 0.801959 -0.481481
vn -0.353608 0.801959 -0.481481
vn -0.740234 0.595539 -0.312069
vn -0.740234 0.595539 -0.312069
vn -0.740234 0.595539 -0.312069
vn -0.740234 0.595539 -0.312069
vn -0.811306 0.556108 0.180351
vn -0.811306 0.556108 0.180351
vn -0.811306 0.556108 0.180351
vn -0.811306 0.556108 0.180351
vn -0.492422 0.725050 0.481480
vn -0.492422 0.725050 0.481480
vn -0.492422 0.725050 0.481480
vn -0.492422 0.725050 0.481480
vn -0.092975 0.946359 0.309452
vn -0.092975 0.946359 0.309452
vn -0.092975 0.946359 0.309452
vn -0.092975 0.946359 0.309452
vn -0.023565 0.984812 -0.172016
vn -0.023565 0.984812 -0.172016
vn -0.023565 0.984812 -0.172016
vn -0.023565 0.984812 -0.172016
vn 0.973714 -0.225909 -0.029106
vn 0.998349 0.013614 -0.055800
vn 0.943190 -0.129460 0.305995
vn 0.917630 -0.324669 0.229227
vn 0.972389 0.232868 -0.015246
vn 0.914888 0.395223 0.082327
vn 0.857736 0.288940 0.425208
vn 0.919957 0.096918 0.379850
vn 0.856514 0.496104 0.142355
vn 0.792852 0.412094 0.448960
vn 0.782931 0.593874 0.185290
vn 0.720248 0.519761 0.459447
vn 0.724510 0.524178 0.447574
vn 0.655963 0.292757 0.695705
vn 0.686004 0.168784 0.707750
vn 0.707729 -0.026688 0.705980
vn 0.750026 -0.227434 0.621075
vn 0.795651 -0.394969 0.459280
vn 0.606977 0.411089 0.680136
vn -0.975701 0.197305 -0.095277
vn -0.931537 0.256035 -0.258235
vn -0.943081 0.090085 -0.320130
vn -0.996041 -0.007094 -0.088615
vn -0.971359 -0.198911 -0.129983
vn -0.917829 -0.106570 -0.382404
vn -0.862686 -0.277291 -0.422946
vn -0.911764 -0.339173 -0.231621
vn -0.807742 -0.388643 -0.443294
vn -0.847097 -0.432915 -0.308238
vn -0.822047 -0.411119 -0.393980
vn -0.806631 -0.394448 -0.440179
vn -0.805734 -0.393514 -0.442652
vn -0.779335 -0.210441 -0.590214
vn -0.754870 -0.339439 -0.561207
vn -0.796094 -0.028500 -0.604501
vn -0.831377 0.151726 -0.534595
vn -0.861679 0.304435 -0.405991
vn -0.788785 -0.376445 -0.485910
vn 0.450915 -0.560183 0.694889
vn 0.478686 -0.417610 0.772310
vn 0.160086 -0.667895 0.726835
vn 0.221005 -0.729571 0.647212
vn 0.451372 -0.316919 0.834162
vn 0.411756 -0.300317 0.860388
vn 0.087644 -0.553703 0.828089
vn 0.100622 -0.585738 0.804230
vn 0.403271 -0.311711 0.860354
vn 0.091722 -0.567254 0.818419
vn 0.447477 -0.384287 0.807520
vn 0.158090 -0.642153 0.750098
vn 0.175771 -0.629731 0.756666
vn -0.228284 -0.727473 0.647047
vn -0.260636 -0.713605 0.650259
vn -0.270075 -0.735003 0.621957
vn -0.178708 -0.795162 0.579466
vn -0.020487 -0.835724 0.548768
vn -0.130636 -0.792971 0.595089
vn -0.328559 0.585151 -0.741382
vn -0.178081 0.686487 -0.704998
vn -0.136771 0.641379 -0.754935
vn -0.355129 0.484219 -0.799634
vn -0.339481 0.408579 -0.847240
vn -0.095446 0.581294 -0.808077
vn -0.096124 0.569336 -0.816466
vn -0.302703 0.418025 -0.856520
vn -0.111991 0.590542 -0.799198
vn -0.283973 0.459572 -0.841518
vn -0.341682 0.639698 -0.688506
vn -0.250459 0.709788 -0.658386
vn -0.244486 0.713941 -0.656136
vn 0.124037 0.681064 -0.721642
vn 0.060509 0.690454 -0.720841
vn 0.156867 0.696945 -0.699757
vn 0.088083 0.738297 -0.668699
vn -0.025994 0.762458 -0.646515
vn -0.152402 0.771708 -0.617447
vn -0.323631 -0.941211 -0.096878
vn -0.500985 -0.865380 -0.011504
vn -0.405550 -0.821946 -0.399917
vn -0.251939 -0.892807 -0.373393
vn -0.618039 -0.785957 0.017305
vn -0.630441 -0.776158 -0.011052
vn -0.555680 -0.720606 -0.414666
vn -0.541325 -0.731999 -0.413697
vn -0.607795 -0.793223 -0.037182
vn -0.533554 -0.736610 -0.415603
vn -0.536705 -0.837694 -0.101079
vn -0.463726 -0.784013 -0.412652
vn -0.466104 -0.786321 -0.405520
vn -0.386219 -0.577234 -0.719469
vn -0.396245 -0.544323 -0.739394
vn -0.372067 -0.537909 -0.756452
vn -0.278363 -0.638183 -0.717800
vn -0.163535 -0.776354 -0.608712
vn -0.351784 -0.659742 -0.664070
vn 0.374753 0.902403 0.212672
vn 0.327693 0.861739 0.387329
vn 0.442487 0.800366 0.404498
vn 0.516461 0.843475 0.147713
vn 0.612416 0.781330 0.120294
vn 0.547071 0.727410 0.414232
vn 0.540377 0.732587 0.413895
vn 0.603696 0.781248 0.158754
vn 0.503429 0.759514 0.411943
vn 0.555999 0.804835 0.207617
vn 0.400862 0.861942 0.310429
vn 0.374962 0.838795 0.394749
vn 0.374288 0.838139 0.396776
vn 0.450367 0.629181 0.633483
vn 0.431051 0.682897 0.589785
vn 0.439304 0.606540 0.662662
vn 0.365041 0.688165 0.627036
vn 0.272329 0.795379 0.541488
vn 0.346715 0.809519 0.473780
vn 0.242195 -0.538014 -0.807392
vn 0.158889 -0.537500 -0.828159
vn 0.490455 -0.378098 -0.785173
vn 0.489493 -0.436511 -0.754887
vn 0.117907 -0.424906 -0.897526
vn 0.150476 -0.241842 -0.958577
vn 0.490187 -0.008057 -0.871580
vn 0.474181 -0.212227 -0.854466
vn 0.185442 -0.159632 -0.969602
vn 0.517757 0.047320 -0.854218
vn 0.268607 -0.091386 -0.958905
vn 0.595494 0.079640 -0.799402
vn 0.602344 0.083696 -0.793836
vn 0.771743 0.254215 -0.582913
vn 0.745203 0.225557 -0.627532
vn 0.759580 0.059958 -0.647644
vn 0.757558 -0.158460 -0.633242
vn 0.702728 -0.300831 -0.644728
vn 0.817785 0.230774 -0.527229
vn -0.312329 0.447472 0.837986
vn -0.471138 0.377764 0.797072
vn -0.480376 0.346547 0.805695
vn -0.263435 0.467935 0.843587
vn -0.242221 0.366666 0.898268
vn -0.475638 0.203978 0.855664
vn -0.499498 0.022952 0.866011
vn -0.298126 0.190931 0.935236
vn -0.533068 -0.018927 0.845861
vn -0.359536 0.112226 0.926358
vn -0.532053 0.107323 0.839882
vn -0.640502 0.048084 0.766450
vn -0.638437 0.049293 0.768094
vn -0.662234 -0.145663 0.735002
vn -0.684190 -0.155339 0.712569
vn -0.675264 0.005098 0.737559
vn -0.666163 0.199519 0.718623
vn -0.615070 0.296006 0.730800
vn -0.726196 -0.005675 0.687465
s 1
f 1/1/1 2/2/2 30/42/3 25/37/4
s 2
f 2/2/5 3/3/6 29/41/7 30/42/8
s 3
f 3/3/9 4/4/10 28/40/11 29/41/12
s 4
f 4/4/13 5/5/14 27/39/15 28/40/16
s 5
f 5/5/17 6/6/18 26/38/19 27/39/20
s 6
f 6/6/21 1/7/22 25/36/23 26/38/24
s 7
f 31/43/25 32/44/26 33/21/27
f 32/44/26 34/45/28 33/21/27
f 34/45/28 35/46/29 33/21/27
f 35/46/29 36/47/30 33/21/27
f 36/47/30 37/48/31 33/21/27
f 37/48/31 31/43/25 33/21/27
s 6
f 14/24/32 13/22/33 7/14/34 12/13/35
s 5
f 15/25/36 14/24/37 12/13/38 11/12/39
s 4
f 16/26/40 15/25/41 11/12/42 10/11/43
s 3
f 17/27/44 16/26/45 10/11/46 9/10/47
s 2
f 18/28/48 17/27/49 9/10/50 8/9/51
s 1
f 13/23/52 18/28/53 8/9/54 7/8/55
s 6
f 20/31/56 19/29/57 38/49/58 39/51/59
s 5
f 21/32/60 20/31/61 39/51/62 40/52/63
s 4
f 22/33/64 21/32/65 40/52/66 41/53/67
s 3
f 23/34/68 22/33/69 41/53/70 42/54/71
s 2
f 24/35/72 23/34/73 42/54/74 43/55/75
s 1
f 19/30/76 24/35/77 43/55/78 38/50/79
s 6
f 26/38/24 25/36/23 19/29/57 20/31/56
s 5
f 27/39/20 26/38/19 20/31/61 21/32/60
s 4
f 28/40/16 27/39/15 21/32/65 22/33/64
s 3
f 29/41/12 28/40/11 22/33/69 23/34/68
s 2
f 30/42/8 29/41/7 23/34/73 24/35/72
s 1
f 25/37/4 30/42/3 24/35/77 19/30/76
s off
f 7/19/80 8/18/81 32/44/82 31/43/83
f 8/18/84 9/17/85 34/45/86 32/44/87
f 9/17/88 10/16/89 35/46/90 34/45/91
f 10/16/92 11/15/93 36/47/94 35/46/95
f 11/15/96 12/20/97 37/48/98 36/47/99
f 12/20/100 7/19/101 31/43/102 37/48/103
s 6
f 39/51/59 38/49/58 13/22/33 14/24/32
s 5
f 40/52/63 39/51/62 14/24/37 15/25/36
s 4
f 41/53/67 40/52/66 15/25/41 16/26/40
s 3
f 42/54/71 41/53/70 16/26/45 17/27/44
s 2
f 43/55/75 42/54/74 17/27/49 18/28/48
s 1
f 38/50/79 43/55/78 18/28/53 13/23/52
s 14
f 44/56/104 51/57/105 60/58/106 59/59/107
f 49/60/108 53/61/109 61/62/110 62/63/111
f 51/57/105 49/60/108 62/63/111 60/58/106
f 53/61/109 46/64/112 63/65/113 61/62/110
s 16
f 46/66/114 54/67/115 63/68/116
s 14
f 61/62/110 63/65/113 47/69/117 52/70/118
f 62/63/111 61/62/110 52/70/118 48/71/119
f 60/58/106 62/63/111 48/71/119 50/72/120
f 59/59/107 60/58/106 50/72/120 45/73/121
s 16
f 63/68/116 54/67/115 47/74/122
s 17
f 44/75/123 59/76/124 58/77/125 51/78/126
f 49/79/127 57/80/128 56/81/129 53/82/130
f 51/78/126 58/77/125 57/80/128 49/79/127
f 53/82/130 56/81/129 55/83/131 46/84/132
s 18
f 46/85/133 55/86/134 54/87/135
s 17
f 56/81/129 52/88/136 47/89/137 55/83/131
f 57/80/128 48/90/138 52/88/136 56/81/129
f 58/77/125 50/91/139 48/90/138 57/80/128
f 59/76/124 45/92/140 50/91/139 58/77/125
s 18
f 55/86/134 47/93/141 54/87/135
s 19
f 64/94/142 71/95/143 80/96/144 79/97/145
f 69/98/146 73/99/147 81/100/148 82/101/149
f 71/95/143 69/98/146 82/101/149 80/96/144
f 73/99/147 66/102/150 83/103/151 81/100/148
s 21
f 66/104/152 74/105/153 83/106/154
s 19
f 81/100/148 83/103/151 67/107/155 72/108/156
f 82/101/149 81/100/148 72/108/156 68/109/157
f 80/96/144 82/101/149 68/109/157 70/110/158
f 79/97/145 80/96/144 70/110/158 65/111/159
s 21
f 83/106/154 74/105/153 67/112/160
s 22
f 64/113/161 79/114/162 78/115/163 71/116/164
f 69/117/165 77/118/166 76/119/167 73/120/168
f 71/116/164 78/115/163 77/118/166 69/117/165
f 73/120/168 76/119/167 75/121/169 66/122/170
s 23
f 66/123/171 75/124/172 74/125/173
s 22
f 76/119/167 72/126/174 67/127/175 75/121/169
f 77/118/166 68/128/176 72/126/174 76/119/167
f 78/115/163 70/129/177 68/128/176 77/118/166
f 79/114/162 65/130/178 70/129/177 78/115/163
s 23
f 75/124/172 67/131/179 74/125/173
s 24
f 84/132/180 91/133/181 100/134/182 99/135/183
f 89/136/184 93/137/185 101/138/186 102/139/187
f 91/133/181 89/136/184 102/139/187 100/134/182
f 93/137/185 86/140/188 103/141/189 101/138/186
s 26
f 86/142/190 94/143/191 103/144/192
s 24
f 101/138/186 103/141/189 87/145/193 92/146/194
f 102/139/187 101/138/186 92/146/194 88/147/195
f 100/134/182 102/139/187 88/147/195 90/148/196
f 99/135/183 100/134/182 90/148/196 85/149/197
s 26
f 103/144/192 94/143/191 87/150/198
s 27
f 84/151/199 99/152/200 98/153/201 91/154/202
f 89/155/203 97/156/204 96/157/205 93/158/206
f 91/154/202 98/153/201 97/156/204 89/155/203
f 93/158/206 96/157/205 95/159/207 86/160/208
s 28
f 86/161/209 95/162/210 94/163/211
s 27
f 96/157/205 92/164/212 87/165/213 95/159/207
f 97/156/204 88/166/214 92/164/212 96/157/205
f 98/153/201 90/167/215 88/166/214 97/156/204
f 99/152/200 85/168/216 90/167/215 98/153/201
s 28
f 95/162/210 87/169/217 94/163/211
s 29
f 104/170/218 111/171/219 120/172/220 119/173/221
f 109/174/222 113/175/223 121/176/224 122/177/225
f 111/171/219 109/174/222 122/177/225 120/172/220
f 113/175/223 106/178/226 123/179/227 121/176/224
s 31
f 106/180/228 114/181/229 123/182/230
s 29
f 121/176/224 123/179/227 107/183/231 112/184/232
f 122/177/225 121/176/224 112/184/232 108/185/233
f 120/172/220 122/177/225 108/185/233 110/186/234
f 119/173/221 120/172/220 110/186/234 105/187/235
s 31
f 123/182/230 114/181/229 107/188/236
s 32
f 104/189/237 119/190/238 118/191/239 111/192/240
f 109/193/241 117/194/242 116/195/243 113/196/244
f 111/192/240 118/191/239 117/194/242 109/193/241
f 113/196/244 116/195/243 115/197/245 106/198/246
s 33
f 106/199/247 115/200/248 114/201/249
s 32
f 116/195/243 112/202/250 107/203/251 115/197/245
f 117/194/242 108/204/252 112/202/250 116/195/243
f 118/191/239 110/205/253 108/204/252 117/194/242
f 119/190/238 105/206/254 110/205/253 118/191/239
s 33
f 115/200/248 107/207/255 114/201/249
