# This file uses centimeters as units for non-parametric coordinates.

v 0.007723 -1.036344 0.028762
v 0.658826 0.152222 -0.033675
v 0.007723 -1.036344 -0.096112
v 0.185134 -0.363199 0.115399
v 0.185597 -0.353247 -0.176145
v 0.077714 -0.693705 0.081163
v 0.077714 -0.689449 -0.143697
v 0.370842 -0.072664 0.074383
v 0.370866 -0.072438 -0.141756
v -0.064417 -1.036344 -0.033675
v 0.006589 -0.670093 -0.030077
v 0.118379 -0.325528 -0.029651
v 0.311508 -0.031599 -0.033697
v -0.111160 -1.036344 -0.125896
v -0.537988 -0.043983 -0.815187
v -0.231820 -1.036344 -0.058876
v -0.144714 -0.411516 -0.401926
v -0.432166 -0.396109 -0.242710
v -0.108323 -0.712961 -0.224410
v -0.330270 -0.710351 -0.101212
v -0.297859 -0.209973 -0.604051
v -0.506683 -0.194046 -0.489160
v -0.138912 -1.036344 -0.033675
v -0.187400 -0.686741 -0.107502
v -0.258021 -0.366486 -0.271678
v -0.373828 -0.156557 -0.501208
v -0.296624 -1.036344 0.051923
v -0.658826 0.359239 0.815187
v -0.159575 -1.036344 0.147886
v -0.512706 -0.246569 0.176949
v -0.164725 -0.224328 0.359316
v -0.406799 -0.636137 0.086934
v -0.154164 -0.640614 0.254897
v -0.605838 0.058282 0.444840
v -0.342336 0.112471 0.552364
v -0.180601 -1.036344 0.031634
v -0.234783 -0.613313 0.104321
v -0.306900 -0.194969 0.198538
v -0.456293 0.134225 0.430864
v -0.143298 -1.040699 -0.074571
v -0.143298 -1.040699 0.019662
v -0.061689 -1.040699 -0.027454
v -0.127791 0.497478 -0.148859
v -0.127775 0.510177 -0.091149
v -0.077196 0.503827 -0.120025
v -0.158641 0.567918 -0.192654
v -0.158641 0.596301 -0.064657
v -0.046346 0.582109 -0.128655
v -0.168715 0.735728 -0.224319
v -0.168716 0.769203 -0.073356
v -0.124568 1.040699 -0.182984
v -0.036271 0.752465 -0.148837
v -0.065118 -0.270090 -0.050988
v -0.139869 -0.270090 -0.007831
v -0.139869 -0.270090 -0.094181
v -0.075078 0.278623 -0.085518
v -0.129879 0.282864 -0.053908
v -0.129938 0.274369 -0.117193
v -0.061689 -0.655395 -0.027454
v -0.143298 -0.655395 0.019662
v -0.143298 -0.655395 -0.074571
v -0.070211 0.002270 -0.064579
v -0.134776 0.002560 -0.027197
v -0.134761 0.001966 -0.101932
vt 0.000000 0.000000
vt 0.999369 0.500000
vt 0.000000 1.000000
vt 0.500000 0.000000
vt 0.500000 1.000000
vt 0.250000 0.000000
vt 0.250000 1.000000
vt 0.750000 0.000000
vt 0.750000 1.000000
vt 0.000000 0.000000
vt 0.250000 0.000000
vt 0.250000 1.000000
vt 0.000000 1.000000
vt 0.500000 0.000000
vt 0.750000 0.000000
vt 0.750000 1.000000
vt 0.500000 1.000000
vt 0.999756 0.500000
vt 0.000000 0.500000
vt 0.250000 0.500000
vt 0.500000 0.500000
vt 0.750000 0.500000
vt 0.000000 0.000000
vt 0.000000 1.000000
vt 0.250000 1.000000
vt 0.250000 0.000000
vt 0.500000 0.000000
vt 0.500000 1.000000
vt 0.750000 1.000000
vt 0.750000 0.000000
vt 0.999756 0.500000
vt 0.000000 0.000000
vt 0.250000 0.000000
vt 0.250000 0.500000
vt 0.000000 0.500000
vt 0.250000 1.000000
vt 0.000000 1.000000
vt 0.500000 0.000000
vt 0.750000 0.000000
vt 0.750000 0.500000
vt 0.500000 0.500000
vt 0.750000 1.000000
vt 0.500000 1.000000
vt 0.999369 0.500000
vt 0.000000 0.000000
vt 0.000000 1.000000
vt 0.250000 1.000000
vt 0.250000 0.000000
vt 0.500000 0.000000
vt 0.500000 1.000000
vt 0.750000 1.000000
vt 0.750000 0.000000
vt 0.999756 0.500000
vt 0.000000 0.000000
vt 0.250000 0.000000
vt 0.250000 0.500000
vt 0.000000 0.500000
vt 0.250000 1.000000
vt 0.000000 1.000000
vt 0.500000 0.000000
vt 0.750000 0.000000
vt 0.750000 0.500000
vt 0.500000 0.500000
vt 0.750000 1.000000
vt 0.500000 1.000000
vt 0.999369 0.500000
vt 0.375000 0.312500
vt 0.458333 0.312500
vt 0.458333 0.406485
vt 0.375000 0.406485
vt 0.541667 0.312500
vt 0.541667 0.406485
vt 0.625000 0.312500
vt 0.625000 0.406485
vt 0.421875 0.979066
vt 0.421875 0.708434
vt 0.500000 0.837500
vt 0.656250 0.843750
vt 0.421875 0.979066
vt 0.421875 0.708434
vt 0.421875 0.708434
vt 0.421875 0.979066
vt 0.656250 0.843750
vt 0.656250 0.843750
vt 0.458333 0.500470
vt 0.541667 0.500470
vt 0.541667 0.547462
vt 0.458333 0.547462
vt 0.375000 0.500470
vt 0.375000 0.547462
vt 0.625000 0.500470
vt 0.625000 0.547462
vt 0.458333 0.594455
vt 0.541667 0.594455
vt 0.541667 0.688440
vt 0.458333 0.688440
vt 0.375000 0.594455
vt 0.375000 0.688440
vt 0.625000 0.594455
vt 0.625000 0.688440
vn 0.980009 -0.198936 -0.002421
vn 0.980009 -0.198936 -0.002421
vn 0.963359 -0.268154 -0.005720
vn 0.963591 -0.267322 -0.005681
vn 0.905813 -0.423585 -0.008871
vn 0.903217 -0.429091 -0.008930
vn 0.788965 -0.614389 -0.007768
vn 0.789433 -0.613787 -0.007789
vn 0.615295 -0.788297 -0.000757
vn -0.760735 0.100657 0.641210
vn -0.804780 0.184992 0.564010
vn -0.804106 0.183524 0.565449
vn -0.760735 0.100657 0.641210
vn -0.811396 0.192748 -0.551802
vn -0.764691 0.112047 -0.634581
vn -0.764691 0.112047 -0.634581
vn -0.809764 0.189566 -0.555290
vn -0.777553 0.367919 0.509948
vn -0.625619 0.585248 0.515834
vn -0.628114 0.582738 0.515645
vn -0.774406 0.374422 0.510004
vn -0.631726 0.588320 -0.504779
vn -0.784761 0.373637 -0.494516
vn -0.786714 0.369530 -0.494498
vn -0.636106 0.584052 -0.504234
vn -0.402448 0.760338 0.509825
vn -0.402687 0.760914 -0.508776
vn -0.471129 -0.252671 -0.845101
vn -0.471129 -0.252671 -0.845101
vn -0.451612 -0.409982 -0.792440
vn -0.451584 -0.410147 -0.792371
vn -0.398758 -0.635515 -0.661145
vn -0.398950 -0.634915 -0.661605
vn -0.325938 -0.806590 -0.493131
vn -0.326155 -0.806191 -0.493640
vn -0.276303 -0.882834 -0.379816
vn 0.885993 0.170525 0.431206
vn 0.823738 0.316842 0.470178
vn 0.828604 0.307296 0.467959
vn 0.885993 0.170525 0.431206
vn -0.019368 0.334292 0.942271
vn -0.093862 0.148844 0.984396
vn -0.093862 0.148844 0.984396
vn -0.023766 0.323786 0.945832
vn 0.738640 0.557601 0.378805
vn 0.646172 0.743216 0.173468
vn 0.648769 0.739160 0.180946
vn 0.741935 0.547867 0.386489
vn -0.115533 0.790922 0.600912
vn -0.021673 0.595323 0.803194
vn -0.019053 0.587258 0.809176
vn -0.110525 0.785292 0.609181
vn 0.571211 0.820792 -0.004365
vn -0.209840 0.880363 0.425358
vn -0.549195 -0.216320 0.807211
vn -0.549195 -0.216320 0.807211
vn -0.504835 -0.251350 0.825812
vn -0.504223 -0.251818 0.826043
vn -0.385163 -0.456723 0.801906
vn -0.381335 -0.463259 0.799984
vn -0.220791 -0.676530 0.702537
vn -0.222992 -0.674507 0.703787
vn -0.092726 -0.779171 0.619915
vn -0.019958 0.125773 -0.991858
vn 0.025402 0.191893 -0.981087
vn 0.022760 0.188071 -0.981892
vn -0.019958 0.125773 -0.991858
vn 0.866219 0.179494 -0.466312
vn 0.930881 0.130351 -0.341275
vn 0.930881 0.130351 -0.341275
vn 0.866634 0.179230 -0.465641
vn -0.064175 0.404613 -0.912234
vn -0.254759 0.606383 -0.753258
vn -0.253197 0.605478 -0.754511
vn -0.065295 0.406163 -0.911465
vn 0.588247 0.695545 -0.412531
vn 0.744871 0.419231 -0.519050
vn 0.744263 0.420632 -0.518788
vn 0.591162 0.691167 -0.415711
vn -0.403037 0.681167 -0.611206
vn 0.446092 0.854746 -0.265353
vn -1.000000 0.000000 0.000000
vn -1.000000 0.000000 0.000000
vn -0.999991 0.004251 0.000000
vn -0.999990 0.004425 0.000000
vn 0.500000 0.000000 0.866026
vn 0.500000 0.000000 0.866026
vn 0.499800 0.028253 0.865680
vn 0.499809 0.027647 0.865695
vn 0.500000 0.000000 -0.866026
vn 0.500000 0.000000 -0.866026
vn 0.499929 -0.023851 -0.865738
vn 0.499933 -0.023417 -0.865748
vn -0.988516 0.147533 -0.032717
vn -0.988516 0.147533 -0.032717
vn -0.988516 0.147533 -0.032717
vn 0.503006 0.252030 0.826720
vn 0.503006 0.252030 0.826720
vn 0.503006 0.252030 0.826720
vn 0.490109 0.047023 -0.870392
vn 0.490109 0.047023 -0.870392
vn 0.490109 0.047023 -0.870392
vn -0.930358 -0.357980 0.079273
vn -0.930358 -0.357980 0.079273
vn -0.930358 -0.357980 0.079273
vn -0.930358 -0.357980 0.079273
vn 0.484117 -0.094458 0.869890
vn 0.484116 -0.094458 0.869890
vn 0.484116 -0.094458 0.869890
vn 0.484117 -0.094458 0.869890
vn 0.501345 -0.287655 -0.816032
vn 0.501345 -0.287655 -0.816032
vn 0.501345 -0.287655 -0.816032
vn 0.501345 -0.287655 -0.816032
vn -0.998263 -0.057524 0.012754
vn -0.998263 -0.057524 0.012754
vn -0.998263 -0.057524 0.012754
vn -0.998263 -0.057524 0.012754
vn 0.500745 0.072572 0.862547
vn 0.500745 0.072572 0.862547
vn 0.500745 0.072572 0.862547
vn 0.500745 0.072572 0.862547
vn 0.503326 -0.130952 -0.854116
vn 0.503326 -0.130952 -0.854116
vn 0.503326 -0.130952 -0.854117
vn 0.503326 -0.130952 -0.854116
vn 0.499445 0.055399 0.864573
vn 0.499458 0.055304 0.864571
vn 0.500511 0.062409 0.863478
vn 0.500485 0.061966 0.863525
vn -0.999918 0.012814 -0.000066
vn -0.999922 0.012487 -0.000060
vn -0.999835 0.018187 -0.000462
vn -0.999835 0.018145 -0.000485
vn 0.499857 -0.043000 -0.865040
vn 0.499868 -0.042793 -0.865044
vn 0.500801 -0.044609 -0.864412
vn 0.500788 -0.044286 -0.864437
vn 0.502336 0.099517 0.858927
vn 0.502327 0.099289 0.858958
vn 0.503425 0.135320 0.853377
vn 0.503425 0.135320 0.853377
vn -0.999900 0.014133 -0.000905
vn -0.999901 0.014033 -0.000907
vn -0.999956 0.009285 -0.001003
vn -0.999956 0.009285 -0.001003
vn 0.502397 -0.086142 -0.860336
vn 0.502379 -0.085559 -0.860404
vn 0.503221 -0.126219 -0.854890
vn 0.503221 -0.126219 -0.854891
s 1
f 1/10/1 3/13/2 7/12/3 6/11/4
f 4/14/5 5/17/6 9/16/7 8/15/8
f 6/11/4 7/12/3 5/17/6 4/14/5
f 8/15/8 9/16/7 2/18/9
s 2
f 1/1/10 6/6/11 11/20/12 10/19/13
s 3
f 7/7/14 3/3/15 10/19/16 11/20/17
s 2
f 4/4/18 8/8/19 13/22/20 12/21/21
s 3
f 9/9/22 5/5/23 12/21/24 13/22/25
s 2
f 6/6/11 4/4/18 12/21/21 11/20/12
s 3
f 5/5/23 7/7/14 11/20/17 12/21/24
s 2
f 8/8/19 2/2/26 13/22/20
s 3
f 2/2/27 9/9/22 13/22/25
s 5
f 14/23/28 16/24/29 20/25/30 19/26/31
f 17/27/32 18/28/33 22/29/34 21/30/35
f 19/26/31 20/25/30 18/28/33 17/27/32
f 21/30/35 22/29/34 15/31/36
s 6
f 14/32/37 19/33/38 24/34/39 23/35/40
s 7
f 20/36/41 16/37/42 23/35/43 24/34/44
s 6
f 17/38/45 21/39/46 26/40/47 25/41/48
s 7
f 22/42/49 18/43/50 25/41/51 26/40/52
s 6
f 19/33/38 17/38/45 25/41/48 24/34/39
s 7
f 18/43/50 20/36/41 24/34/44 25/41/51
s 6
f 21/39/46 15/44/53 26/40/47
s 7
f 15/44/54 22/42/49 26/40/52
s 9
f 27/45/55 29/46/56 33/47/57 32/48/58
f 30/49/59 31/50/60 35/51/61 34/52/62
f 32/48/58 33/47/57 31/50/60 30/49/59
f 34/52/62 35/51/61 28/53/63
s 10
f 27/54/64 32/55/65 37/56/66 36/57/67
s 11
f 33/58/68 29/59/69 36/57/70 37/56/71
s 10
f 30/60/72 34/61/73 39/62/74 38/63/75
s 11
f 35/64/76 31/65/77 38/63/78 39/62/79
s 10
f 32/55/65 30/60/72 38/63/75 37/56/66
s 11
f 31/65/77 33/58/68 37/56/71 38/63/78
s 10
f 34/61/73 28/66/80 39/62/74
s 11
f 28/66/81 35/64/76 39/62/79
s 13
f 40/67/82 41/68/83 60/69/84 61/70/85
s 14
f 41/68/86 42/71/87 59/72/88 60/69/89
s 15
f 42/71/90 40/73/91 61/74/92 59/72/93
s off
f 49/75/94 50/76/95 51/77/96
f 50/76/97 52/78/98 51/77/99
f 52/78/100 49/75/101 51/77/102
f 43/79/103 44/80/104 47/81/105 46/82/106
f 44/80/107 45/83/108 48/84/109 47/81/110
f 45/83/111 43/79/112 46/82/113 48/84/114
f 46/82/115 47/81/116 50/76/117 49/75/118
f 47/81/119 48/84/120 52/78/121 50/76/122
f 48/84/123 46/82/124 49/75/125 52/78/126
s 14
f 54/85/127 53/86/128 62/87/129 63/88/130
s 13
f 55/89/131 54/85/132 63/88/133 64/90/134
s 15
f 53/86/135 55/91/136 64/92/137 62/87/138
s 14
f 57/93/139 56/94/140 45/95/141 44/96/142
s 13
f 58/97/143 57/93/144 44/96/145 43/98/146
s 15
f 56/94/147 58/99/148 43/100/149 45/95/150
s 14
f 60/69/89 59/72/88 53/86/128 54/85/127
s 13
f 61/70/85 60/69/84 54/85/132 55/89/131
s 15
f 59/72/93 61/74/92 55/91/136 53/86/135
s 14
f 63/88/130 62/87/129 56/94/140 57/93/139
s 13
f 64/90/134 63/88/133 57/93/144 58/97/143
s 15
f 62/87/138 64/92/137 58/99/148 56/94/147
