# This file uses centimeters as units for non-parametric coordinates.

v 0.018237 -0.000000 0.097869
v 0.213176 -0.000000 0.051347
v 0.313368 0.474037 0.131567
v -0.037974 0.479399 0.224427
v -0.041504 0.946055 0.390886
v 0.398540 0.972697 0.224039
v 0.430336 1.376141 0.536657
v 0.124515 1.311229 0.687301
v 0.414254 1.671740 1.029190
v 0.114351 0.506740 0.084109
v 0.092289 0.000000 -0.022226
v 0.230872 1.402200 0.542185
v 0.141448 1.007865 0.223629
v 0.076743 -0.005217 -0.133812
v 0.076743 -0.005217 -0.038163
v 0.159578 -0.005217 -0.085988
v 0.087461 1.836272 -0.233318
v 0.087461 1.851475 -0.163333
v 0.148860 1.843874 -0.198325
v 0.049546 1.920602 -0.287867
v 0.049546 1.954582 -0.131450
v 0.186775 1.937592 -0.209658
v 0.037235 2.121503 -0.326563
v 0.037235 2.161579 -0.142080
v 0.091186 2.486611 -0.276050
v 0.199086 2.141541 -0.234321
v 0.156335 0.917348 -0.110024
v 0.079987 0.917348 -0.065945
v 0.079987 0.917348 -0.154140
v 0.149133 1.574261 -0.151583
v 0.087199 1.579339 -0.115894
v 0.087178 1.569169 -0.187294
v 0.159578 0.456066 -0.085988
v 0.076743 0.456066 -0.038163
v 0.076743 0.456066 -0.133812
v 0.152065 1.243415 -0.124977
v 0.084249 1.243761 -0.085717
v 0.084268 1.243051 -0.164216
v 0.243705 0.000000 -0.018241
v 1.023648 1.423758 -0.093033
v 0.243705 0.000000 -0.167825
v 0.456222 0.806346 0.085539
v 0.456777 0.818267 -0.263694
v 0.327546 0.410439 0.044529
v 0.327546 0.415538 -0.224826
v 0.678678 1.154372 0.036408
v 0.678706 1.154642 -0.222501
v 0.157290 0.000000 -0.093033
v 0.242346 0.438724 -0.088723
v 0.376257 0.851471 -0.088214
v 0.607603 1.203563 -0.093060
v 0.101298 -0.000000 -0.203503
v -0.409991 1.188728 -1.029190
v -0.043239 -0.000000 -0.123221
v 0.061104 0.748468 -0.534153
v -0.283229 0.766924 -0.343431
v 0.104696 0.387374 -0.321510
v -0.161170 0.390500 -0.173934
v -0.122346 0.989893 -0.776275
v -0.372491 1.008972 -0.638649
v 0.068054 0.000000 -0.093033
v 0.009972 0.418783 -0.181469
v -0.074624 0.802408 -0.378132
v -0.213346 1.053878 -0.653081
v -0.104051 -0.000000 -0.085383
v -1.023648 1.671740 0.337146
v -0.051965 -0.000000 0.108144
v -0.398659 0.946055 -0.136707
v -0.219277 0.972697 0.298379
v -0.232167 0.479399 -0.137946
v -0.129282 0.474037 0.210592
v -0.690198 1.311229 0.037734
v -0.530856 1.376141 0.339115
v 0.018115 0.000000 -0.014801
v -0.087544 0.506740 0.010297
v -0.226231 1.007865 0.041380
v -0.542095 1.402200 0.139891
v -0.022757 -0.005217 -0.064443
v 0.068309 -0.005217 -0.019081
v 0.062061 -0.005217 -0.120627
v -0.094181 1.532960 -0.110752
v -0.038584 1.545659 -0.083069
v -0.042123 1.539309 -0.145656
v -0.151250 1.603400 -0.101998
v -0.027949 1.631783 -0.040578
v -0.035714 1.617591 -0.179462
v -0.186587 1.771210 -0.107487
v -0.041163 1.804685 -0.035047
v -0.125584 2.076181 -0.130181
v -0.050321 1.787948 -0.198851
v 0.036011 0.765392 -0.127663
v 0.041731 0.765392 -0.034693
v -0.041678 0.765392 -0.076241
v -0.006867 1.314105 -0.131764
v -0.002724 1.318346 -0.063750
v -0.063730 1.309851 -0.094098
v 0.062061 0.380087 -0.120627
v 0.068309 0.380087 -0.019081
v -0.022757 0.380087 -0.064443
v 0.017986 1.037752 -0.127817
v 0.023024 1.038042 -0.047535
v -0.049101 1.037448 -0.083473
vt 0.000000 0.000000
vt 0.000000 1.000000
vt 0.250000 1.000000
vt 0.250000 0.000000
vt 0.500000 0.000000
vt 0.500000 1.000000
vt 0.750000 1.000000
vt 0.750000 0.000000
vt 0.999756 0.500000
vt 0.000000 0.000000
vt 0.250000 0.000000
vt 0.250000 0.500000
vt 0.000000 0.500000
vt 0.250000 1.000000
vt 0.000000 1.000000
vt 0.500000 0.000000
vt 0.750000 0.000000
vt 0.750000 0.500000
vt 0.500000 0.500000
vt 0.750000 1.000000
vt 0.500000 1.000000
vt 0.999369 0.500000
vt 0.375000 0.312500
vt 0.458333 0.312500
vt 0.458333 0.406485
vt 0.375000 0.406485
vt 0.541667 0.312500
vt 0.541667 0.406485
vt 0.625000 0.312500
vt 0.625000 0.406485
vt 0.421875 0.979066
vt 0.421875 0.708434
vt 0.500000 0.837500
vt 0.656250 0.843750
vt 0.421875 0.979066
vt 0.421875 0.708434
vt 0.421875 0.708434
vt 0.421875 0.979066
vt 0.656250 0.843750
vt 0.656250 0.843750
vt 0.458333 0.500470
vt 0.541667 0.500470
vt 0.541667 0.547462
vt 0.458333 0.547462
vt 0.375000 0.500470
vt 0.375000 0.547462
vt 0.625000 0.500470
vt 0.625000 0.547462
vt 0.458333 0.594455
vt 0.541667 0.594455
vt 0.541667 0.688440
vt 0.458333 0.688440
vt 0.375000 0.594455
vt 0.375000 0.688440
vt 0.625000 0.594455
vt 0.625000 0.688440
vt 0.000000 0.000000
vt 0.000000 1.000000
vt 0.250000 1.000000
vt 0.250000 0.000000
vt 0.500000 0.000000
vt 0.500000 1.000000
vt 0.750000 1.000000
vt 0.750000 0.000000
vt 0.999756 0.500000
vt 0.000000 0.000000
vt 0.250000 0.000000
vt 0.250000 0.500000
vt 0.000000 0.500000
vt 0.250000 1.000000
vt 0.000000 1.000000
vt 0.500000 0.000000
vt 0.750000 0.000000
vt 0.750000 0.500000
vt 0.500000 0.500000
vt 0.750000 1.000000
vt 0.500000 1.000000
vt 0.999369 0.500000
vt 0.000000 0.000000
vt 0.000000 1.000000
vt 0.250000 1.000000
vt 0.250000 0.000000
vt 0.500000 0.000000
vt 0.500000 1.000000
vt 0.750000 1.000000
vt 0.750000 0.000000
vt 0.999756 0.500000
vt 0.000000 0.000000
vt 0.250000 0.000000
vt 0.250000 0.500000
vt 0.000000 0.500000
vt 0.250000 1.000000
vt 0.000000 1.000000
vt 0.500000 0.000000
vt 0.750000 0.000000
vt 0.750000 0.500000
vt 0.500000 0.500000
vt 0.750000 1.000000
vt 0.500000 1.000000
vt 0.999369 0.500000
vt 0.000000 0.000000
vt 0.000000 1.000000
vt 0.250000 1.000000
vt 0.250000 0.000000
vt 0.500000 0.000000
vt 0.500000 1.000000
vt 0.750000 1.000000
vt 0.750000 0.000000
vt 0.999756 0.500000
vt 0.000000 0.000000
vt 0.250000 0.000000
vt 0.250000 0.500000
vt 0.000000 0.500000
vt 0.250000 1.000000
vt 0.000000 1.000000
vt 0.500000 0.000000
vt 0.750000 0.000000
vt 0.750000 0.500000
vt 0.500000 0.500000
vt 0.750000 1.000000
vt 0.500000 1.000000
vt 0.999369 0.500000
vt 0.375000 0.312500
vt 0.458333 0.312500
vt 0.458333 0.406485
vt 0.375000 0.406485
vt 0.541667 0.312500
vt 0.541667 0.406485
vt 0.625000 0.312500
vt 0.625000 0.406485
vt 0.421875 0.979066
vt 0.421875 0.708434
vt 0.500000 0.837500
vt 0.656250 0.843750
vt 0.421875 0.979066
vt 0.421875 0.708434
vt 0.421875 0.708434
vt 0.421875 0.979066
vt 0.656250 0.843750
vt 0.656250 0.843750
vt 0.458333 0.500470
vt 0.541667 0.500470
vt 0.541667 0.547462
vt 0.458333 0.547462
vt 0.375000 0.500470
vt 0.375000 0.547462
vt 0.625000 0.500470
vt 0.625000 0.547462
vt 0.458333 0.594455
vt 0.541667 0.594455
vt 0.541667 0.688440
vt 0.458333 0.688440
vt 0.375000 0.594455
vt 0.375000 0.688440
vt 0.625000 0.594455
vt 0.625000 0.688440
vn 0.239379 -0.216320 0.946522
vn 0.239379 -0.216320 0.946522
vn 0.282731 -0.251349 0.925682
vn 0.283311 -0.251817 0.925377
vn 0.344267 -0.456723 0.820295
vn 0.345369 -0.463259 0.816156
vn 0.379016 -0.676530 0.631391
vn 0.378490 -0.674507 0.633866
vn 0.402198 -0.779171 0.480760
vn -0.755213 0.125773 -0.643300
vn -0.717054 0.191893 -0.670083
vn -0.719408 0.188071 -0.668641
vn -0.755213 0.125773 -0.643300
vn 0.226021 0.179494 -0.957443
vn 0.362469 0.130351 -0.922835
vn 0.362469 0.130351 -0.922835
vn 0.226798 0.179230 -0.957308
vn -0.724993 0.404613 -0.557381
vn -0.732548 0.606382 -0.309311
vn -0.732449 0.605478 -0.311311
vn -0.725161 0.406163 -0.556033
vn 0.081782 0.695545 -0.713813
vn 0.106040 0.419231 -0.901666
vn 0.105833 0.420632 -0.901037
vn 0.081338 0.691167 -0.718103
vn -0.724687 0.681166 -0.104119
vn 0.097541 0.854745 -0.509800
vn -1.000000 0.000000 -0.000002
vn -1.000000 0.000000 -0.000002
vn -0.999994 0.003377 -0.000003
vn -0.999994 0.003494 -0.000003
vn 0.500000 -0.000000 0.866025
vn 0.500000 -0.000000 0.866025
vn 0.499856 0.023982 0.865776
vn 0.499861 0.023546 0.865785
vn 0.500001 0.000000 -0.866025
vn 0.500001 0.000000 -0.866025
vn 0.499968 -0.020507 -0.865801
vn 0.499970 -0.020187 -0.865808
vn -0.988065 0.150526 -0.032700
vn -0.988065 0.150526 -0.032700
vn -0.988065 0.150526 -0.032700
vn 0.502338 0.256918 0.825621
vn 0.502338 0.256918 0.825621
vn 0.502338 0.256918 0.825621
vn 0.490087 0.047997 -0.870351
vn 0.490087 0.047997 -0.870351
vn 0.490087 0.047997 -0.870351
vn -0.927386 -0.365579 0.079417
vn -0.927386 -0.365579 0.079417
vn -0.927386 -0.365579 0.079417
vn -0.927386 -0.365579 0.079417
vn 0.484583 -0.090837 0.870016
vn 0.484583 -0.090837 0.870016
vn 0.484583 -0.090837 0.870016
vn 0.484583 -0.090837 0.870016
vn 0.500073 -0.300521 -0.812166
vn 0.500073 -0.300521 -0.812166
vn 0.500073 -0.300521 -0.812166
vn 0.500073 -0.300521 -0.812166
vn -0.998193 -0.058713 0.012754
vn -0.998193 -0.058713 0.012754
vn -0.998193 -0.058713 0.012754
vn -0.998193 -0.058713 0.012754
vn 0.500690 0.074070 0.862452
vn 0.500690 0.074070 0.862452
vn 0.500690 0.074070 0.862452
vn 0.500690 0.074070 0.862452
vn 0.503145 -0.133621 -0.853810
vn 0.503145 -0.133621 -0.853810
vn 0.503145 -0.133621 -0.853810
vn 0.503145 -0.133621 -0.853810
vn 0.499645 0.047617 0.864920
vn 0.499655 0.047575 0.864917
vn 0.500616 0.059344 0.863633
vn 0.500594 0.058819 0.863682
vn -0.999955 0.009468 -0.000071
vn -0.999957 0.009289 -0.000066
vn -0.999938 0.011132 -0.000380
vn -0.999940 0.010985 -0.000395
vn 0.499972 -0.038423 -0.865189
vn 0.499981 -0.038313 -0.865189
vn 0.500831 -0.048600 -0.864180
vn 0.500819 -0.048115 -0.864214
vn 0.502378 0.106288 0.858090
vn 0.502370 0.105991 0.858132
vn 0.503161 0.148026 0.851421
vn 0.503161 0.148026 0.851421
vn -0.999985 0.005418 -0.000366
vn -0.999986 0.005342 -0.000360
vn -1.000000 0.001005 -0.000029
vn -1.000000 0.001005 -0.000029
vn 0.502508 -0.101511 -0.858593
vn 0.502495 -0.101041 -0.858656
vn 0.503223 -0.147188 -0.851530
vn 0.503223 -0.147188 -0.851530
vn 0.980009 -0.198936 -0.002421
vn 0.980009 -0.198936 -0.002421
vn 0.963359 -0.268154 -0.005721
vn 0.963591 -0.267322 -0.005681
vn 0.905813 -0.423585 -0.008871
vn 0.903217 -0.429091 -0.008930
vn 0.788965 -0.614389 -0.007768
vn 0.789433 -0.613787 -0.007789
vn 0.615295 -0.788297 -0.000757
vn -0.760735 0.100657 0.641210
vn -0.804780 0.184992 0.564010
vn -0.804106 0.183524 0.565449
vn -0.760735 0.100657 0.641210
vn -0.811396 0.192748 -0.551802
vn -0.764691 0.112047 -0.634581
vn -0.764691 0.112047 -0.634581
vn -0.809764 0.189566 -0.555290
vn -0.777553 0.367919 0.509948
vn -0.625619 0.585248 0.515835
vn -0.628114 0.582738 0.515645
vn -0.774406 0.374422 0.510004
vn -0.631725 0.588320 -0.504780
vn -0.784761 0.373637 -0.494516
vn -0.786714 0.369530 -0.494498
vn -0.636106 0.584052 -0.504235
vn -0.402448 0.760338 0.509825
vn -0.402687 0.760914 -0.508776
vn -0.471129 -0.252671 -0.845100
vn -0.471129 -0.252671 -0.845100
vn -0.451612 -0.409982 -0.792440
vn -0.451584 -0.410147 -0.792371
vn -0.398758 -0.635516 -0.661144
vn -0.398950 -0.634915 -0.661605
vn -0.325937 -0.806590 -0.493131
vn -0.326155 -0.806191 -0.493639
vn -0.276303 -0.882834 -0.379817
vn 0.885993 0.170525 0.431206
vn 0.823738 0.316842 0.470178
vn 0.828604 0.307295 0.467959
vn 0.885993 0.170525 0.431206
vn -0.019368 0.334292 0.942271
vn -0.093862 0.148844 0.984396
vn -0.093862 0.148844 0.984396
vn -0.023766 0.323786 0.945832
vn 0.738640 0.557601 0.378804
vn 0.646172 0.743216 0.173468
vn 0.648768 0.739160 0.180946
vn 0.741935 0.547867 0.386489
vn -0.115533 0.790922 0.600912
vn -0.021673 0.595323 0.803194
vn -0.019053 0.587258 0.809176
vn -0.110525 0.785292 0.609181
vn 0.571211 0.820792 -0.004364
vn -0.209840 0.880363 0.425357
vn -0.939277 -0.216320 0.266390
vn -0.939277 -0.216320 0.266390
vn -0.917204 -0.251349 0.309128
vn -0.916883 -0.251817 0.309699
vn -0.810098 -0.456723 0.367621
vn -0.805929 -0.463259 0.368604
vn -0.620276 -0.676530 0.396945
vn -0.622765 -0.674506 0.396490
vn -0.469043 -0.779170 0.415804
vn 0.621405 0.125773 -0.773329
vn 0.649270 0.191893 -0.735952
vn 0.647761 0.188071 -0.738265
vn 0.621405 0.125773 -0.773329
vn 0.963523 0.179494 0.198506
vn 0.932838 0.130351 0.335889
vn 0.932838 0.130351 0.335889
vn 0.963411 0.179230 0.199287
vn 0.536387 0.404613 -0.740660
vn 0.288203 0.606382 -0.741107
vn 0.290205 0.605478 -0.741065
vn 0.535034 0.406163 -0.740790
vn 0.715862 0.695545 0.061303
vn 0.904333 0.419231 0.080171
vn 0.903699 0.420632 0.079982
vn 0.720138 0.691167 0.060736
vn 0.083322 0.681166 -0.727372
vn 0.512384 0.854746 0.082898
vn -0.445874 -0.000000 0.895096
vn -0.445874 -0.000000 0.895096
vn -0.445872 0.002625 0.895093
vn -0.445872 0.002746 0.895092
vn 0.998113 0.000000 -0.061412
vn 0.998113 0.000000 -0.061412
vn 0.997579 0.032681 -0.061380
vn 0.997602 0.031971 -0.061381
vn -0.552241 0.000000 -0.833685
vn -0.552241 0.000000 -0.833685
vn -0.551986 -0.025923 -0.833450
vn -0.551996 -0.025332 -0.833462
vn -0.469229 0.158503 0.868735
vn -0.469229 0.158503 0.868735
vn -0.469229 0.158503 0.868735
vn 0.959462 0.269883 -0.081219
vn 0.959462 0.269883 -0.081219
vn 0.959462 0.269883 -0.081219
vn -0.560460 0.050597 -0.826634
vn -0.560460 0.050597 -0.826634
vn -0.560460 0.050597 -0.826634
vn -0.340194 -0.382124 0.859215
vn -0.340194 -0.382124 0.859214
vn -0.340194 -0.382124 0.859215
vn -0.340194 -0.382124 0.859214
vn 0.993882 -0.100636 -0.045503
vn 0.993882 -0.100636 -0.045503
vn 0.993882 -0.100636 -0.045503
vn 0.993882 -0.100636 -0.045503
vn -0.503613 -0.307541 -0.807336
vn -0.503613 -0.307541 -0.807336
vn -0.503613 -0.307541 -0.807336
vn -0.503613 -0.307541 -0.807336
vn -0.433568 -0.061892 0.898993
vn -0.433568 -0.061892 0.898993
vn -0.433568 -0.061892 0.898993
vn -0.433568 -0.061892 0.898993
vn 0.994917 0.078070 -0.063602
vn 0.994917 0.078070 -0.063602
vn 0.994917 0.078070 -0.063602
vn 0.994917 0.078070 -0.063602
vn -0.539366 -0.140740 -0.830227
vn -0.539366 -0.140740 -0.830227
vn -0.539366 -0.140740 -0.830227
vn -0.539366 -0.140740 -0.830227
vn 0.995921 0.066001 -0.061529
vn 0.995921 0.065991 -0.061541
vn 0.995101 0.076170 -0.063027
vn 0.995137 0.075728 -0.062982
vn -0.445893 0.007950 0.895051
vn -0.445891 0.007716 0.895054
vn -0.446081 0.011267 0.894921
vn -0.446096 0.011237 0.894915
vn -0.551328 -0.046796 -0.832975
vn -0.551327 -0.046486 -0.832993
vn -0.550327 -0.048568 -0.833536
vn -0.550372 -0.048031 -0.833537
vn 0.991266 0.113752 -0.066723
vn 0.991266 0.113752 -0.066723
vn 0.986218 0.149843 -0.070158
vn 0.986218 0.149843 -0.070158
vn -0.446323 0.008721 0.894829
vn -0.446323 0.008729 0.894829
vn -0.446382 0.005749 0.894824
vn -0.446382 0.005749 0.894824
vn -0.545788 -0.092504 -0.832802
vn -0.545774 -0.092621 -0.832798
vn -0.540148 -0.135757 -0.830548
vn -0.540148 -0.135757 -0.830548
s 1
f 1/1/1 2/2/2 3/3/3 4/4/4
f 5/5/5 6/6/6 7/7/7 8/8/8
f 4/4/4 3/3/3 6/6/6 5/5/5
f 8/8/8 7/7/7 9/9/9
s 2
f 1/10/10 4/11/11 10/12/12 11/13/13
s 3
f 3/14/14 2/15/15 11/13/16 10/12/17
s 2
f 5/16/18 8/17/19 12/18/20 13/19/21
s 3
f 7/20/22 6/21/23 13/19/24 12/18/25
s 2
f 4/11/11 5/16/18 13/19/21 10/12/12
s 3
f 6/21/23 3/14/14 10/12/17 13/19/24
s 2
f 8/17/19 9/22/26 12/18/20
s 3
f 9/22/27 7/20/22 12/18/25
s 5
f 14/23/28 15/24/29 34/25/30 35/26/31
s 6
f 15/24/32 16/27/33 33/28/34 34/25/35
s 7
f 16/27/36 14/29/37 35/30/38 33/28/39
s off
f 23/31/40 24/32/41 25/33/42
f 24/32/43 26/34/44 25/33/45
f 26/34/46 23/31/47 25/33/48
f 17/35/49 18/36/50 21/37/51 20/38/52
f 18/36/53 19/39/54 22/40/55 21/37/56
f 19/39/57 17/35/58 20/38/59 22/40/60
f 20/38/61 21/37/62 24/32/63 23/31/64
f 21/37/65 22/40/66 26/34/67 24/32/68
f 22/40/69 20/38/70 23/31/71 26/34/72
s 6
f 28/41/73 27/42/74 36/43/75 37/44/76
s 5
f 29/45/77 28/41/78 37/44/79 38/46/80
s 7
f 27/42/81 29/47/82 38/48/83 36/43/84
s 6
f 31/49/85 30/50/86 19/51/87 18/52/88
s 5
f 32/53/89 31/49/90 18/52/91 17/54/92
s 7
f 30/50/93 32/55/94 17/56/95 19/51/96
s 6
f 34/25/35 33/28/34 27/42/74 28/41/73
s 5
f 35/26/31 34/25/30 28/41/78 29/45/77
s 7
f 33/28/39 35/30/38 29/47/82 27/42/81
s 6
f 37/44/76 36/43/75 30/50/86 31/49/85
s 5
f 38/46/80 37/44/79 31/49/90 32/53/89
s 7
f 36/43/84 38/48/83 32/55/94 30/50/93
s 8
f 39/57/97 41/58/98 45/59/99 44/60/100
f 42/61/101 43/62/102 47/63/103 46/64/104
f 44/60/100 45/59/99 43/62/102 42/61/101
f 46/64/104 47/63/103 40/65/105
s 9
f 39/66/106 44/67/107 49/68/108 48/69/109
s 10
f 45/70/110 41/71/111 48/69/112 49/68/113
s 9
f 42/72/114 46/73/115 51/74/116 50/75/117
s 10
f 47/76/118 43/77/119 50/75/120 51/74/121
s 9
f 44/67/107 42/72/114 50/75/117 49/68/108
s 10
f 43/77/119 45/70/110 49/68/113 50/75/120
s 9
f 46/73/115 40/78/122 51/74/116
s 10
f 40/78/123 47/76/118 51/74/121
s 12
f 52/79/124 54/80/125 58/81/126 57/82/127
f 55/83/128 56/84/129 60/85/130 59/86/131
f 57/82/127 58/81/126 56/84/129 55/83/128
f 59/86/131 60/85/130 53/87/132
s 13
f 52/88/133 57/89/134 62/90/135 61/91/136
s 14
f 58/92/137 54/93/138 61/91/139 62/90/140
s 13
f 55/94/141 59/95/142 64/96/143 63/97/144
s 14
f 60/98/145 56/99/146 63/97/147 64/96/148
s 13
f 57/89/134 55/94/141 63/97/144 62/90/135
s 14
f 56/99/146 58/92/137 62/90/140 63/97/147
s 13
f 59/95/142 53/100/149 64/96/143
s 14
f 53/100/150 60/98/145 64/96/148
s 16
f 65/101/151 67/102/152 71/103/153 70/104/154
f 68/105/155 69/106/156 73/107/157 72/108/158
f 70/104/154 71/103/153 69/106/156 68/105/155
f 72/108/158 73/107/157 66/109/159
s 17
f 65/110/160 70/111/161 75/112/162 74/113/163
s 18
f 71/114/164 67/115/165 74/113/166 75/112/167
s 17
f 68/116/168 72/117/169 77/118/170 76/119/171
s 18
f 73/120/172 69/121/173 76/119/174 77/118/175
s 17
f 70/111/161 68/116/168 76/119/171 75/112/162
s 18
f 69/121/173 71/114/164 75/112/167 76/119/174
s 17
f 72/117/169 66/122/176 77/118/170
s 18
f 66/122/177 73/120/172 77/118/175
s 20
f 78/123/178 79/124/179 98/125/180 99/126/181
s 21
f 79/124/182 80/127/183 97/128/184 98/125/185
s 22
f 80/127/186 78/129/187 99/130/188 97/128/189
s off
f 87/131/190 88/132/191 89/133/192
f 88/132/193 90/134/194 89/133/195
f 90/134/196 87/131/197 89/133/198
f 81/135/199 82/136/200 85/137/201 84/138/202
f 82/136/203 83/139/204 86/140/205 85/137/206
f 83/139/207 81/135/208 84/138/209 86/140/210
f 84/138/211 85/137/212 88/132/213 87/131/214
f 85/137/215 86/140/216 90/134/217 88/132/218
f 86/140/219 84/138/220 87/131/221 90/134/222
s 21
f 92/141/223 91/142/224 100/143/225 101/144/226
s 20
f 93/145/227 92/141/228 101/144/229 102/146/230
s 22
f 91/142/231 93/147/232 102/148/233 100/143/234
s 21
f 95/149/235 94/150/236 83/151/237 82/152/238
s 20
f 96/153/239 95/149/240 82/152/241 81/154/242
s 22
f 94/150/243 96/155/244 81/156/245 83/151/246
s 21
f 98/125/185 97/128/184 91/142/224 92/141/223
s 20
f 99/126/181 98/125/180 92/141/228 93/145/227
s 22
f 97/128/189 99/130/188 93/147/232 91/142/231
s 21
f 101/144/226 100/143/225 94/150/236 95/149/235
s 20
f 102/146/230 101/144/229 95/149/240 96/153/239
s 22
f 100/143/234 102/148/233 96/155/244 94/150/243
