# This file uses centimeters as units for non-parametric coordinates.

v 0.234512 -0.327761 -0.545948
v -0.432518 -0.327761 -0.545813
v -0.747562 -0.327761 -0.000567
v -0.418085 -0.327761 0.545948
v 0.236742 -0.327761 0.545948
v 0.582938 -0.327761 0.000000
v -0.233332 0.868212 -0.502488
v -0.749108 0.868007 -0.518089
v -1.007780 0.870552 -0.114090
v -0.747484 0.868022 0.305163
v -0.231875 0.868212 0.320723
v 0.023582 0.868365 -0.083048
v -0.575166 1.899843 -0.550771
v -0.960343 1.755156 -0.550771
v -1.136432 1.648412 -0.178003
v -0.955061 1.746181 0.194765
v -0.572423 1.895816 0.194765
v -0.379978 1.962439 -0.178003
v -0.980022 2.511989 -0.376932
v -1.190612 2.225327 -0.396439
v -1.301151 2.079532 -0.122243
v -1.189803 2.217926 0.173809
v -0.983669 2.506748 0.193679
v -0.851713 2.665049 -0.075610
v -1.762898 2.871716 -0.138577
v -1.800308 2.595374 -0.145598
v -1.805849 2.469251 0.029337
v -1.776721 2.589903 0.219243
v -1.741196 2.852753 0.227791
v -1.701349 2.984036 0.049863
v -2.346077 2.930549 0.041980
v -2.384808 2.769390 0.050121
v -2.383495 2.721426 0.191429
v -2.369687 2.806345 0.328372
v -2.355569 2.928940 0.324158
v -2.317416 3.050899 0.180770
v -3.137582 3.294857 -0.094920
v -3.210505 3.204885 -0.066514
v -3.235129 3.169015 0.100458
v -3.204822 3.206902 0.228668
v -3.133596 3.300108 0.198237
v -3.098880 3.341159 0.036554
v -3.386393 3.798656 -0.327290
v -3.509066 3.810099 -0.319153
v -3.557996 3.799472 -0.185764
v -3.513535 3.799695 -0.045204
v -3.391165 3.811034 -0.046952
v -3.321352 3.805779 -0.192227
v -3.296772 4.217423 -0.302944
v -3.345932 4.251858 -0.307787
v -3.053961 4.611411 -0.320090
v -3.370057 4.273314 -0.253989
v -3.349393 4.256136 -0.192192
v -3.299284 4.221629 -0.188684
v -3.272043 4.201817 -0.244746
vt 0.983162 0.344851
vt 0.964548 0.433474
vt 0.792296 0.450762
vt 0.807723 0.379180
vt 0.958422 0.516550
vt 0.785935 0.515949
vt 0.975919 0.598595
vt 0.798463 0.581849
vt 0.994002 0.685021
vt 0.813959 0.652008
vt 0.984327 0.773757
vt 0.809625 0.310381
vt 0.120825 0.490580
vt 0.120067 0.499057
vt 0.056014 0.503817
vt 0.119699 0.508108
vt 0.120876 0.517807
vt 0.120675 0.526192
vt 0.120105 0.481213
vt 0.667790 0.455777
vt 0.666761 0.401665
vt 0.669737 0.514893
vt 0.664495 0.574953
vt 0.663162 0.631725
vt 0.659847 0.343658
vt 0.591974 0.465412
vt 0.576118 0.417153
vt 0.595196 0.514884
vt 0.584126 0.566863
vt 0.568225 0.614969
vt 0.556078 0.371150
vt 0.488464 0.488645
vt 0.469856 0.453382
vt 0.493288 0.518723
vt 0.482117 0.549350
vt 0.464087 0.583092
vt 0.456686 0.424563
vt 0.396870 0.499290
vt 0.390935 0.476373
vt 0.399046 0.519678
vt 0.393695 0.541300
vt 0.386862 0.557064
vt 0.384070 0.451050
vt 0.266191 0.494390
vt 0.263220 0.479501
vt 0.271369 0.516675
vt 0.273284 0.534845
vt 0.269137 0.549881
vt 0.267021 0.460217
vt 0.177707 0.493659
vt 0.179869 0.479056
vt 0.181681 0.511281
vt 0.185447 0.529348
vt 0.183559 0.543997
vt 0.182649 0.460854
vt 0.116913 0.534329
vt 0.173848 0.563675
vt 0.259953 0.571219
vt 0.380519 0.582688
vt 0.455367 0.612633
vt 0.557133 0.660573
vt 0.657163 0.690503
vt 0.809834 0.718488
vt 0.982879 0.255112
vn 0.013062 0.034027 -0.999336
vn 0.013062 0.034027 -0.999336
vn 0.013062 0.034027 -0.999336
vn 0.013062 0.034027 -0.999336
vn -0.835255 -0.219309 -0.504234
vn -0.835256 -0.219309 -0.504234
vn -0.835256 -0.219309 -0.504234
vn -0.835255 -0.219309 -0.504234
vn -0.846136 -0.131967 0.516370
vn -0.846136 -0.131967 0.516370
vn -0.846136 -0.131967 0.516370
vn -0.846136 -0.131967 0.516370
vn -0.013089 0.187018 0.982269
vn -0.013089 0.187018 0.982269
vn -0.013089 0.187018 0.982269
vn -0.013089 0.187018 0.982269
vn 0.775461 0.396562 0.491324
vn 0.775461 0.396562 0.491324
vn 0.775461 0.396562 0.491324
vn 0.775461 0.396562 0.491324
vn 0.798377 0.334548 -0.500671
vn 0.798377 0.334548 -0.500671
vn 0.798377 0.334548 -0.500671
vn 0.798377 0.334548 -0.500671
vn 0.487226 -0.335362 -0.806314
vn -0.387869 0.284974 -0.876554
vn 0.587667 0.808627 -0.027732
vn -0.731185 0.682138 -0.007500
vn -0.291939 0.529501 0.796493
vn 0.515018 -0.035414 0.856448
vn 0.885883 -0.456932 0.080155
vn 0.023014 -0.035525 -0.999104
vn 0.023014 -0.035525 -0.999104
vn -0.028151 0.051396 -0.998282
vn -0.024646 0.045443 -0.998663
vn -0.843059 -0.201038 -0.498834
vn -0.843059 -0.201038 -0.498834
vn -0.843034 -0.218479 -0.491489
vn -0.843018 -0.219936 -0.490866
vn -0.860442 -0.122642 0.494569
vn -0.860442 -0.122642 0.494569
vn -0.845460 -0.205056 0.493102
vn -0.847381 -0.196145 0.493429
vn -0.036014 0.112791 0.992966
vn -0.036014 0.112791 0.992966
vn -0.035385 0.077743 0.996345
vn -0.035345 0.075615 0.996511
vn 0.804030 0.333258 0.492417
vn 0.804030 0.333258 0.492417
vn 0.778804 0.373251 0.504130
vn 0.776594 0.376581 0.505063
vn 0.830226 0.257822 -0.494219
vn 0.830226 0.257822 -0.494219
vn 0.780763 0.371863 -0.502123
vn 0.782633 0.368102 -0.501983
vn -0.185404 0.190744 -0.963972
vn -0.196779 0.185133 -0.962810
vn -0.738947 -0.441059 -0.509337
vn -0.753127 -0.420097 -0.506280
vn -0.620184 -0.588903 0.518233
vn -0.663670 -0.544292 0.513116
vn -0.002252 -0.033237 0.999445
vn -0.007703 -0.027481 0.999593
vn 0.591361 0.571051 0.569380
vn 0.574574 0.584012 0.573406
vn 0.507830 0.680626 -0.528070
vn 0.464084 0.708219 -0.532026
vn -0.266157 0.126374 -0.955610
vn -0.271328 0.113995 -0.955713
vn -0.542136 -0.677820 -0.496638
vn -0.541729 -0.678278 -0.496456
vn -0.324294 -0.782067 0.532170
vn -0.362083 -0.768341 0.527777
vn 0.078839 -0.050554 0.995605
vn 0.061221 -0.054565 0.996632
vn 0.312238 0.726226 0.612456
vn 0.300838 0.728587 0.615351
vn 0.139230 0.826468 -0.545495
vn 0.131407 0.826905 -0.546773
vn -0.297415 0.049322 -0.953474
vn -0.297415 0.049322 -0.953474
vn -0.425546 -0.790342 -0.440762
vn -0.425546 -0.790342 -0.440762
vn -0.201838 -0.816905 0.540304
vn -0.201838 -0.816905 0.540304
vn 0.160229 -0.031730 0.986570
vn 0.160229 -0.031730 0.986570
vn 0.204003 0.744193 0.636050
vn 0.204003 0.744193 0.636050
vn -0.061206 0.821350 -0.567131
vn -0.061206 0.821350 -0.567131
vn 0.068298 -0.173346 -0.982490
vn 0.068298 -0.173346 -0.982490
vn 0.068298 -0.173346 -0.982490
vn 0.068298 -0.173346 -0.982490
vn -0.422768 -0.865879 -0.267435
vn -0.422768 -0.865879 -0.267435
vn -0.422768 -0.865879 -0.267435
vn -0.422768 -0.865879 -0.267435
vn -0.443086 -0.783086 0.436407
vn -0.443086 -0.783086 0.436407
vn -0.443086 -0.783086 0.436407
vn -0.443086 -0.783086 0.436407
vn -0.052107 0.178351 0.982586
vn -0.052107 0.178351 0.982586
vn -0.052107 0.178351 0.982586
vn -0.052107 0.178351 0.982586
vn 0.262260 0.823681 0.502761
vn 0.262260 0.823681 0.502761
vn 0.262260 0.823681 0.502761
vn 0.262260 0.823681 0.502761
vn 0.402638 0.730907 -0.551052
vn 0.402638 0.730907 -0.551052
vn 0.402638 0.730907 -0.551052
vn 0.402638 0.730907 -0.551052
vn -0.008585 -0.404229 -0.914617
vn -0.008585 -0.404229 -0.914617
vn -0.008585 -0.404229 -0.914617
vn -0.008585 -0.404229 -0.914617
vn -0.803922 -0.525635 -0.278240
vn -0.803922 -0.525635 -0.278240
vn -0.803922 -0.525635 -0.278240
vn -0.803922 -0.525635 -0.278240
vn -0.897204 -0.327683 0.296055
vn -0.897204 -0.327683 0.296055
vn -0.897204 -0.327683 0.296055
vn -0.897204 -0.327683 0.296055
vn -0.062882 0.398129 0.915172
vn -0.062882 0.398129 0.915172
vn -0.062882 0.398129 0.915172
vn -0.062882 0.398129 0.915172
vn 0.775275 0.540376 0.327020
vn 0.775275 0.540376 0.327020
vn 0.775275 0.540376 0.327020
vn 0.775275 0.540376 0.327020
vn 0.886273 0.243771 -0.393822
vn 0.886273 0.243771 -0.393822
vn 0.886273 0.243771 -0.393822
vn 0.886273 0.243771 -0.393822
vn -0.007494 0.043660 -0.999018
vn -0.007494 0.043660 -0.999018
vn -0.007494 0.043660 -0.999018
vn -0.007494 0.043660 -0.999018
vn -0.878068 0.314272 -0.360872
vn -0.878068 0.314272 -0.360872
vn -0.878069 0.314272 -0.360872
vn -0.878068 0.314272 -0.360872
vn -0.862805 0.398505 0.311066
vn -0.862804 0.398505 0.311066
vn -0.862805 0.398505 0.311066
vn -0.862805 0.398505 0.311066
vn 0.031581 0.307375 0.951064
vn 0.031581 0.307375 0.951064
vn 0.031581 0.307375 0.951064
vn 0.031581 0.307375 0.951064
vn 0.897098 -0.051345 0.438837
vn 0.897098 -0.051345 0.438838
vn 0.897098 -0.051345 0.438837
vn 0.897098 -0.051345 0.438838
vn 0.891450 -0.166568 -0.421394
vn 0.891450 -0.166568 -0.421394
vn 0.891450 -0.166568 -0.421394
vn 0.891450 -0.166568 -0.421394
s off
f 1/1/1 2/2/2 8/3/3 7/4/4
f 2/2/5 3/5/6 9/6/7 8/3/8
f 3/5/9 4/7/10 10/8/11 9/6/12
f 4/7/13 5/9/14 11/10/15 10/8/16
f 5/9/17 6/11/18 12/63/19 11/10/20
f 6/64/21 1/1/22 7/4/23 12/12/24
s 1
f 49/13/25 50/14/26 51/15/27
f 50/14/26 52/16/28 51/15/27
f 52/16/28 53/17/29 51/15/27
f 53/17/29 54/18/30 51/15/27
f 54/18/30 55/56/31 51/15/27
f 55/19/31 49/13/25 51/15/27
s 2
f 7/4/32 8/3/33 14/20/34 13/21/35
s 3
f 8/3/36 9/6/37 15/22/38 14/20/39
s 4
f 9/6/40 10/8/41 16/23/42 15/22/43
s 5
f 10/8/44 11/10/45 17/24/46 16/23/47
s 6
f 11/10/48 12/63/49 18/62/50 17/24/51
s 7
f 12/12/52 7/4/53 13/21/54 18/25/55
s 2
f 13/21/35 14/20/34 20/26/56 19/27/57
s 3
f 14/20/39 15/22/38 21/28/58 20/26/59
s 4
f 15/22/43 16/23/42 22/29/60 21/28/61
s 5
f 16/23/47 17/24/46 23/30/62 22/29/63
s 6
f 17/24/51 18/62/50 24/61/64 23/30/65
s 7
f 18/25/55 13/21/54 19/27/66 24/31/67
s 2
f 19/27/57 20/26/56 26/32/68 25/33/69
s 3
f 20/26/59 21/28/58 27/34/70 26/32/71
s 4
f 21/28/61 22/29/60 28/35/72 27/34/73
s 5
f 22/29/63 23/30/62 29/36/74 28/35/75
s 6
f 23/30/65 24/61/64 30/60/76 29/36/77
s 7
f 24/31/67 19/27/66 25/33/78 30/37/79
s 2
f 25/33/69 26/32/68 32/38/80 31/39/81
s 3
f 26/32/71 27/34/70 33/40/82 32/38/83
s 4
f 27/34/73 28/35/72 34/41/84 33/40/85
s 5
f 28/35/75 29/36/74 35/42/86 34/41/87
s 6
f 29/36/77 30/60/76 36/59/88 35/42/89
s 7
f 30/37/79 25/33/78 31/39/90 36/43/91
s off
f 31/39/92 32/38/93 38/44/94 37/45/95
f 32/38/96 33/40/97 39/46/98 38/44/99
f 33/40/100 34/41/101 40/47/102 39/46/103
f 34/41/104 35/42/105 41/48/106 40/47/107
f 35/42/108 36/59/109 42/58/110 41/48/111
f 36/43/112 31/39/113 37/45/114 42/49/115
f 37/45/116 38/44/117 44/50/118 43/51/119
f 38/44/120 39/46/121 45/52/122 44/50/123
f 39/46/124 40/47/125 46/53/126 45/52/127
f 40/47/128 41/48/129 47/54/130 46/53/131
f 41/48/132 42/58/133 48/57/134 47/54/135
f 42/49/136 37/45/137 43/51/138 48/55/139
f 43/51/140 44/50/141 50/14/142 49/13/143
f 44/50/144 45/52/145 52/16/146 50/14/147
f 45/52/148 46/53/149 53/17/150 52/16/151
f 46/53/152 47/54/153 54/18/154 53/17/155
f 47/54/156 48/57/157 55/56/158 54/18/159
f 48/55/160 43/51/161 49/13/162 55/19/163
