# This file uses centimeters as units for non-parametric coordinates.

v 0.237776 -0.327760 -0.411840
v -0.237518 -0.327760 -0.411739
v -0.475174 -0.327760 -0.000427
v -0.237776 -0.327760 0.411840
v 0.237776 -0.327760 0.411840
v 0.475553 -0.327760 -0.000000
v 0.335902 0.875244 -0.502488
v -0.122404 0.875244 -0.518089
v -0.352257 0.875244 -0.114090
v -0.123493 0.875244 0.305163
v 0.334707 0.875244 0.320723
v 0.564389 0.875244 -0.083048
v 0.242888 1.958117 -0.550771
v -0.170969 1.840430 -0.550771
v -0.377898 1.781586 -0.178003
v -0.170969 1.840430 0.194765
v 0.242888 1.958117 0.194765
v 0.449817 2.016960 -0.178003
v -0.417197 2.912096 -0.224547
v -0.626483 2.672879 -0.244053
v -0.729925 2.546826 0.030142
v -0.624725 2.664486 0.326194
v -0.414515 2.907619 0.346064
v -0.311825 3.033380 0.076775
v -1.368007 3.245317 0.118583
v -1.422398 3.036499 0.111562
v -1.451820 2.929097 0.286497
v -1.426263 3.027633 0.476403
v -1.369217 3.240448 0.484951
v -1.341330 3.344446 0.307023
v -2.370658 3.138459 0.045016
v -2.368398 3.015217 0.051497
v -2.361040 2.958628 0.183290
v -2.367001 3.016735 0.307078
v -2.374812 3.133592 0.295500
v -2.373295 3.196465 0.166169
v -3.147127 3.288833 -0.042432
v -3.196393 3.228049 -0.023242
v -3.213029 3.203816 0.089563
v -3.192554 3.229412 0.176180
v -3.144434 3.292381 0.155622
v -3.120980 3.320114 0.046390
v -3.437006 3.811658 -0.196143
v -3.492987 3.828655 -0.198737
v -3.520452 3.836612 -0.149072
v -3.494294 3.823544 -0.087017
v -3.436103 3.810871 -0.083009
v -3.407344 3.805946 -0.139152
v -3.300036 4.210762 -0.283000
v -3.338193 4.245236 -0.289808
v -3.053961 4.618289 -0.320090
v -3.356763 4.263666 -0.250097
v -3.339634 4.241860 -0.201114
v -3.301107 4.208250 -0.196313
v -3.280934 4.193579 -0.237828
vt 0.020496 0.914944
vt 0.019042 0.857653
vt 0.172816 0.860495
vt 0.169756 0.917683
vt 0.013482 0.801904
vt 0.171099 0.803295
vt 0.010735 0.745240
vt 0.166898 0.744327
vt 0.014061 0.688111
vt 0.165442 0.687990
vt 0.018147 0.629163
vt 0.164519 0.977925
vt 0.895400 0.816333
vt 0.896706 0.809965
vt 0.956217 0.804712
vt 0.896619 0.803996
vt 0.894369 0.797291
vt 0.893262 0.790955
vt 0.894272 0.822769
vt 0.295483 0.859278
vt 0.295696 0.913767
vt 0.297024 0.803535
vt 0.297716 0.748087
vt 0.297945 0.692243
vt 0.300165 0.967921
vt 0.417865 0.847417
vt 0.425719 0.886076
vt 0.418536 0.805684
vt 0.424147 0.760767
vt 0.431764 0.721742
vt 0.439616 0.926833
vt 0.534141 0.829874
vt 0.537598 0.855891
vt 0.536875 0.803912
vt 0.541210 0.776443
vt 0.544039 0.749926
vt 0.546813 0.881403
vt 0.656541 0.819647
vt 0.660118 0.834422
vt 0.654711 0.802261
vt 0.657295 0.785639
vt 0.661346 0.771760
vt 0.664331 0.850960
vt 0.762420 0.815304
vt 0.763152 0.824160
vt 0.759371 0.801682
vt 0.757473 0.790558
vt 0.758779 0.781661
vt 0.761896 0.836209
vt 0.843187 0.810828
vt 0.840362 0.816962
vt 0.842660 0.803747
vt 0.839143 0.796304
vt 0.836845 0.789847
vt 0.837966 0.824540
vt 0.894855 0.785107
vt 0.838947 0.782127
vt 0.763955 0.768614
vt 0.665664 0.754387
vt 0.547820 0.724474
vt 0.439693 0.683134
vt 0.302708 0.637486
vt 0.167975 0.630007
vt 0.015639 0.974398
vn 0.016543 -0.083049 -0.996408
vn 0.016543 -0.083049 -0.996408
vn 0.016543 -0.083049 -0.996408
vn 0.016543 -0.083049 -0.996408
vn -0.866796 0.040304 -0.497032
vn -0.866796 0.040304 -0.497032
vn -0.866796 0.040304 -0.497032
vn -0.866796 0.040304 -0.497032
vn -0.864913 0.129674 0.484882
vn -0.864913 0.129674 0.484882
vn -0.864913 0.129674 0.484882
vn -0.864913 0.129674 0.484882
vn -0.016603 0.083369 0.996380
vn -0.016603 0.083369 0.996380
vn -0.016603 0.083369 0.996380
vn -0.016603 0.083369 0.996380
vn 0.867187 -0.030977 0.497018
vn 0.867187 -0.030977 0.497018
vn 0.867187 -0.030977 0.497018
vn 0.867187 -0.030977 0.497018
vn 0.867574 -0.102546 -0.486620
vn 0.867574 -0.102546 -0.486620
vn 0.867574 -0.102546 -0.486620
vn 0.867574 -0.102546 -0.486620
vn 0.485159 -0.365260 -0.794484
vn -0.336003 0.180976 -0.924311
vn 0.545658 0.837996 -0.004472
vn -0.751941 0.655634 0.068762
vn -0.244229 0.455862 0.855886
vn 0.506916 -0.045695 0.860784
vn 0.885242 -0.460738 0.063778
vn 0.022985 -0.037905 -0.999017
vn 0.022985 -0.037905 -0.999017
vn -0.044553 0.103657 -0.993615
vn -0.041412 0.097079 -0.994415
vn -0.868141 -0.059851 -0.492697
vn -0.868141 -0.059851 -0.492697
vn -0.858240 -0.157034 -0.488636
vn -0.859962 -0.144700 -0.489415
vn -0.876461 0.010591 0.481357
vn -0.876461 0.010591 0.481357
vn -0.843367 -0.213774 0.492983
vn -0.847642 -0.196127 0.492989
vn -0.032885 0.112374 0.993122
vn -0.032885 0.112374 0.993122
vn 0.000184 0.007833 0.999969
vn 0.002117 0.001719 0.999996
vn 0.860205 0.128805 0.493413
vn 0.860205 0.128805 0.493413
vn 0.824254 0.268536 0.498492
vn 0.819216 0.283667 0.498415
vn 0.873659 0.050365 -0.483924
vn 0.873659 0.050365 -0.483924
vn 0.806931 0.319931 -0.496494
vn 0.801596 0.333682 -0.496086
vn -0.184043 0.248705 -0.950933
vn -0.183730 0.248782 -0.950974
vn -0.725468 -0.464384 -0.507981
vn -0.765152 -0.404142 -0.501210
vn -0.558193 -0.673927 0.483988
vn -0.615264 -0.622142 0.484138
vn 0.069537 -0.129206 0.989177
vn 0.070146 -0.129176 0.989138
vn 0.648646 0.564623 0.510352
vn 0.607709 0.604929 0.514539
vn 0.510029 0.719184 -0.471852
vn 0.456008 0.754754 -0.471597
vn -0.147458 0.133593 -0.980005
vn -0.169212 0.147804 -0.974434
vn -0.292481 -0.805525 -0.515349
vn -0.338116 -0.786315 -0.517095
vn -0.206629 -0.866559 0.454291
vn -0.209390 -0.865886 0.454310
vn 0.010967 -0.071992 0.997345
vn -0.008403 -0.061331 0.998082
vn 0.158653 0.848087 0.505547
vn 0.129320 0.854212 0.503586
vn 0.079232 0.891632 -0.445775
vn 0.081208 0.891499 -0.445684
vn 0.069016 -0.009209 -0.997573
vn 0.069016 -0.009209 -0.997573
vn 0.037357 -0.882371 -0.469068
vn 0.037357 -0.882371 -0.469068
vn -0.075147 -0.890246 0.449238
vn -0.075147 -0.890246 0.449238
vn -0.183289 0.036403 0.982385
vn -0.183289 0.036403 0.982385
vn -0.182822 0.871187 0.455642
vn -0.182822 0.871187 0.455642
vn -0.064531 0.891871 -0.447662
vn -0.064531 0.891871 -0.447662
vn 0.064783 -0.154083 -0.985932
vn 0.064783 -0.154083 -0.985932
vn 0.064783 -0.154083 -0.985932
vn 0.064783 -0.154083 -0.985932
vn -0.220373 -0.923643 -0.313560
vn -0.220373 -0.923643 -0.313560
vn -0.220373 -0.923643 -0.313560
vn -0.220373 -0.923643 -0.313560
vn -0.290422 -0.882076 0.370941
vn -0.290422 -0.882076 0.370941
vn -0.290422 -0.882076 0.370941
vn -0.290422 -0.882076 0.370941
vn -0.118430 0.200349 0.972540
vn -0.118430 0.200349 0.972540
vn -0.118430 0.200349 0.972540
vn -0.118430 0.200349 0.972540
vn 0.110125 0.925280 0.362946
vn 0.110125 0.925280 0.362946
vn 0.110125 0.925280 0.362946
vn 0.110125 0.925280 0.362946
vn 0.214712 0.889903 -0.402457
vn 0.214712 0.889903 -0.402457
vn 0.214712 0.889903 -0.402457
vn 0.214712 0.889903 -0.402457
vn -0.028082 -0.294573 -0.955216
vn -0.028082 -0.294573 -0.955216
vn -0.028082 -0.294573 -0.955216
vn -0.028082 -0.294573 -0.955216
vn -0.824425 -0.495542 -0.273427
vn -0.824425 -0.495542 -0.273427
vn -0.824425 -0.495542 -0.273427
vn -0.824425 -0.495542 -0.273427
vn -0.896297 -0.319021 0.308022
vn -0.896297 -0.319021 0.308022
vn -0.896297 -0.319021 0.308022
vn -0.896297 -0.319021 0.308022
vn -0.042349 0.391923 0.919023
vn -0.042349 0.391923 0.919023
vn -0.042349 0.391922 0.919023
vn -0.042349 0.391922 0.919023
vn 0.757523 0.570220 0.317819
vn 0.757523 0.570220 0.317819
vn 0.757523 0.570220 0.317819
vn 0.757523 0.570220 0.317819
vn 0.850452 0.355420 -0.387825
vn 0.850452 0.355420 -0.387825
vn 0.850452 0.355420 -0.387825
vn 0.850452 0.355420 -0.387825
vn -0.015869 -0.207673 -0.978070
vn -0.015869 -0.207673 -0.978070
vn -0.015869 -0.207673 -0.978070
vn -0.015869 -0.207673 -0.978070
vn -0.843919 0.205780 -0.495434
vn -0.843919 0.205780 -0.495434
vn -0.843919 0.205780 -0.495434
vn -0.843919 0.205780 -0.495434
vn -0.797478 0.412386 0.440418
vn -0.797477 0.412386 0.440418
vn -0.797478 0.412386 0.440418
vn -0.797478 0.412386 0.440418
vn 0.034936 0.256847 0.965820
vn 0.034936 0.256847 0.965820
vn 0.034936 0.256847 0.965820
vn 0.034936 0.256847 0.965820
vn 0.868628 -0.162893 0.467923
vn 0.868628 -0.162893 0.467923
vn 0.868628 -0.162893 0.467923
vn 0.868628 -0.162893 0.467923
vn 0.799838 -0.377759 -0.466430
vn 0.799838 -0.377759 -0.466430
vn 0.799838 -0.377759 -0.466430
vn 0.799838 -0.377759 -0.466430
s off
f 1/1/1 2/2/2 8/3/3 7/4/4
f 2/2/5 3/5/6 9/6/7 8/3/8
f 3/5/9 4/7/10 10/8/11 9/6/12
f 4/7/13 5/9/14 11/10/15 10/8/16
f 5/9/17 6/11/18 12/63/19 11/10/20
f 6/64/21 1/1/22 7/4/23 12/12/24
s 1
f 49/13/25 50/14/26 51/15/27
f 50/14/26 52/16/28 51/15/27
f 52/16/28 53/17/29 51/15/27
f 53/17/29 54/18/30 51/15/27
f 54/18/30 55/56/31 51/15/27
f 55/19/31 49/13/25 51/15/27
s 2
f 7/4/32 8/3/33 14/20/34 13/21/35
s 3
f 8/3/36 9/6/37 15/22/38 14/20/39
s 4
f 9/6/40 10/8/41 16/23/42 15/22/43
s 5
f 10/8/44 11/10/45 17/24/46 16/23/47
s 6
f 11/10/48 12/63/49 18/62/50 17/24/51
s 7
f 12/12/52 7/4/53 13/21/54 18/25/55
s 2
f 13/21/35 14/20/34 20/26/56 19/27/57
s 3
f 14/20/39 15/22/38 21/28/58 20/26/59
s 4
f 15/22/43 16/23/42 22/29/60 21/28/61
s 5
f 16/23/47 17/24/46 23/30/62 22/29/63
s 6
f 17/24/51 18/62/50 24/61/64 23/30/65
s 7
f 18/25/55 13/21/54 19/27/66 24/31/67
s 2
f 19/27/57 20/26/56 26/32/68 25/33/69
s 3
f 20/26/59 21/28/58 27/34/70 26/32/71
s 4
f 21/28/61 22/29/60 28/35/72 27/34/73
s 5
f 22/29/63 23/30/62 29/36/74 28/35/75
s 6
f 23/30/65 24/61/64 30/60/76 29/36/77
s 7
f 24/31/67 19/27/66 25/33/78 30/37/79
s 2
f 25/33/69 26/32/68 32/38/80 31/39/81
s 3
f 26/32/71 27/34/70 33/40/82 32/38/83
s 4
f 27/34/73 28/35/72 34/41/84 33/40/85
s 5
f 28/35/75 29/36/74 35/42/86 34/41/87
s 6
f 29/36/77 30/60/76 36/59/88 35/42/89
s 7
f 30/37/79 25/33/78 31/39/90 36/43/91
s off
f 31/39/92 32/38/93 38/44/94 37/45/95
f 32/38/96 33/40/97 39/46/98 38/44/99
f 33/40/100 34/41/101 40/47/102 39/46/103
f 34/41/104 35/42/105 41/48/106 40/47/107
f 35/42/108 36/59/109 42/58/110 41/48/111
f 36/43/112 31/39/113 37/45/114 42/49/115
f 37/45/116 38/44/117 44/50/118 43/51/119
f 38/44/120 39/46/121 45/52/122 44/50/123
f 39/46/124 40/47/125 46/53/126 45/52/127
f 40/47/128 41/48/129 47/54/130 46/53/131
f 41/48/132 42/58/133 48/57/134 47/54/135
f 42/49/136 37/45/137 43/51/138 48/55/139
f 43/51/140 44/50/141 50/14/142 49/13/143
f 44/50/144 45/52/145 52/16/146 50/14/147
f 45/52/148 46/53/149 53/17/150 52/16/151
f 46/53/152 47/54/153 54/18/154 53/17/155
f 47/54/156 48/57/157 55/56/158 54/18/159
f 48/55/160 43/51/161 49/13/162 55/19/163
