# This file uses centimeters as units for non-parametric coordinates.

v 0.301768 -0.293196 -0.522677
v -0.301768 -0.293196 -0.522677
v -0.603536 -0.293196 -0.000731
v -0.301768 -0.293196 0.522677
v 0.301768 -0.293196 0.522677
v 0.603536 -0.293196 0.000000
v 0.301768 1.299624 -0.686728
v -0.301768 1.299624 -0.715142
v -0.603536 1.299624 -0.206374
v -0.301768 1.299624 0.330212
v 0.301768 1.299624 0.358626
v 0.603536 1.299624 -0.149767
v 0.000000 -0.293196 0.000000
v 0.062430 2.681167 -0.795738
v -0.462807 2.531020 -0.795738
v -0.725425 2.455947 -0.322649
v -0.462807 2.531020 0.150440
v 0.062430 2.681167 0.150440
v 0.325049 2.756240 -0.322649
v -0.652605 3.908920 -0.526829
v -0.947084 3.613207 -0.562947
v -1.094324 3.465350 -0.221239
v -0.947084 3.613206 0.159890
v -0.652605 3.908920 0.196007
v -0.505365 4.056777 -0.139099
v -1.747448 4.631889 -0.187332
v -1.830165 4.376563 -0.203325
v -1.871524 4.248899 0.017053
v -1.830165 4.376562 0.262037
v -1.747448 4.631889 0.277886
v -1.706090 4.759553 0.055441
v -2.923639 4.804433 0.074235
v -2.937150 4.618156 0.066141
v -2.943905 4.525015 0.221437
v -2.937150 4.618154 0.389634
v -2.923639 4.804434 0.397728
v -2.916884 4.897573 0.240556
v -3.686155 5.049593 0.164866
v -3.757317 4.924658 0.164866
v -3.792899 4.862188 0.289387
v -3.757318 4.924656 0.413906
v -3.686155 5.049594 0.413905
v -3.650573 5.112062 0.289386
v -4.065210 5.592006 0.184490
v -4.141829 5.565413 0.178869
v -4.180139 5.552115 0.240267
v -4.141829 5.565412 0.319344
v -4.065210 5.592006 0.324965
v -4.026900 5.605303 0.256550
v -4.072641 6.046329 0.145054
v -4.134398 6.058426 0.138652
v -3.988201 6.545508 0.121486
v -4.165278 6.064475 0.189735
v -4.134399 6.058426 0.249607
v -4.072641 6.046329 0.254055
v -4.041761 6.040280 0.201255
vt 0.578125 0.020934
vt 0.421875 0.020934
vt 0.343750 0.156250
vt 0.421875 0.291566
vt 0.578125 0.291566
vt 0.656250 0.156250
vt 0.375000 0.312500
vt 0.416667 0.312500
vt 0.458333 0.312500
vt 0.500000 0.312500
vt 0.541667 0.312500
vt 0.583333 0.312500
vt 0.625000 0.312500
vt 0.375000 0.688440
vt 0.416667 0.688440
vt 0.458333 0.688440
vt 0.500000 0.688440
vt 0.541667 0.688440
vt 0.583333 0.688440
vt 0.625000 0.688440
vt 0.578125 0.708434
vt 0.421875 0.708434
vt 0.343750 0.843750
vt 0.421875 0.979066
vt 0.578125 0.979066
vt 0.656250 0.843750
vt 0.500000 0.150000
vt 0.500000 0.837500
vt 0.578125 0.979066
vt 0.421875 0.979066
vt 0.343750 0.843750
vt 0.421875 0.708434
vt 0.578125 0.708434
vt 0.656250 0.843750
vt 0.578125 0.979066
vt 0.421875 0.979066
vt 0.343750 0.843750
vt 0.421875 0.708434
vt 0.578125 0.708434
vt 0.656250 0.843750
vt 0.578125 0.979066
vt 0.421875 0.979066
vt 0.343750 0.843750
vt 0.421875 0.708434
vt 0.578125 0.708434
vt 0.656250 0.843750
vt 0.578125 0.979066
vt 0.421875 0.979066
vt 0.343750 0.843750
vt 0.421875 0.708434
vt 0.578125 0.708434
vt 0.656250 0.843750
vt 0.578125 0.979066
vt 0.421875 0.979066
vt 0.343750 0.843750
vt 0.421875 0.708434
vt 0.578125 0.708434
vt 0.656250 0.843750
vt 0.578125 0.979066
vt 0.421875 0.979066
vt 0.343750 0.843750
vt 0.421875 0.708434
vt 0.578125 0.708434
vt 0.656250 0.843750
vt 0.578125 0.979066
vt 0.421875 0.979066
vt 0.343750 0.843750
vt 0.421875 0.708434
vt 0.578125 0.708434
vt 0.656250 0.843750
vn 0.023387 -0.111189 -0.993524
vn 0.023387 -0.111189 -0.993524
vn 0.023387 -0.111189 -0.993524
vn 0.023387 -0.111189 -0.993524
vn -0.861229 -0.063021 -0.504294
vn -0.861229 -0.063021 -0.504294
vn -0.861229 -0.063021 -0.504294
vn -0.861229 -0.063021 -0.504294
vn -0.867354 0.061716 0.493851
vn -0.867354 0.061716 0.493851
vn -0.867354 0.061716 0.493850
vn -0.867354 0.061716 0.493851
vn -0.023387 0.111189 0.993524
vn -0.023387 0.111189 0.993524
vn -0.023387 0.111189 0.993524
vn -0.023387 0.111189 0.993524
vn 0.861954 0.049703 0.504544
vn 0.861954 0.049703 0.504544
vn 0.861954 0.049703 0.504544
vn 0.861954 0.049703 0.504544
vn 0.867908 -0.048697 -0.494332
vn 0.867908 -0.048697 -0.494332
vn 0.867908 -0.048697 -0.494332
vn 0.867908 -0.048697 -0.494332
vn 0.000000 -1.000000 0.000000
vn 0.000000 -1.000000 0.000000
vn 0.000000 -1.000000 0.000000
vn 0.000000 -1.000000 0.000000
vn 0.000000 -1.000000 0.000000
vn 0.000000 -1.000000 -0.000000
vn 0.000000 -1.000000 -0.000000
vn 0.548824 -0.131810 -0.825481
vn -0.447650 0.103058 -0.888250
vn 0.161308 0.986718 -0.019150
vn -0.935438 0.350673 0.044542
vn -0.470212 0.353809 0.808529
vn 0.450815 0.157094 0.878685
vn 0.993964 -0.097407 0.050468
vn 0.034033 -0.067144 -0.997163
vn 0.034033 -0.067144 -0.997163
vn -0.006785 0.045969 -0.998920
vn -0.004667 0.040110 -0.999184
vn -0.853387 -0.142464 -0.501433
vn -0.853387 -0.142464 -0.501433
vn -0.845605 -0.193954 -0.497327
vn -0.845837 -0.192617 -0.497452
vn -0.870753 -0.042439 0.489887
vn -0.870753 -0.042439 0.489887
vn -0.853269 -0.175665 0.490992
vn -0.852608 -0.179092 0.490902
vn -0.043548 0.140194 0.989166
vn -0.043548 0.140194 0.989166
vn -0.035594 0.066486 0.997152
vn -0.035120 0.062138 0.997449
vn 0.838304 0.219931 0.498876
vn 0.838304 0.219931 0.498876
vn 0.807833 0.308576 0.502183
vn 0.806732 0.311388 0.502216
vn 0.864300 0.108921 -0.491041
vn 0.864300 0.108921 -0.491041
vn 0.813345 0.306012 -0.494800
vn 0.814963 0.301430 -0.494950
vn -0.101580 0.194928 -0.975543
vn -0.109295 0.196818 -0.974329
vn -0.778158 -0.383291 -0.497552
vn -0.785515 -0.368612 -0.497083
vn -0.702900 -0.520139 0.485167
vn -0.729466 -0.482190 0.485152
vn -0.008016 -0.064600 0.997879
vn -0.010064 -0.061040 0.998085
vn 0.678228 0.525678 0.513488
vn 0.666707 0.539173 0.514581
vn 0.613621 0.626934 -0.480024
vn 0.583543 0.654970 -0.480096
vn -0.189515 0.174097 -0.966320
vn -0.191386 0.166875 -0.967225
vn -0.538629 -0.667219 -0.514488
vn -0.564068 -0.647597 -0.512294
vn -0.370337 -0.791408 0.486336
vn -0.423036 -0.766247 0.483637
vn 0.047117 -0.091808 0.994661
vn 0.042342 -0.093568 0.994712
vn 0.393035 0.758226 0.520209
vn 0.376984 0.766102 0.520549
vn 0.279729 0.834321 -0.475037
vn 0.242155 0.844657 -0.477406
vn -0.208453 0.098500 -0.973060
vn -0.208453 0.098500 -0.973060
vn -0.302288 -0.804365 -0.511487
vn -0.302288 -0.804365 -0.511487
vn -0.133109 -0.867590 0.479134
vn -0.133109 -0.867590 0.479134
vn 0.094110 -0.074333 0.992783
vn 0.094110 -0.074333 0.992783
vn 0.174810 0.841313 0.511502
vn 0.174810 0.841313 0.511502
vn 0.025017 0.878493 -0.477100
vn 0.025017 0.878493 -0.477100
vn -0.100346 0.053141 -0.993532
vn -0.100346 0.053141 -0.993532
vn -0.100346 0.053141 -0.993532
vn -0.100346 0.053141 -0.993533
vn -0.355243 -0.793082 -0.494797
vn -0.355243 -0.793082 -0.494797
vn -0.355243 -0.793082 -0.494797
vn -0.355243 -0.793082 -0.494797
vn -0.292056 -0.826341 0.481522
vn -0.292056 -0.826341 0.481522
vn -0.292056 -0.826341 0.481522
vn -0.292056 -0.826341 0.481522
vn 0.015056 -0.030087 0.999434
vn 0.015056 -0.030087 0.999434
vn 0.015056 -0.030087 0.999434
vn 0.015056 -0.030087 0.999434
vn 0.274585 0.823619 0.496241
vn 0.274584 0.823619 0.496241
vn 0.274585 0.823619 0.496241
vn 0.274585 0.823619 0.496241
vn 0.215224 0.847689 -0.484873
vn 0.215224 0.847689 -0.484873
vn 0.215224 0.847689 -0.484873
vn 0.215224 0.847689 -0.484873
vn 0.005348 0.031858 -0.999478
vn 0.005348 0.031858 -0.999478
vn 0.005348 0.031858 -0.999478
vn 0.005348 0.031858 -0.999478
vn -0.752341 -0.449053 -0.482011
vn -0.752341 -0.449053 -0.482011
vn -0.752341 -0.449053 -0.482011
vn -0.752341 -0.449053 -0.482011
vn -0.795592 -0.413620 0.442664
vn -0.795592 -0.413620 0.442664
vn -0.795592 -0.413620 0.442664
vn -0.795592 -0.413620 0.442664
vn -0.117405 0.077780 0.990034
vn -0.117405 0.077780 0.990034
vn -0.117405 0.077780 0.990033
vn -0.117405 0.077780 0.990034
vn 0.681720 0.553489 0.478443
vn 0.681720 0.553489 0.478443
vn 0.681720 0.553489 0.478443
vn 0.681720 0.553489 0.478443
vn 0.716605 0.516699 -0.468507
vn 0.716605 0.516699 -0.468507
vn 0.716605 0.516699 -0.468507
vn 0.716605 0.516699 -0.468507
vn 0.094929 -0.083407 -0.991984
vn 0.094929 -0.083407 -0.991984
vn 0.094929 -0.083407 -0.991984
vn 0.094929 -0.083407 -0.991984
vn -0.850587 -0.028535 -0.525059
vn -0.850587 -0.028535 -0.525059
vn -0.850587 -0.028535 -0.525059
vn -0.850587 -0.028535 -0.525059
vn -0.894305 0.072647 0.441521
vn -0.894305 0.072647 0.441521
vn -0.894305 0.072647 0.441521
vn -0.894305 0.072647 0.441521
vn -0.087026 0.146298 0.985405
vn -0.087026 0.146298 0.985405
vn -0.087026 0.146298 0.985405
vn -0.087026 0.146298 0.985405
vn 0.862390 0.092259 0.497766
vn 0.862390 0.092259 0.497766
vn 0.862390 0.092259 0.497766
vn 0.862390 0.092259 0.497766
vn 0.880426 -0.028353 -0.473335
vn 0.880426 -0.028353 -0.473335
vn 0.880426 -0.028353 -0.473335
vn 0.880426 -0.028353 -0.473335
s off
f 1/7/1 2/8/2 8/15/3 7/14/4
f 2/8/5 3/9/6 9/16/7 8/15/8
f 3/9/9 4/10/10 10/17/11 9/16/12
f 4/10/13 5/11/14 11/18/15 10/17/16
f 5/11/17 6/12/18 12/19/19 11/18/20
f 6/12/21 1/13/22 7/20/23 12/19/24
s 1
f 2/2/25 1/1/26 13/27/27
f 3/3/28 2/2/25 13/27/27
f 4/4/29 3/3/28 13/27/27
f 5/5/30 4/4/29 13/27/27
f 6/6/31 5/5/30 13/27/27
f 1/1/26 6/6/31 13/27/27
s 2
f 50/65/32 51/66/33 52/28/34
f 51/66/33 53/67/35 52/28/34
f 53/67/35 54/68/36 52/28/34
f 54/68/36 55/69/37 52/28/34
f 55/69/37 56/70/38 52/28/34
f 56/70/38 50/65/32 52/28/34
s 3
f 7/25/39 8/24/40 15/30/41 14/29/42
s 4
f 8/24/43 9/23/44 16/31/45 15/30/46
s 5
f 9/23/47 10/22/48 17/32/49 16/31/50
s 6
f 10/22/51 11/21/52 18/33/53 17/32/54
s 7
f 11/21/55 12/26/56 19/34/57 18/33/58
s 8
f 12/26/59 7/25/60 14/29/61 19/34/62
s 3
f 14/29/42 15/30/41 21/36/63 20/35/64
s 4
f 15/30/46 16/31/45 22/37/65 21/36/66
s 5
f 16/31/50 17/32/49 23/38/67 22/37/68
s 6
f 17/32/54 18/33/53 24/39/69 23/38/70
s 7
f 18/33/58 19/34/57 25/40/71 24/39/72
s 8
f 19/34/62 14/29/61 20/35/73 25/40/74
s 3
f 20/35/64 21/36/63 27/42/75 26/41/76
s 4
f 21/36/66 22/37/65 28/43/77 27/42/78
s 5
f 22/37/68 23/38/67 29/44/79 28/43/80
s 6
f 23/38/70 24/39/69 30/45/81 29/44/82
s 7
f 24/39/72 25/40/71 31/46/83 30/45/84
s 8
f 25/40/74 20/35/73 26/41/85 31/46/86
s 3
f 26/41/76 27/42/75 33/48/87 32/47/88
s 4
f 27/42/78 28/43/77 34/49/89 33/48/90
s 5
f 28/43/80 29/44/79 35/50/91 34/49/92
s 6
f 29/44/82 30/45/81 36/51/93 35/50/94
s 7
f 30/45/84 31/46/83 37/52/95 36/51/96
s 8
f 31/46/86 26/41/85 32/47/97 37/52/98
s off
f 32/47/99 33/48/100 39/54/101 38/53/102
f 33/48/103 34/49/104 40/55/105 39/54/106
f 34/49/107 35/50/108 41/56/109 40/55/110
f 35/50/111 36/51/112 42/57/113 41/56/114
f 36/51/115 37/52/116 43/58/117 42/57/118
f 37/52/119 32/47/120 38/53/121 43/58/122
f 38/53/123 39/54/124 45/60/125 44/59/126
f 39/54/127 40/55/128 46/61/129 45/60/130
f 40/55/131 41/56/132 47/62/133 46/61/134
f 41/56/135 42/57/136 48/63/137 47/62/138
f 42/57/139 43/58/140 49/64/141 48/63/142
f 43/58/143 38/53/144 44/59/145 49/64/146
f 44/59/147 45/60/148 51/66/149 50/65/150
f 45/60/151 46/61/152 53/67/153 51/66/154
f 46/61/155 47/62/156 54/68/157 53/67/158
f 47/62/159 48/63/160 55/69/161 54/68/162
f 48/63/163 49/64/164 56/70/165 55/69/166
f 49/64/167 44/59/168 50/65/169 56/70/170
