# This file uses centimeters as units for non-parametric coordinates.

v 0.739203 0.808042 0.774958
v 0.775441 0.937600 -1.395053
v 0.660486 1.214682 0.577469
v 0.664719 1.358113 -1.230446
v -0.507290 1.291797 0.697743
v -0.634946 1.389950 -1.223751
v -0.720643 0.780430 0.748686
v -0.739154 0.919769 -1.393387
v 0.811389 1.318495 -0.795928
v -0.799401 1.359099 -0.618813
v -0.986187 0.879588 -0.656303
v 0.903087 0.912498 -0.831044
v 0.024725 1.180882 0.939830
v 0.025587 0.734130 1.267129
v -0.007511 0.948854 -1.798410
v 0.013171 1.415114 -1.576060
v -0.001822 1.374171 -0.717421
v -0.627829 0.469854 2.286585
v 1.979170 0.816246 -0.567097
v 0.961802 0.539727 2.058367
v 0.620583 0.865062 -2.441897
v 1.944752 0.869716 -1.703290
v -1.531046 0.558740 1.748297
v -1.472092 0.852631 -0.579443
v -0.936758 0.828078 -2.149580
v -0.860274 -0.218933 2.914993
v 2.149773 -0.212046 -0.436816
v 1.019187 -0.217373 2.484633
v 0.627347 -0.208983 -2.712587
v 2.155060 -0.209694 -1.861860
v -2.050123 -0.218015 2.031514
v -1.778192 -0.213631 -0.553647
v -1.169025 -0.210352 -2.375258
v 1.739996 -0.214928 1.199282
v 1.618603 0.715825 0.915392
v 0.958922 0.870686 0.065350
v 0.873847 1.266875 -0.016318
v 0.021121 1.278124 0.250003
v -0.496118 1.337307 -0.076325
v -0.696366 0.855491 -0.068952
v -1.349509 0.776016 0.475801
v -1.754257 -0.215558 0.622191
vt 0.375000 0.000000
vt 0.625000 0.000000
vt 0.375000 0.250000
vt 0.625000 0.250000
vt 0.375000 0.500000
vt 0.625000 0.500000
vt 0.375000 0.750000
vt 0.625000 0.750000
vt 0.375000 1.000000
vt 0.625000 1.000000
vt 0.875000 0.000000
vt 0.875000 0.250000
vt 0.125000 0.000000
vt 0.125000 0.250000
vt 0.500000 0.250000
vt 0.500000 0.500000
vt 0.500000 0.750000
vt 0.500000 0.000000
vt 0.500000 1.000000
vt 0.250000 0.250000
vt 0.375000 0.375000
vt 0.250000 0.000000
vt 0.375000 0.875000
vt 0.625000 0.875000
vt 0.750000 0.000000
vt 0.625000 0.375000
vt 0.750000 0.250000
vt 0.500000 0.375000
vt 0.500000 1.000000
vt 0.375000 1.000000
vt 0.375000 0.875000
vt 0.625000 0.875000
vt 0.625000 1.000000
vt 0.375000 0.750000
vt 0.500000 0.750000
vt 0.625000 0.750000
vt 0.500000 1.000000
vt 0.375000 1.000000
vt 0.375000 0.875000
vt 0.625000 0.875000
vt 0.625000 1.000000
vt 0.375000 0.750000
vt 0.500000 0.750000
vt 0.625000 0.750000
vt 0.437500 1.000000
vt 0.437500 1.000000
vt 0.437500 0.000000
vt 0.437500 1.000000
vt 0.437500 0.250000
vt 0.437500 0.375000
vt 0.437500 0.500000
vt 0.437500 0.750000
vt 0.437500 0.750000
vt 0.437500 0.750000
vn 0.898309 0.296131 0.324572
vn 0.953968 0.261415 0.146992
vn 0.964533 0.248392 0.089318
vn 0.898309 0.296131 0.324572
vn 0.036248 0.991941 0.121402
vn 0.051905 0.994504 0.090922
vn 0.059598 0.993669 0.095233
vn 0.070637 0.991441 0.109794
vn -0.922938 0.384853 0.008598
vn -0.908256 0.367430 0.200166
vn -0.907200 0.366626 0.206335
vn -0.922938 0.384853 0.008598
vn 0.439670 0.396345 -0.805978
vn -0.028487 0.442091 -0.896518
vn -0.010024 0.442213 -0.896854
vn 0.439671 0.396345 -0.805978
vn -0.003742 0.506161 0.862431
vn 0.434167 0.500910 0.748724
vn 0.434167 0.500910 0.748724
vn -0.007219 0.505787 0.862628
vn 0.060238 0.995570 0.072187
vn 0.066555 0.996250 0.055286
vn 0.025855 0.998349 0.051291
vn 0.033852 0.997239 0.066088
vn -0.933454 0.351311 0.072416
vn -0.930951 0.350945 0.100832
vn -0.905879 0.334290 -0.260066
vn -0.905879 0.334290 -0.260066
vn 0.961259 0.242598 -0.130871
vn 0.961617 0.241983 -0.129373
vn 0.928921 0.284709 -0.236742
vn 0.928921 0.284709 -0.236742
vn -0.427820 0.412399 0.804299
vn -0.427820 0.412399 0.804299
vn -0.453947 0.394890 -0.798745
vn -0.453947 0.394890 -0.798745
vn -0.013014 0.998791 0.047398
vn 0.003375 0.998193 0.060000
vn 0.041571 0.996003 0.079052
vn 0.107827 0.989422 0.097041
vn 0.092887 0.991335 0.092878
vn 0.077077 0.983574 0.163220
vn 0.077077 0.983574 0.163220
vn 0.084612 0.987894 0.130024
vn 0.010249 0.973810 0.227133
vn 0.010249 0.973810 0.227133
vn 0.010249 0.973810 0.227133
vn 0.010249 0.973810 0.227133
vn 0.044062 0.996168 -0.075545
vn 0.044062 0.996168 -0.075545
vn 0.044062 0.996169 -0.075545
vn 0.044062 0.996169 -0.075545
vn 0.073615 0.996522 0.039036
vn 0.073615 0.996522 0.039036
vn 0.073615 0.996523 0.039036
vn 0.073615 0.996522 0.039036
vn -0.064232 0.989163 0.132025
vn -0.056961 0.993747 0.096035
vn -0.061444 0.991088 0.118193
vn -0.064232 0.989163 0.132025
vn -0.048268 0.978500 0.200519
vn -0.048268 0.978500 0.200519
vn -0.048268 0.978500 0.200519
vn -0.048268 0.978500 0.200519
vn -0.133557 0.990290 -0.038581
vn -0.133557 0.990290 -0.038581
vn -0.133557 0.990290 -0.038581
vn -0.133557 0.990290 -0.038581
vn -0.072998 0.986567 -0.146141
vn -0.072998 0.986567 -0.146141
vn -0.072998 0.986567 -0.146141
vn -0.072998 0.986567 -0.146141
vn 0.917056 0.228305 0.326933
vn 0.822370 0.292446 0.488040
vn 0.822370 0.292446 0.488040
vn 0.896062 0.245711 0.369728
vn 0.141583 0.572129 0.807851
vn 0.141583 0.572129 0.807851
vn 0.141583 0.572129 0.807851
vn 0.141583 0.572129 0.807851
vn 0.474882 0.217835 -0.852663
vn 0.474882 0.217835 -0.852663
vn 0.474882 0.217835 -0.852663
vn 0.474882 0.217835 -0.852663
vn 0.984016 0.177933 -0.007314
vn 0.984015 0.177933 -0.007314
vn 0.984016 0.177933 -0.007314
vn 0.984016 0.177933 -0.007314
vn -0.891555 0.435892 -0.122996
vn -0.925411 0.378792 -0.011486
vn -0.918569 0.393352 -0.038786
vn -0.891555 0.435892 -0.122996
vn -0.420196 0.624814 0.658060
vn -0.420196 0.624814 0.658060
vn -0.420196 0.624814 0.658060
vn -0.420196 0.624814 0.658060
vn -0.913619 0.263133 -0.309939
vn -0.913619 0.263133 -0.309939
vn -0.913619 0.263133 -0.309939
vn -0.913619 0.263133 -0.309939
vn -0.181665 0.243271 -0.952794
vn -0.181665 0.243271 -0.952794
vn -0.181665 0.243271 -0.952794
vn -0.181665 0.243271 -0.952794
vn 0.951103 0.192782 0.241325
vn 0.951103 0.192782 0.241324
vn 0.097500 0.992639 0.071839
vn 0.097500 0.992639 0.071839
vn -0.052534 0.995855 0.074248
vn -0.052534 0.995855 0.074248
vn -0.940732 0.331106 0.073435
vn -0.940732 0.331106 0.073435
s 1
f 1/1/1 36/47/2 37/49/3 3/3/4
s 2
f 3/3/5 37/49/6 38/50/7 13/21/8
s 3
f 5/5/9 39/51/10 40/52/11 7/7/12
s 4
f 2/2/13 15/25/14 16/27/15 4/4/16
s 5
f 14/22/17 1/1/18 3/3/19 13/20/20
s 2
f 9/15/21 4/4/22 16/26/23 17/28/24
s 3
f 11/17/25 10/16/26 6/6/27 8/8/28
s 1
f 9/15/29 12/18/30 2/2/31 4/4/32
s 5
f 7/13/33 14/22/17 13/20/20 5/14/34
s 4
f 16/27/15 15/25/14 8/11/35 6/12/36
s 2
f 17/28/24 16/26/23 6/6/37 10/16/38
f 13/21/8 38/50/7 39/51/39 5/5/40
s 7
f 36/48/41 1/9/42 20/30/43 35/46/44
s off
f 1/9/45 14/23/46 18/31/47 20/30/48
f 15/24/49 2/10/50 22/33/51 21/32/52
f 2/10/53 12/19/54 19/29/55 22/33/56
s 8
f 7/7/57 40/52/58 41/53/59 23/34/60
s off
f 14/23/61 7/7/62 23/34/63 18/31/64
f 11/17/65 8/8/66 25/36/67 24/35/68
f 8/8/69 15/24/70 21/32/71 25/36/72
s 9
f 35/46/73 20/30/74 28/38/75 34/45/76
s off
f 20/30/77 18/31/78 26/39/79 28/38/80
f 21/32/81 22/33/82 30/41/83 29/40/84
f 22/33/85 19/29/86 27/37/87 30/41/88
s 10
f 23/34/89 41/53/90 42/54/91 31/42/92
s off
f 18/31/93 23/34/94 31/42/95 26/39/96
f 24/35/97 25/36/98 33/44/99 32/43/100
f 25/36/101 21/32/102 29/40/103 33/44/104
s 9
f 19/29/105 35/46/73 34/45/76 27/37/106
s 7
f 12/19/107 36/48/41 35/46/44 19/29/108
s 1
f 37/49/3 36/47/2 12/18/30 9/15/29
s 2
f 38/50/7 37/49/6 9/15/21 17/28/24
f 39/51/39 38/50/7 17/28/24 10/16/38
s 3
f 40/52/11 39/51/10 10/16/26 11/17/25
s 8
f 41/53/59 40/52/58 11/17/109 24/35/110
s 10
f 42/54/91 41/53/90 24/35/111 32/43/112
