# This file uses centimeters as units for non-parametric coordinates.

v -1.877953 -2.415822 1.877953
v 1.233813 -2.378853 2.302866
v -1.877953 1.340085 1.877953
v 2.716324 1.054032 1.674612
v -1.877953 1.340085 -1.877953
v 1.905958 2.184909 -1.528456
v -1.877953 -2.415822 -1.877953
v 2.479789 -2.394836 -1.390184
v -2.207424 1.049901 2.207423
v 2.207424 -0.623428 2.207423
v -2.207424 0.406290 -2.207423
v 2.809259 -1.246053 -1.719654
v -2.495902 1.340085 -0.355699
v 2.495902 1.340085 -0.166093
v -2.495902 -2.415822 0.326506
v 2.495902 -2.415822 0.516112
v 2.933786 -0.888873 0.386602
v -2.933786 0.709637 -0.126615
v -0.106491 -3.332519 2.489737
v 0.877329 1.099222 2.157069
v 0.484689 1.340085 -2.473007
v 1.021390 -2.415822 -2.473007
v -0.631333 0.452527 2.906874
v 1.017026 -0.815851 -2.906874
v 0.055116 -4.071400 0.645185
v -1.877953 2.265454 1.877953
v -0.392179 3.306193 2.006801
v -0.068861 3.622169 -0.347008
v -2.156365 2.561563 0.510929
v -0.354938 2.689573 -1.612721
v -1.002655 2.688136 -1.239598
v 1.218003 3.258585 1.179789
v 2.014002 3.362498 0.412078
v 1.059889 2.943909 -1.425779
v -2.444345 -1.019700 1.757620
v -0.428268 -0.987135 2.689111
v 2.460158 0.137168 -1.692155
v 1.006789 -0.243805 2.774263
v -0.684032 -2.586988 -2.304718
v -0.503340 -0.239597 -2.577075
v -0.250023 -1.862875 -2.536379
v -2.504549 -0.860715 -2.154674
v -1.442627 -3.750909 0.315820
v 1.539455 -3.670392 -0.117748
v 0.017270 -3.553709 -1.261125
vt 0.375000 0.000000
vt 0.625000 0.000000
vt 0.375000 0.250000
vt 0.625000 0.250000
vt 0.375000 0.500000
vt 0.625000 0.500000
vt 0.375000 0.750000
vt 0.625000 0.750000
vt 0.375000 1.000000
vt 0.625000 1.000000
vt 0.875000 0.000000
vt 0.875000 0.250000
vt 0.125000 0.000000
vt 0.125000 0.250000
vt 0.375000 0.178393
vt 0.625000 0.083637
vt 0.125000 0.141947
vt 0.375000 0.608053
vt 0.625000 0.702809
vt 0.875000 0.047191
vt 0.226324 0.250000
vt 0.375000 0.398676
vt 0.625000 0.386055
vt 0.761055 0.250000
vt 0.271733 0.000000
vt 0.375000 0.896733
vt 0.625000 0.909353
vt 0.715647 0.000000
vt 0.728108 0.068606
vt 0.242830 0.159125
vt 0.484907 0.000000
vt 0.484907 1.000000
vt 0.449183 0.250000
vt 0.532262 0.500000
vt 0.567986 0.750000
vt 0.464249 0.144565
vt 0.557591 0.677259
vt 0.496551 0.392540
vt 0.516845 0.903893
vt 0.375000 0.250000
vt 0.449183 0.250000
vt 0.375000 0.398676
vt 0.532262 0.500000
vt 0.375000 0.500000
vt 0.625000 0.250000
vt 0.625000 0.386055
vt 0.625000 0.500000
vt 0.375000 0.071863
vt 0.474618 0.072006
vt 0.658850 0.464624
vt 0.535573 0.117532
vt 0.477392 0.750000
vt 0.471497 0.644628
vt 0.475366 0.713792
vt 0.125000 0.082528
vt 0.375000 0.667472
vt 0.433007 0.899661
vt 0.576582 0.906909
vt 0.541168 0.830699
vn -0.240953 -0.178292 0.954020
vn -0.240953 -0.178292 0.954020
vn -0.240953 -0.178292 0.954020
vn -0.240953 -0.178292 0.954020
vn -0.481301 0.865842 0.136624
vn -0.481301 0.865842 0.136624
vn -0.481301 0.865842 0.136624
vn -0.481301 0.865842 0.136624
vn -0.200896 0.188977 -0.961212
vn -0.200896 0.188976 -0.961212
vn -0.200896 0.188976 -0.961212
vn -0.200896 0.188976 -0.961212
vn 0.006144 -0.731534 -0.681777
vn 0.006144 -0.731534 -0.681777
vn 0.006144 -0.731534 -0.681777
vn 0.818402 -0.319183 0.477850
vn 0.818402 -0.319183 0.477850
vn 0.818402 -0.319183 0.477850
vn 0.818402 -0.319183 0.477850
vn -0.915571 0.200189 -0.348789
vn -0.915571 0.200189 -0.348789
vn -0.915571 0.200189 -0.348789
vn -0.001415 0.756358 0.654156
vn -0.001415 0.756358 0.654157
vn -0.001415 0.756358 0.654157
vn -0.001415 0.756358 0.654157
vn -0.156209 -0.156085 -0.975313
vn -0.156209 -0.156085 -0.975313
vn -0.156209 -0.156085 -0.975314
vn -0.156209 -0.156085 -0.975314
vn 0.990374 0.020054 0.136960
vn 0.990374 0.020054 0.136960
vn 0.990374 0.020054 0.136960
vn 0.990374 0.020054 0.136960
vn -0.832987 0.430903 -0.347068
vn -0.832987 0.430903 -0.347068
vn -0.832987 0.430903 -0.347068
vn -0.832987 0.430903 -0.347068
vn -0.472176 0.808257 -0.351812
vn -0.472176 0.808257 -0.351812
vn -0.472176 0.808257 -0.351812
vn -0.472176 0.808257 -0.351812
vn -0.621601 -0.672563 0.401586
vn -0.621601 -0.672563 0.401586
vn -0.621601 -0.672563 0.401586
vn -0.621601 -0.672563 0.401586
vn 0.960724 -0.277310 -0.010439
vn 0.960724 -0.277310 -0.010439
vn 0.960724 -0.277310 -0.010439
vn 0.960724 -0.277310 -0.010439
vn -0.955703 0.046230 0.290679
vn -0.955703 0.046230 0.290679
vn -0.955703 0.046230 0.290679
vn 0.498422 0.287650 -0.817822
vn 0.498422 0.287650 -0.817822
vn 0.498422 0.287650 -0.817822
vn -0.709420 0.686935 0.157616
vn -0.709421 0.686935 0.157616
vn -0.709420 0.686935 0.157616
vn -0.709421 0.686935 0.157616
vn -0.445767 -0.141088 0.883960
vn -0.445767 -0.141088 0.883960
vn -0.445767 -0.141088 0.883960
vn 0.053620 0.980641 0.188331
vn 0.053620 0.980641 0.188331
vn 0.053620 0.980641 0.188331
vn 0.571560 0.160251 -0.804760
vn 0.571560 0.160251 -0.804760
vn 0.571560 0.160251 -0.804760
vn 0.347392 -0.793779 -0.499233
vn 0.347392 -0.793779 -0.499233
vn 0.347392 -0.793779 -0.499233
vn 0.347392 -0.793779 -0.499233
vn 0.250717 0.424084 0.870227
vn 0.250717 0.424084 0.870227
vn 0.250717 0.424084 0.870227
vn 0.524466 -0.284851 -0.802369
vn 0.524466 -0.284851 -0.802369
vn 0.524466 -0.284851 -0.802369
vn 0.524466 -0.284851 -0.802369
vn 0.119290 0.891999 -0.436013
vn 0.119290 0.891999 -0.436013
vn 0.119290 0.891999 -0.436013
vn 0.119290 0.891999 -0.436013
vn 0.576346 -0.688544 0.440151
vn 0.576346 -0.688544 0.440151
vn 0.576346 -0.688544 0.440151
vn 0.576346 -0.688544 0.440151
vn -0.097301 0.008309 0.995220
vn -0.097301 0.008309 0.995220
vn -0.097301 0.008309 0.995220
vn -0.097301 0.008309 0.995220
vn -0.967916 0.054021 0.245398
vn -0.967916 0.054021 0.245398
vn -0.967916 0.054021 0.245398
vn -0.967916 0.054021 0.245398
vn -0.270403 0.470283 -0.840069
vn -0.270403 0.470283 -0.840069
vn -0.270403 0.470283 -0.840069
vn -0.270403 0.470283 -0.840069
vn -0.733607 0.566601 -0.375211
vn -0.733607 0.566601 -0.375211
vn -0.733607 0.566601 -0.375211
vn -0.733607 0.566601 -0.375211
vn 0.964776 0.251731 -0.076410
vn 0.964776 0.251731 -0.076410
vn 0.964776 0.251731 -0.076410
vn 0.525692 0.280525 0.803090
vn 0.525692 0.280525 0.803090
vn 0.525692 0.280525 0.803090
vn 0.525692 0.280525 0.803090
vn 0.817259 0.471351 -0.331536
vn 0.817259 0.471350 -0.331536
vn 0.817259 0.471351 -0.331536
vn 0.817259 0.471350 -0.331536
vn 0.144280 0.504210 -0.851443
vn 0.144280 0.504210 -0.851443
vn 0.144280 0.504210 -0.851443
vn 0.144280 0.504210 -0.851443
vn 0.104266 0.983719 0.146376
vn 0.104266 0.983719 0.146376
vn 0.104266 0.983719 0.146376
vn -0.958686 -0.185589 0.215589
vn -0.958686 -0.185589 0.215589
vn -0.958686 -0.185589 0.215589
vn -0.958686 -0.185589 0.215589
vn -0.397524 -0.113601 0.910533
vn -0.397524 -0.113601 0.910532
vn -0.397524 -0.113601 0.910532
vn -0.397524 -0.113601 0.910532
vn 0.182940 -0.053958 0.981642
vn 0.182940 -0.053958 0.981642
vn 0.182940 -0.053958 0.981642
vn 0.182940 -0.053958 0.981642
vn 0.228718 0.519763 0.823125
vn 0.228718 0.519763 0.823125
vn 0.228718 0.519763 0.823125
vn 0.460458 0.193868 -0.866253
vn 0.460458 0.193868 -0.866253
vn 0.460458 0.193868 -0.866253
vn 0.972935 0.193639 -0.126098
vn 0.972935 0.193639 -0.126098
vn 0.972935 0.193639 -0.126098
vn 0.972935 0.193639 -0.126098
vn 0.933141 0.271394 -0.235782
vn 0.933141 0.271394 -0.235782
vn 0.933141 0.271394 -0.235782
vn 0.222553 -0.523847 0.822225
vn 0.222553 -0.523847 0.822225
vn 0.222553 -0.523847 0.822225
vn 0.348367 0.294989 0.889731
vn 0.348367 0.294989 0.889731
vn 0.348367 0.294989 0.889731
vn 0.348367 0.294989 0.889731
vn -0.197908 -0.028678 -0.979801
vn -0.197908 -0.028678 -0.979801
vn -0.197908 -0.028678 -0.979801
vn -0.197908 -0.028678 -0.979801
vn -0.068460 0.353340 -0.932987
vn -0.068460 0.353340 -0.932987
vn -0.068460 0.353340 -0.932987
vn -0.068093 -0.266749 -0.961358
vn -0.068093 -0.266749 -0.961358
vn -0.068093 -0.266749 -0.961358
vn -0.296081 -0.231704 -0.926633
vn -0.296081 -0.231704 -0.926633
vn -0.296081 -0.231704 -0.926633
vn -0.296081 -0.231704 -0.926633
vn -0.959155 -0.241186 -0.147824
vn -0.959155 -0.241186 -0.147824
vn -0.959155 -0.241186 -0.147824
vn -0.959155 -0.241186 -0.147824
vn -0.267420 -0.902344 0.338026
vn -0.267420 -0.902344 0.338026
vn -0.267420 -0.902344 0.338026
vn 0.414573 -0.831643 0.369457
vn 0.414573 -0.831643 0.369457
vn 0.414573 -0.831643 0.369457
vn 0.123701 -0.957012 -0.262349
vn 0.123701 -0.957012 -0.262349
vn 0.123701 -0.957012 -0.262349
vn -0.568190 -0.748194 -0.342586
vn -0.568190 -0.748194 -0.342586
vn -0.568190 -0.748194 -0.342586
vn -0.568190 -0.748194 -0.342586
vn -0.283920 -0.883200 -0.373292
vn -0.283920 -0.883201 -0.373292
vn -0.283920 -0.883201 -0.373292
vn -0.283920 -0.883201 -0.373292
vn 0.798429 -0.601941 -0.013375
vn 0.798428 -0.601941 -0.013375
vn 0.798429 -0.601941 -0.013375
s off
f 23/36/1 35/48/2 36/49/3 38/51/4
f 26/40/5 27/41/6 28/38/7 29/42/8
f 5/5/9 21/34/10 24/37/11 40/53/12
f 45/59/13 39/52/14 22/35/15
f 2/2/16 16/28/17 17/29/18 10/16/19
f 42/55/20 18/30/21 11/17/22
f 9/15/23 23/36/24 20/33/25 3/3/26
f 22/35/27 41/54/28 40/53/29 24/37/30
f 10/16/31 17/29/32 14/24/33 4/4/34
f 11/17/35 18/30/36 13/21/37 5/14/38
f 29/42/39 28/38/40 30/43/41 31/44/42
f 15/26/43 43/57/44 19/32/45 1/9/46
f 17/29/47 16/28/48 8/11/49 12/20/50
f 18/30/51 35/48/52 9/15/53
f 21/34/54 37/50/55 24/37/56
f 13/21/57 18/30/58 9/15/59 3/3/60
f 35/48/61 23/36/62 9/15/63
f 28/38/64 32/45/65 33/46/66
f 24/37/67 37/50/68 12/19/69
f 44/58/70 45/59/71 22/35/72 8/8/73
f 20/33/74 23/36/75 38/51/76
f 22/35/77 24/37/78 12/19/79 8/8/80
f 30/43/81 28/38/82 33/46/83 34/47/84
f 19/32/85 44/58/86 16/27/87 2/10/88
f 3/3/89 20/33/90 27/41/91 26/40/92
f 13/22/93 3/3/94 26/40/95 29/42/96
f 21/34/97 5/5/98 31/44/99 30/43/100
f 5/5/101 13/22/102 29/42/103 31/44/104
f 33/46/105 4/4/106 14/23/107
f 20/33/108 33/46/109 32/45/110 27/41/111
f 14/23/112 6/6/113 34/47/114 33/46/115
f 6/6/116 21/34/117 30/43/118 34/47/119
f 28/38/120 27/41/121 32/45/122
f 18/30/123 15/25/124 1/1/125 35/48/126
f 1/1/127 19/31/128 36/49/129 35/48/130
f 10/16/131 36/49/132 19/31/133 2/2/134
f 33/46/135 20/33/136 4/4/137
f 6/12/138 37/50/139 21/34/140
f 12/19/141 37/50/142 14/24/143 17/29/144
f 14/24/145 37/50/146 6/12/147
f 38/51/148 36/49/149 10/16/150
f 20/33/151 38/51/152 10/16/153 4/4/154
f 11/18/155 40/53/156 41/54/157 42/56/158
f 5/5/159 40/53/160 11/18/161
f 39/52/162 41/54/163 22/35/164
f 42/56/165 41/54/166 39/52/167 7/7/168
f 7/13/169 15/25/170 18/30/171 42/55/172
f 19/32/173 43/57/174 25/39/175
f 19/32/176 25/39/177 44/58/178
f 25/39/179 45/59/180 44/58/181
f 7/7/182 39/52/183 43/57/184 15/26/185
f 43/57/186 39/52/187 45/59/188 25/39/189
f 44/58/190 8/8/191 16/27/192
