# This file uses centimeters as units for non-parametric coordinates.

v 0.739203 0.808042 0.774958
v 0.775441 0.937600 -1.395053
v 0.660486 1.214682 0.577469
v 0.664719 1.358113 -1.230446
v -0.507290 1.291797 0.697743
v -0.634946 1.389950 -1.223751
v -0.720643 0.780430 0.748686
v -0.739154 0.919769 -1.393387
v 0.811389 1.318495 -0.795928
v -0.799401 1.359099 -0.618813
v -0.986187 0.879588 -0.656303
v 0.903087 0.912498 -0.831044
v 0.024725 1.180882 0.939830
v 0.025587 0.734130 1.267129
v -0.007511 0.948854 -1.798410
v 0.013171 1.415114 -1.576060
v -0.001822 1.374171 -0.717421
v -0.627829 0.469854 2.286585
v 1.979170 0.816246 -0.567097
v 0.961802 0.539727 2.058367
v 0.620583 0.865062 -2.441897
v 1.944752 0.869716 -1.703290
v -1.531046 0.558740 1.748297
v -1.472092 0.852631 -0.579443
v -0.936758 0.828078 -2.149580
v -0.860274 -0.218933 2.914993
v 2.149773 -0.212046 -0.436816
v 1.019187 -0.217373 2.484633
v 0.627347 -0.208983 -2.712587
v 2.155060 -0.209694 -1.861860
v -2.050123 -0.218015 2.031514
v -1.778192 -0.213631 -0.553647
v -1.169025 -0.210352 -2.375258
v 1.739996 -0.214928 1.199282
v 1.618603 0.715825 0.915392
v 0.958922 0.870686 0.065350
v 0.873847 1.266875 -0.016318
v 0.021121 1.278124 0.250003
v -0.496118 1.337307 -0.076325
v -0.696366 0.855491 -0.068952
v -1.349509 0.776016 0.475801
v -1.754257 -0.215558 0.622191
v 1.101394 -0.715249 2.687314
v 1.883499 -0.712595 1.292660
v -0.937892 -0.716941 3.154270
v 0.676233 -0.706146 -2.951865
v 2.333859 -0.706917 -2.028794
v 2.328123 -0.709469 -0.482567
v -2.228922 -0.715946 2.195663
v -1.907896 -0.713280 0.666495
v -1.933867 -0.711188 -0.609334
v -1.272897 -0.707631 -2.585850
vt 0.539032 0.358839
vt 0.598151 0.444883
vt 0.554887 0.471409
vt 0.516000 0.409390
vt 0.445496 0.464115
vt 0.427333 0.382710
vt 0.374628 0.433867
vt 0.388417 0.518566
vt 0.321313 0.524924
vt 0.309622 0.414992
vt 0.600752 0.645321
vt 0.506349 0.726127
vt 0.494259 0.670110
vt 0.556357 0.614116
vt 0.414129 0.319776
vt 0.564193 0.562280
vt 0.467910 0.572113
vt 0.319804 0.614907
vt 0.376929 0.590648
vt 0.414483 0.649896
vt 0.389356 0.702922
vt 0.614368 0.564065
vt 0.531042 0.192378
vt 0.658944 0.320536
vt 0.298675 0.202758
vt 0.741033 0.654100
vt 0.607983 0.784695
vt 0.746867 0.510713
vt 0.225079 0.479090
vt 0.185339 0.309047
vt 0.401047 0.802899
vt 0.260503 0.625908
vt 0.542755 0.075812
vt 0.740608 0.220223
vt 0.232607 0.089036
vt 0.875702 0.717595
vt 0.656105 0.917551
vt 0.875151 0.471042
vt 0.077757 0.494356
vt 0.068283 0.260113
vt 0.349671 0.923030
vt 0.124417 0.689005
vt 0.558154 0.000000
vt 0.796076 0.168775
vt 0.198444 0.019441
vt 0.941562 0.757053
vt 0.687802 0.989103
vt 0.949603 0.467083
vt 0.002442 0.499779
vt 0.000000 0.219479
vt 0.330372 1.000000
vt 0.065302 0.732341
vn 0.611770 0.457957 0.644991
vn 0.953968 0.261415 0.146992
vn 0.964533 0.248392 0.089318
vn 0.705436 0.422491 0.569088
vn 0.036248 0.991941 0.121402
vn 0.051905 0.994504 0.090922
vn 0.059598 0.993669 0.095233
vn 0.070637 0.991441 0.109794
vn -0.777796 0.450391 0.438384
vn -0.908256 0.367430 0.200166
vn -0.907200 0.366626 0.206335
vn -0.779401 0.450260 0.435660
vn 0.645558 0.384571 -0.659819
vn -0.028487 0.442091 -0.896518
vn -0.010024 0.442213 -0.896854
vn 0.669401 0.381223 -0.637629
vn -0.003742 0.506161 0.862431
vn -0.007219 0.505787 0.862628
vn 0.060238 0.995570 0.072187
vn 0.066555 0.996250 0.055286
vn 0.025855 0.998349 0.051291
vn 0.033852 0.997239 0.066088
vn -0.933454 0.351311 0.072416
vn -0.930951 0.350945 0.100832
vn -0.723939 0.390017 -0.569033
vn -0.698411 0.392993 -0.598146
vn 0.961259 0.242598 -0.130871
vn 0.961617 0.241983 -0.129373
vn -0.013014 0.998791 0.047398
vn 0.003375 0.998193 0.060000
vn 0.041571 0.996003 0.079052
vn 0.107827 0.989422 0.097041
vn 0.092887 0.991335 0.092878
vn 0.051759 0.980866 0.187675
vn 0.025988 0.976867 0.212265
vn 0.084612 0.987894 0.130024
vn -0.011153 0.975995 0.217507
vn -0.027211 0.977279 0.210203
vn -0.028072 0.992464 -0.119275
vn 0.055549 0.997962 -0.031416
vn 0.062571 0.998032 -0.004189
vn 0.021047 0.995758 -0.089576
vn 0.083703 0.995087 0.052878
vn 0.087677 0.994439 0.058336
vn -0.055625 0.984009 0.169213
vn -0.056961 0.993747 0.096035
vn -0.061444 0.991088 0.118193
vn -0.050999 0.980662 0.188948
vn -0.095101 0.995350 0.015328
vn -0.108363 0.990570 -0.083843
vn -0.086564 0.988697 -0.122411
vn -0.085255 0.995936 0.029026
vn 0.917056 0.228305 0.326933
vn 0.538760 0.466703 0.701374
vn 0.468177 0.459074 0.755024
vn 0.892577 0.275042 0.357292
vn -0.092962 0.619869 0.779179
vn -0.126002 0.539528 0.832486
vn 0.159510 0.244285 -0.956494
vn 0.796774 0.229998 -0.558794
vn 0.784490 0.316246 -0.533445
vn 0.139971 0.323643 -0.935769
vn 0.975725 0.186636 0.114579
vn 0.961387 0.239102 0.136253
vn -0.770138 0.586143 0.251643
vn -0.925411 0.378792 -0.011486
vn -0.932402 0.356858 -0.057256
vn -0.804754 0.511353 0.301478
vn -0.940059 0.292844 -0.174732
vn -0.631221 0.290046 -0.719329
vn -0.639829 0.340346 -0.689045
vn -0.939060 0.301847 -0.164481
vn 0.482387 0.397429 0.780611
vn 0.881583 0.319415 0.347543
vn -0.143691 0.446685 0.883077
vn 0.728632 0.438618 -0.526032
vn 0.140720 0.440558 -0.886626
vn 0.938121 0.325481 0.118280
vn -0.952644 0.284512 -0.107339
vn -0.820468 0.421824 0.385871
vn -0.578992 0.417518 -0.700319
vn -0.931329 0.312349 -0.187255
s 1
f 1/1/1 36/2/2 37/3/3 3/4/4
s 2
f 3/4/5 37/3/6 38/5/7 13/6/8
s 1
f 5/7/9 39/8/10 40/9/11 7/10/12
f 2/11/13 15/12/14 16/13/15 4/14/16
f 14/15/17 1/1/1 3/4/4 13/6/18
s 2
f 9/16/19 4/14/20 16/13/21 17/17/22
s 1
f 11/18/23 10/19/24 6/20/25 8/21/26
f 9/16/27 12/22/28 2/11/13 4/14/16
f 7/10/12 14/15/17 13/6/18 5/7/9
f 16/13/15 15/12/14 8/21/26 6/20/25
s 2
f 17/17/22 16/13/21 6/20/29 10/19/30
f 13/6/8 38/5/7 39/8/31 5/7/32
s 6
f 36/2/33 1/1/34 20/23/35 35/24/36
f 1/1/34 14/15/37 18/25/38 20/23/35
f 15/12/39 2/11/40 22/26/41 21/27/42
f 2/11/40 12/22/43 19/28/44 22/26/41
f 7/10/45 40/9/46 41/29/47 23/30/48
f 14/15/37 7/10/45 23/30/48 18/25/38
f 11/18/49 8/21/50 25/31/51 24/32/52
f 8/21/50 15/12/39 21/27/42 25/31/51
s 9
f 35/24/53 20/23/54 28/33/55 34/34/56
f 20/23/54 18/25/57 26/35/58 28/33/55
f 21/27/59 22/26/60 30/36/61 29/37/62
f 22/26/60 19/28/63 27/38/64 30/36/61
f 23/30/65 41/29/66 42/39/67 31/40/68
f 18/25/57 23/30/65 31/40/68 26/35/58
f 24/32/69 25/31/70 33/41/71 32/42/72
f 25/31/70 21/27/59 29/37/62 33/41/71
f 19/28/63 35/24/53 34/34/56 27/38/64
s 6
f 12/22/43 36/2/33 35/24/36 19/28/44
s 1
f 37/3/3 36/2/2 12/22/28 9/16/27
s 2
f 38/5/7 37/3/6 9/16/19 17/17/22
f 39/8/31 38/5/7 17/17/22 10/19/30
s 1
f 40/9/11 39/8/10 10/19/24 11/18/23
s 6
f 41/29/47 40/9/46 11/18/49 24/32/52
s 9
f 42/39/67 41/29/66 24/32/69 32/42/72
f 34/34/56 28/33/55 43/43/73 44/44/74
f 28/33/55 26/35/58 45/45/75 43/43/73
f 29/37/62 30/36/61 47/46/76 46/47/77
f 30/36/61 27/38/64 48/48/78 47/46/76
f 31/40/68 42/39/67 50/49/79 49/50/80
f 26/35/58 31/40/68 49/50/80 45/45/75
f 32/42/72 33/41/71 52/51/81 51/52/82
f 33/41/71 29/37/62 46/47/77 52/51/81
f 27/38/64 34/34/56 44/44/74 48/48/78
f 42/39/67 32/42/72 51/52/82 50/49/79
