# This file uses centimeters as units for non-parametric coordinates.

v 0.541341 1.255534 0.347853
v 0.565581 1.342205 -1.103824
v 0.488681 1.527565 0.215739
v 0.491513 1.623516 -0.993706
v -0.292529 1.579153 0.485810
v -0.526453 1.644814 -1.013312
v -0.435257 1.237062 0.659445
v -0.596165 1.330276 -1.126795
v 0.474044 1.597013 -0.703451
v -0.720473 1.624176 -0.325040
v -0.845429 1.303396 -0.350120
v 0.535387 1.325412 -0.726942
v 0.063374 1.504954 0.458148
v 0.063951 1.206089 0.677102
v -0.119263 1.349733 -1.412523
v -0.105428 1.661648 -1.263777
v 0.045615 1.634259 -0.650507
v -0.373167 1.029296 1.359090
v 1.370844 1.261022 -0.549944
v 0.690253 1.076039 1.206419
v 0.461987 1.293679 -1.804133
v 1.347820 1.296792 -1.310026
v -0.977393 1.088758 0.998990
v -1.154526 1.285363 -0.558204
v -0.579830 1.268937 -1.608582
v -0.528666 0.843221 1.779477
v 1.484974 0.847828 -0.462789
v 0.728642 0.844264 1.491579
v 0.466512 0.849877 -1.985217
v 1.488509 0.849401 -1.416105
v -1.324642 0.843835 1.188455
v -1.359298 0.846767 -0.540947
v -0.735211 0.848961 -1.759554
v 1.210843 0.845900 0.631715
v 1.129634 1.193843 0.441799
v 0.572739 1.297441 -0.127280
v 0.515826 1.562481 -0.181913
v 0.060964 1.570006 -0.003327
v -0.494566 1.609597 0.204607
v -0.628526 1.287276 0.209539
v -1.166116 1.234109 0.147725
v -1.436881 0.845478 0.245656
v 1.008687 0.711008 2.125259
v 1.683023 0.748410 0.923680
v -0.749601 0.697930 2.527545
v 0.642111 0.861115 -2.733286
v 2.071327 0.837040 -1.937973
v 2.066383 0.795844 -0.605792
v -1.862738 0.723065 1.701620
v -2.019699 0.763906 0.384142
v -1.911203 0.797889 -0.715072
v -1.038445 0.850754 -2.417967
v 1.324693 -0.191091 2.841632
v 2.215837 -0.141666 1.253729
v -0.998908 -0.208375 3.373258
v 0.840258 0.007275 -3.578998
v 2.728986 -0.024539 -2.527982
v 2.722452 -0.078981 -0.767488
v -2.469932 -0.175157 2.281787
v -2.677358 -0.121186 0.540722
v -2.533979 -0.076279 -0.911903
v -1.380618 -0.006417 -3.162301
v 1.534551 -0.627670 3.317372
v 2.569676 -0.570260 1.472914
v -1.164471 -0.647747 3.934891
v 0.971847 -0.397255 -4.140631
v 3.165734 -0.434208 -2.919805
v 3.158145 -0.497447 -0.874870
v -2.873167 -0.609162 2.667073
v -3.114106 -0.546471 0.644707
v -2.947562 -0.494309 -1.042617
v -1.607854 -0.413159 -3.656610
vt 0.518569 0.407783
vt 0.550460 0.448778
vt 0.531756 0.466999
vt 0.511887 0.436144
vt 0.485387 0.471211
vt 0.464802 0.431975
vt 0.433863 0.449150
vt 0.430435 0.481203
vt 0.397421 0.486153
vt 0.400766 0.431396
vt 0.588175 0.546069
vt 0.537586 0.610910
vt 0.525293 0.583130
vt 0.560191 0.537006
vt 0.451492 0.399564
vt 0.550064 0.513383
vt 0.511711 0.525226
vt 0.408409 0.551736
vt 0.435746 0.533751
vt 0.482134 0.580139
vt 0.475244 0.610615
vt 0.575096 0.506301
vt 0.491458 0.321595
vt 0.571593 0.374104
vt 0.374070 0.359750
vt 0.663655 0.531069
vt 0.609412 0.616068
vt 0.641791 0.458329
vt 0.355135 0.522593
vt 0.331163 0.429200
vt 0.503998 0.651644
vt 0.394884 0.586162
vt 0.482066 0.284075
vt 0.583725 0.335502
vt 0.336187 0.325374
vt 0.713811 0.538612
vt 0.634972 0.656504
vt 0.673676 0.430866
vt 0.308417 0.534237
vt 0.282042 0.428490
vt 0.493538 0.698409
vt 0.356478 0.613400
vt 0.476450 0.209669
vt 0.612756 0.284149
vt 0.277042 0.263853
vt 0.792097 0.563471
vt 0.686887 0.718680
vt 0.736217 0.421797
vt 0.246297 0.549141
vt 0.206282 0.404783
vt 0.500093 0.773993
vt 0.314948 0.656546
vt 0.471141 0.077570
vt 0.677814 0.181354
vt 0.184956 0.162901
vt 0.921303 0.594075
vt 0.773300 0.821012
vt 0.850484 0.383237
vt 0.128779 0.583240
vt 0.076656 0.366756
vt 0.502504 0.905465
vt 0.227992 0.741949
vt 0.464594 0.000000
vt 0.712201 0.122329
vt 0.128243 0.101781
vt 1.000000 0.616100
vt 0.825581 0.882300
vt 0.917929 0.365854
vt 0.060875 0.598538
vt 0.000000 0.340818
vt 0.506076 0.984113
vt 0.179853 0.791332
vn 0.644702 0.461623 0.609315
vn 0.975268 0.220419 0.016393
vn 0.975984 0.217714 -0.007473
vn 0.779399 0.410298 0.473490
vn 0.038758 0.992423 0.116594
vn 0.061607 0.993900 0.091474
vn 0.062227 0.994986 0.078293
vn 0.102824 0.989778 0.098825
vn -0.377878 0.539254 0.752604
vn -0.823839 0.389556 0.411748
vn -0.829922 0.383085 0.405555
vn -0.365363 0.540052 0.758191
vn 0.615743 0.403738 -0.676650
vn -0.001935 0.440971 -0.897519
vn 0.007553 0.440840 -0.897554
vn 0.667048 0.399445 -0.628880
vn 0.239352 0.514619 0.823334
vn 0.273933 0.513856 0.812966
vn 0.067142 0.995586 0.065575
vn 0.062647 0.996773 0.050193
vn 0.015105 0.999057 0.040718
vn 0.037804 0.997809 0.054291
vn -0.935435 0.353498 0.000209
vn -0.934938 0.353981 0.024253
vn -0.787763 0.377075 -0.487078
vn -0.762900 0.381798 -0.521741
vn 0.976699 0.214591 -0.003091
vn 0.976682 0.214686 -0.001106
vn -0.004846 0.999314 0.036715
vn 0.028412 0.998322 0.050457
vn 0.071499 0.995312 0.065134
vn 0.145453 0.985560 0.086687
vn 0.081706 0.992933 0.086077
vn 0.053521 0.981751 0.182483
vn 0.026087 0.977160 0.210898
vn 0.080213 0.989820 0.117572
vn 0.004005 0.970854 0.239639
vn -0.006236 0.965577 0.260043
vn -0.038231 0.988407 -0.146937
vn 0.052537 0.998304 -0.025080
vn 0.058034 0.998314 -0.000562
vn 0.028580 0.995831 -0.086629
vn 0.075408 0.995455 0.058159
vn 0.076864 0.995198 0.060612
vn -0.066659 0.967080 0.245588
vn -0.126803 0.979584 0.156003
vn -0.121011 0.983825 0.132078
vn -0.078449 0.968763 0.235252
vn -0.116928 0.992825 0.025040
vn -0.124781 0.988024 -0.090764
vn -0.099963 0.981577 -0.162834
vn -0.125760 0.991999 -0.011103
vn 0.873638 0.382160 0.301180
vn 0.432819 0.736406 0.519974
vn 0.264917 0.806839 0.528043
vn 0.826734 0.434485 0.357399
vn -0.055221 0.874046 0.482695
vn -0.085787 0.876653 0.473414
vn 0.156478 0.379021 -0.912063
vn 0.764879 0.358705 -0.535062
vn 0.754622 0.359177 -0.549124
vn 0.133104 0.380472 -0.915164
vn 0.946881 0.303473 0.106398
vn 0.941480 0.308131 0.136641
vn -0.475210 0.826708 0.301214
vn -0.788220 0.612304 0.061592
vn -0.758703 0.645061 0.090913
vn -0.482875 0.823900 0.296683
vn -0.842611 0.442407 -0.307054
vn -0.541532 0.427983 -0.723584
vn -0.572544 0.428789 -0.698808
vn -0.850378 0.452017 -0.269328
vn 0.146599 0.986172 0.077283
vn 0.094874 0.982711 0.158992
vn 0.077154 0.982240 0.171033
vn 0.150121 0.985101 0.083902
vn -0.019298 0.984196 0.176028
vn -0.026662 0.984467 0.173531
vn 0.002708 0.999974 0.006736
vn 0.033285 0.999392 0.010428
vn 0.025476 0.999640 0.008398
vn 0.003173 0.999974 0.006474
vn 0.108121 0.993346 0.039671
vn 0.092527 0.995196 0.031994
vn -0.126934 0.987469 0.093769
vn -0.135258 0.990565 0.022054
vn -0.141175 0.989636 0.026259
vn -0.117640 0.986805 0.111250
vn -0.073251 0.997313 -0.001225
vn -0.026855 0.999639 0.001167
vn -0.020073 0.999793 0.003442
vn -0.072538 0.997365 -0.001372
vn 0.763237 0.569827 0.304577
vn 0.432197 0.648779 0.626331
vn 0.373082 0.708470 0.599066
vn 0.720639 0.624906 0.300286
vn -0.094254 0.692943 0.714805
vn -0.095248 0.749672 0.654920
vn 0.102946 0.711936 -0.694658
vn 0.609151 0.708704 -0.355912
vn 0.538649 0.769502 -0.343109
vn 0.102735 0.767407 -0.632876
vn 0.804425 0.577640 0.138685
vn 0.763250 0.634623 0.121256
vn -0.642958 0.671989 0.367472
vn -0.800184 0.599187 0.026107
vn -0.756592 0.652835 0.037077
vn -0.572084 0.732303 0.369394
vn -0.761390 0.598522 -0.249113
vn -0.485835 0.675548 -0.554617
vn -0.424996 0.739256 -0.522379
vn -0.719825 0.654479 -0.231323
vn 0.311186 0.764605 0.564396
vn 0.661225 0.692917 0.287485
vn -0.097169 0.797592 0.595320
vn 0.465870 0.818412 -0.336403
vn 0.100726 0.818345 -0.565832
vn 0.702100 0.704611 0.102853
vn -0.691379 0.721075 0.045235
vn -0.497200 0.786731 0.365851
vn -0.358441 0.794997 -0.489387
vn -0.661760 0.720033 -0.208869
s 1
f 1/1/1 36/2/2 37/3/3 3/4/4
s 2
f 3/4/5 37/3/6 38/5/7 13/6/8
s 1
f 5/7/9 39/8/10 40/9/11 7/10/12
f 2/11/13 15/12/14 16/13/15 4/14/16
f 14/15/17 1/1/1 3/4/4 13/6/18
s 2
f 9/16/19 4/14/20 16/13/21 17/17/22
s 1
f 11/18/23 10/19/24 6/20/25 8/21/26
f 9/16/27 12/22/28 2/11/13 4/14/16
f 7/10/12 14/15/17 13/6/18 5/7/9
f 16/13/15 15/12/14 8/21/26 6/20/25
s 2
f 17/17/22 16/13/21 6/20/29 10/19/30
f 13/6/8 38/5/7 39/8/31 5/7/32
s 6
f 36/2/33 1/1/34 20/23/35 35/24/36
f 1/1/34 14/15/37 18/25/38 20/23/35
f 15/12/39 2/11/40 22/26/41 21/27/42
f 2/11/40 12/22/43 19/28/44 22/26/41
f 7/10/45 40/9/46 41/29/47 23/30/48
f 14/15/37 7/10/45 23/30/48 18/25/38
f 11/18/49 8/21/50 25/31/51 24/32/52
f 8/21/50 15/12/39 21/27/42 25/31/51
s 9
f 35/24/53 20/23/54 28/33/55 34/34/56
f 20/23/54 18/25/57 26/35/58 28/33/55
f 21/27/59 22/26/60 30/36/61 29/37/62
f 22/26/60 19/28/63 27/38/64 30/36/61
f 23/30/65 41/29/66 42/39/67 31/40/68
f 18/25/57 23/30/65 31/40/68 26/35/58
f 24/32/69 25/31/70 33/41/71 32/42/72
f 25/31/70 21/27/59 29/37/62 33/41/71
f 19/28/63 35/24/53 34/34/56 27/38/64
s 6
f 12/22/43 36/2/33 35/24/36 19/28/44
s 1
f 37/3/3 36/2/2 12/22/28 9/16/27
s 2
f 38/5/7 37/3/6 9/16/19 17/17/22
f 39/8/31 38/5/7 17/17/22 10/19/30
s 1
f 40/9/11 39/8/10 10/19/24 11/18/23
s 6
f 41/29/47 40/9/46 11/18/49 24/32/52
s 9
f 42/39/67 41/29/66 24/32/69 32/42/72
s 12
f 34/34/73 28/33/74 43/43/75 44/44/76
f 28/33/74 26/35/77 45/45/78 43/43/75
f 29/37/79 30/36/80 47/46/81 46/47/82
f 30/36/80 27/38/83 48/48/84 47/46/81
f 31/40/85 42/39/86 50/49/87 49/50/88
f 26/35/77 31/40/85 49/50/88 45/45/78
f 32/42/89 33/41/90 52/51/91 51/52/92
f 33/41/90 29/37/79 46/47/82 52/51/91
f 27/38/83 34/34/73 44/44/76 48/48/84
f 42/39/86 32/42/89 51/52/92 50/49/87
s 15
f 44/44/93 43/43/94 53/53/95 54/54/96
f 43/43/94 45/45/97 55/55/98 53/53/95
f 46/47/99 47/46/100 57/56/101 56/57/102
f 47/46/100 48/48/103 58/58/104 57/56/101
f 49/50/105 50/49/106 60/59/107 59/60/108
f 45/45/97 49/50/105 59/60/108 55/55/98
f 51/52/109 52/51/110 62/61/111 61/62/112
f 52/51/110 46/47/99 56/57/102 62/61/111
f 48/48/103 44/44/93 54/54/96 58/58/104
f 50/49/106 51/52/109 61/62/112 60/59/107
f 54/54/96 53/53/95 63/63/113 64/64/114
f 53/53/95 55/55/98 65/65/115 63/63/113
f 56/57/102 57/56/101 67/66/116 66/67/117
f 57/56/101 58/58/104 68/68/118 67/66/116
f 59/60/108 60/59/107 70/69/119 69/70/120
f 55/55/98 59/60/108 69/70/120 65/65/115
f 61/62/112 62/61/111 72/71/121 71/72/122
f 62/61/111 56/57/102 66/67/117 72/71/121
f 58/58/104 54/54/96 64/64/114 68/68/118
f 60/59/107 61/62/112 71/72/122 70/69/119
